SplineFontDB: 3.0
FontName: OpenSans-Light
FullName: Open Sans Light
FamilyName: Open Sans
Weight: Light
Copyright: Digitized data copyright (c) 2010-2011, Google Corporation.
Version: 1.10
ItalicAngle: 0
UnderlinePosition: -205
UnderlineWidth: 102
Ascent: 1638
Descent: 410
InvalidEm: 0
sfntRevision: 0x0001199a
LayerCount: 2
Layer: 0 1 "Back" 1
Layer: 1 1 "Fore" 0
XUID: [1021 283 1905561628 5624427]
StyleMap: 0x0000
FSType: 0
OS2Version: 3
OS2_WeightWidthSlopeOnly: 0
OS2_UseTypoMetrics: 0
CreationTime: 1293706331
ModificationTime: 1622736789
PfmFamily: 17
TTFWeight: 300
TTFWidth: 5
LineGap: 0
VLineGap: 0
Panose: 2 11 3 6 3 5 4 2 2 4
OS2TypoAscent: 1567
OS2TypoAOffset: 0
OS2TypoDescent: -492
OS2TypoDOffset: 0
OS2TypoLinegap: 132
OS2WinAscent: 2189
OS2WinAOffset: 0
OS2WinDescent: 600
OS2WinDOffset: 0
HheadAscent: 2189
HheadAOffset: 0
HheadDescent: -600
HheadDOffset: 0
OS2SubXSize: 1434
OS2SubYSize: 1331
OS2SubXOff: 0
OS2SubYOff: 287
OS2SupXSize: 1434
OS2SupYSize: 1331
OS2SupXOff: 0
OS2SupYOff: 977
OS2StrikeYSize: 102
OS2StrikeYPos: 492
OS2CapHeight: 1462
OS2XHeight: 1087
OS2FamilyClass: 2050
OS2Vendor: '1ASC'
OS2CodePages: 2000019f.00000000
OS2UnicodeRanges: e00002ef.4000205b.00000028.00000000
Lookup: 1 0 0 "'ss02' Style Set 2 in Latin lookup 0" { "'ss02' Style Set 2 in Latin lookup 0 subtable"  } ['salt' ('latn' <'MOL ' 'ROM ' 'dflt' > ) 'ss01' ('latn' <'MOL ' 'ROM ' 'dflt' > ) 'ss02' ('latn' <'MOL ' 'ROM ' 'dflt' > ) ]
Lookup: 1 0 0 "'ss03' Style Set 3 in Latin lookup 1" { "'ss03' Style Set 3 in Latin lookup 1 subtable"  } ['salt' ('latn' <'MOL ' 'ROM ' 'dflt' > ) 'ss01' ('latn' <'MOL ' 'ROM ' 'dflt' > ) 'ss03' ('latn' <'MOL ' 'ROM ' 'dflt' > ) ]
Lookup: 1 0 0 "'onum' Oldstyle Figures in Latin lookup 2" { "'onum' Oldstyle Figures in Latin lookup 2 subtable" ("oldstyle") } ['onum' ('latn' <'MOL ' 'ROM ' 'dflt' > ) ]

StartChar: .notdef
Encoding: 65536 -1 0
Width: 1229
GlyphClass: 2
Flags: W
LayerCount: 2
Fore
SplineSet
297 104 m 1,0,-1
 930 104 l 1,1,-1
 930 1358 l 1,2,-1
 297 1358 l 1,3,-1
 297 104 l 1,0,-1
193 0 m 1,4,-1
 193 1462 l 1,5,-1
 1034 1462 l 1,6,-1
 1034 0 l 1,7,-1
 193 0 l 1,4,-1
EndSplineSet
Validated: 1
EndChar

StartChar: exclam
Encoding: 33 33 4
Width: 492
GlyphClass: 2
Flags: W
LayerCount: 2
Fore
SplineSet
186 1462 m 1,0,-1
 305 1462 l 1,1,-1
 276 377 l 1,2,-1
 215 377 l 1,3,-1
 186 1462 l 1,0,-1
164 78 m 128,-1,5
 164 176 164 176 244 176 c 0,6,7
 326 176 326 176 326 78 c 128,-1,8
 326 -20 326 -20 244 -20 c 0,9,4
 164 -20 164 -20 164 78 c 128,-1,5
EndSplineSet
Validated: 1
EndChar

StartChar: quotedbl
Encoding: 34 34 5
Width: 723
GlyphClass: 2
Flags: W
LayerCount: 2
Fore
SplineSet
463 1462 m 1,0,-1
 590 1462 l 1,1,-1
 557 934 l 1,2,-1
 496 934 l 1,3,-1
 463 1462 l 1,0,-1
133 1462 m 1,4,-1
 260 1462 l 1,5,-1
 227 934 l 1,6,-1
 166 934 l 1,7,-1
 133 1462 l 1,4,-1
EndSplineSet
Validated: 1
EndChar

StartChar: numbersign
Encoding: 35 35 6
Width: 1323
GlyphClass: 2
Flags: W
LayerCount: 2
Fore
SplineSet
440 530 m 1,0,-1
 803 530 l 1,1,-1
 881 928 l 1,2,-1
 518 928 l 1,3,-1
 440 530 l 1,0,-1
55 451 m 1,4,-1
 55 530 l 1,5,-1
 354 530 l 1,6,-1
 430 928 l 1,7,-1
 133 928 l 1,8,-1
 133 1008 l 1,9,-1
 444 1008 l 1,10,-1
 530 1462 l 1,11,-1
 621 1462 l 1,12,-1
 532 1008 l 1,13,-1
 897 1008 l 1,14,-1
 985 1462 l 1,15,-1
 1071 1462 l 1,16,-1
 983 1008 l 1,17,-1
 1268 1008 l 1,18,-1
 1268 928 l 1,19,-1
 967 928 l 1,20,-1
 891 530 l 1,21,-1
 1194 530 l 1,22,-1
 1194 451 l 1,23,-1
 874 451 l 1,24,-1
 788 0 l 1,25,-1
 698 0 l 1,26,-1
 786 451 l 1,27,-1
 426 451 l 1,28,-1
 340 0 l 1,29,-1
 252 0 l 1,30,-1
 338 451 l 1,31,-1
 55 451 l 1,4,-1
EndSplineSet
Validated: 1
EndChar

StartChar: dollar
Encoding: 36 36 7
Width: 1169
GlyphClass: 2
Flags: W
LayerCount: 2
Fore
SplineSet
618 209 m 1,0,1
 740 222 740 222 810.5 284 c 128,-1,2
 881 346 881 346 881 444 c 0,3,4
 881 529 881 529 818 584.5 c 128,-1,5
 755 640 755 640 618 680 c 1,6,-1
 618 209 l 1,0,1
297 1049 m 0,7,8
 297 963 297 963 354 908 c 128,-1,9
 411 853 411 853 537 815 c 1,10,-1
 537 1268 l 1,11,12
 418 1252 418 1252 357.5 1192 c 128,-1,13
 297 1132 297 1132 297 1049 c 0,7,8
164 186 m 1,14,-1
 164 289 l 1,15,16
 239 253 239 253 343.5 228 c 128,-1,17
 448 203 448 203 537 203 c 1,18,-1
 537 711 l 1,19,20
 392 755 392 755 322 799 c 128,-1,21
 252 843 252 843 220 903 c 128,-1,22
 188 963 188 963 188 1049 c 0,23,24
 188 1173 188 1173 282.5 1257.5 c 128,-1,25
 377 1342 377 1342 537 1362 c 1,26,-1
 537 1554 l 1,27,-1
 618 1554 l 1,28,-1
 618 1364 l 1,29,30
 815 1355 815 1355 969 1292 c 1,31,-1
 936 1202 l 1,32,33
 795 1264 795 1264 618 1274 c 1,34,-1
 618 788 l 1,35,36
 831 722 831 722 911 644 c 128,-1,37
 991 566 991 566 991 440 c 0,38,39
 991 307 991 307 892 223 c 128,-1,40
 793 139 793 139 618 117 c 1,41,-1
 618 -119 l 1,42,-1
 537 -119 l 1,43,-1
 537 113 l 1,44,45
 445 115 445 115 336.5 135.5 c 128,-1,46
 228 156 228 156 164 186 c 1,14,-1
EndSplineSet
Validated: 1
EndChar

StartChar: percent
Encoding: 37 37 8
Width: 1653
GlyphClass: 2
Flags: W
LayerCount: 2
Fore
SplineSet
1063 438 m 0,0,1
 1063 253 1063 253 1108 160.5 c 128,-1,2
 1153 68 1153 68 1249 68 c 0,3,4
 1442 68 1442 68 1442 438 c 0,5,6
 1442 807 1442 807 1249 807 c 0,7,8
 1153 807 1153 807 1108 715.5 c 128,-1,9
 1063 624 1063 624 1063 438 c 0,0,1
965 438 m 0,10,11
 965 663 965 663 1038.5 779 c 128,-1,12
 1112 895 1112 895 1251 895 c 0,13,14
 1388 895 1388 895 1464 775 c 128,-1,15
 1540 655 1540 655 1540 438 c 0,16,17
 1540 212 1540 212 1466 94.5 c 128,-1,18
 1392 -23 1392 -23 1251 -23 c 0,19,20
 1115 -23 1115 -23 1040 98.5 c 128,-1,21
 965 220 965 220 965 438 c 0,10,11
373 0 m 1,22,-1
 1184 1462 l 1,23,-1
 1280 1462 l 1,24,-1
 469 0 l 1,25,-1
 373 0 l 1,22,-1
211 1026 m 0,26,27
 211 840 211 840 256 746.5 c 128,-1,28
 301 653 301 653 397 653 c 0,29,30
 590 653 590 653 590 1026 c 0,31,32
 590 1210 590 1210 540.5 1302.5 c 128,-1,33
 491 1395 491 1395 397 1395 c 0,34,35
 301 1395 301 1395 256 1302.5 c 128,-1,36
 211 1210 211 1210 211 1026 c 0,26,27
113 1026 m 0,37,38
 113 1249 113 1249 185 1366 c 128,-1,39
 257 1483 257 1483 397 1483 c 0,40,41
 536 1483 536 1483 612 1362.5 c 128,-1,42
 688 1242 688 1242 688 1026 c 0,43,44
 688 800 688 800 613 682.5 c 128,-1,45
 538 565 538 565 397 565 c 0,46,47
 264 565 264 565 188.5 685.5 c 128,-1,48
 113 806 113 806 113 1026 c 0,37,38
EndSplineSet
Validated: 1
EndChar

StartChar: ampersand
Encoding: 38 38 9
Width: 1460
GlyphClass: 2
Flags: W
LayerCount: 2
Fore
SplineSet
373 1176 m 0,0,1
 373 1097 373 1097 413 1030 c 128,-1,2
 453 963 453 963 565 856 c 1,3,4
 724 941 724 941 786 1015 c 128,-1,5
 848 1089 848 1089 848 1184 c 0,6,7
 848 1278 848 1278 786 1336.5 c 128,-1,8
 724 1395 724 1395 618 1395 c 0,9,10
 504 1395 504 1395 438.5 1337 c 128,-1,11
 373 1279 373 1279 373 1176 c 0,0,1
227 375 m 0,12,13
 227 232 227 232 320 151 c 128,-1,14
 413 70 413 70 578 70 c 0,15,16
 706 70 706 70 812.5 113.5 c 128,-1,17
 919 157 919 157 1022 260 c 1,18,-1
 539 745 l 1,19,20
 403 673 403 673 342.5 622.5 c 128,-1,21
 282 572 282 572 254.5 513 c 128,-1,22
 227 454 227 454 227 375 c 0,12,13
123 371 m 0,23,24
 123 509 123 509 196.5 606 c 128,-1,25
 270 703 270 703 471 811 c 1,26,-1
 396 893 l 2,27,28
 330 964 330 964 298 1032 c 128,-1,29
 266 1100 266 1100 266 1174 c 0,30,31
 266 1317 266 1317 361.5 1401 c 128,-1,32
 457 1485 457 1485 618 1485 c 0,33,34
 773 1485 773 1485 863.5 1404 c 128,-1,35
 954 1323 954 1323 954 1180 c 0,36,37
 954 1075 954 1075 884 987.5 c 128,-1,38
 814 900 814 900 631 793 c 1,39,-1
 1083 336 l 1,40,41
 1144 408 1144 408 1187 493 c 128,-1,42
 1230 578 1230 578 1262 694 c 1,43,-1
 1358 694 l 1,44,45
 1295 448 1295 448 1149 268 c 1,46,-1
 1415 0 l 1,47,-1
 1280 0 l 1,48,-1
 1087 197 l 1,49,50
 995 107 995 107 923 65.5 c 128,-1,51
 851 24 851 24 765.5 2 c 128,-1,52
 680 -20 680 -20 571 -20 c 0,53,54
 362 -20 362 -20 242.5 83 c 128,-1,55
 123 186 123 186 123 371 c 0,23,24
EndSplineSet
Validated: 1
EndChar

StartChar: quotesingle
Encoding: 39 39 10
Width: 393
GlyphClass: 2
Flags: W
LayerCount: 2
Fore
SplineSet
133 1462 m 1,0,-1
 260 1462 l 1,1,-1
 227 934 l 1,2,-1
 166 934 l 1,3,-1
 133 1462 l 1,0,-1
EndSplineSet
Validated: 1
EndChar

StartChar: parenleft
Encoding: 40 40 11
Width: 557
GlyphClass: 2
Flags: W
LayerCount: 2
Fore
SplineSet
82 561 m 0,0,1
 82 826 82 826 159.5 1057 c 128,-1,2
 237 1288 237 1288 383 1462 c 1,3,-1
 496 1462 l 1,4,5
 348 1280 348 1280 269 1049.5 c 128,-1,6
 190 819 190 819 190 563 c 0,7,8
 190 80 190 80 494 -324 c 1,9,-1
 383 -324 l 1,10,11
 236 -154 236 -154 159 73 c 128,-1,12
 82 300 82 300 82 561 c 0,0,1
EndSplineSet
Validated: 1
EndChar

StartChar: parenright
Encoding: 41 41 12
Width: 557
GlyphClass: 2
Flags: W
LayerCount: 2
Fore
SplineSet
61 1462 m 1,0,-1
 174 1462 l 1,1,2
 321 1287 321 1287 398 1055.5 c 128,-1,3
 475 824 475 824 475 561 c 128,-1,4
 475 298 475 298 397.5 71 c 128,-1,5
 320 -156 320 -156 174 -324 c 1,6,-1
 63 -324 l 1,7,8
 367 80 367 80 367 563 c 0,9,10
 367 820 367 820 288 1050.5 c 128,-1,11
 209 1281 209 1281 61 1462 c 1,0,-1
EndSplineSet
Validated: 1
EndChar

StartChar: asterisk
Encoding: 42 42 13
Width: 1128
GlyphClass: 2
Flags: W
LayerCount: 2
Fore
SplineSet
104 1124 m 1,0,-1
 123 1255 l 1,1,-1
 524 1151 l 1,2,-1
 485 1556 l 1,3,-1
 631 1556 l 1,4,-1
 594 1151 l 1,5,-1
 999 1255 l 1,6,-1
 1020 1124 l 1,7,-1
 625 1085 l 1,8,-1
 872 745 l 1,9,-1
 748 674 l 1,10,-1
 557 1053 l 1,11,-1
 377 674 l 1,12,-1
 252 745 l 1,13,-1
 494 1085 l 1,14,-1
 104 1124 l 1,0,-1
EndSplineSet
Validated: 1
EndChar

StartChar: plus
Encoding: 43 43 14
Width: 1169
GlyphClass: 2
Flags: W
LayerCount: 2
Fore
SplineSet
111 682 m 1,0,-1
 111 764 l 1,1,-1
 543 764 l 1,2,-1
 543 1198 l 1,3,-1
 625 1198 l 1,4,-1
 625 764 l 1,5,-1
 1059 764 l 1,6,-1
 1059 682 l 1,7,-1
 625 682 l 1,8,-1
 625 250 l 1,9,-1
 543 250 l 1,10,-1
 543 682 l 1,11,-1
 111 682 l 1,0,-1
EndSplineSet
Validated: 1
EndChar

StartChar: comma
Encoding: 44 44 15
Width: 440
GlyphClass: 2
Flags: W
LayerCount: 2
Fore
SplineSet
68 -264 m 1,0,1
 145 11 145 11 178 238 c 1,2,-1
 295 238 l 1,3,-1
 307 217 l 1,4,5
 232 -48 232 -48 133 -264 c 1,6,-1
 68 -264 l 1,0,1
EndSplineSet
Validated: 1
EndChar

StartChar: hyphen
Encoding: 45 45 16
Width: 659
GlyphClass: 2
Flags: W
LayerCount: 2
Fore
SplineSet
92 512 m 1,0,-1
 92 594 l 1,1,-1
 567 594 l 1,2,-1
 567 512 l 1,3,-1
 92 512 l 1,0,-1
EndSplineSet
Validated: 1
EndChar

StartChar: period
Encoding: 46 46 17
Width: 487
GlyphClass: 2
Flags: W
LayerCount: 2
Fore
SplineSet
162 78 m 128,-1,1
 162 176 162 176 242 176 c 0,2,3
 324 176 324 176 324 78 c 128,-1,4
 324 -20 324 -20 242 -20 c 0,5,0
 162 -20 162 -20 162 78 c 128,-1,1
EndSplineSet
Validated: 1
EndChar

StartChar: slash
Encoding: 47 47 18
Width: 698
GlyphClass: 2
Flags: W
LayerCount: 2
Fore
SplineSet
25 0 m 1,0,-1
 569 1462 l 1,1,-1
 674 1462 l 1,2,-1
 129 0 l 1,3,-1
 25 0 l 1,0,-1
EndSplineSet
Validated: 1
EndChar

StartChar: zero
Encoding: 48 48 19
Width: 1169
GlyphClass: 2
Flags: W
LayerCount: 2
Fore
SplineSet
223 735 m 0,0,1
 223 395 223 395 312 232.5 c 128,-1,2
 401 70 401 70 582 70 c 0,3,4
 771 70 771 70 857.5 238 c 128,-1,5
 944 406 944 406 944 735 c 0,6,7
 944 1059 944 1059 857.5 1227 c 128,-1,8
 771 1395 771 1395 582 1395 c 128,-1,9
 393 1395 393 1395 308 1227 c 128,-1,10
 223 1059 223 1059 223 735 c 0,0,1
115 735 m 0,11,12
 115 1117 115 1117 230.5 1301 c 128,-1,13
 346 1485 346 1485 582 1485 c 0,14,15
 813 1485 813 1485 934 1294.5 c 128,-1,16
 1055 1104 1055 1104 1055 735 c 0,17,18
 1055 350 1055 350 937.5 165 c 128,-1,19
 820 -20 820 -20 582 -20 c 0,20,21
 353 -20 353 -20 234 170.5 c 128,-1,22
 115 361 115 361 115 735 c 0,11,12
EndSplineSet
Validated: 1
Substitution2: "'onum' Oldstyle Figures in Latin lookup 3 subtable" zero.os
Substitution2: "'onum' Oldstyle Figures in Latin lookup 2 subtable" zero.os
EndChar

StartChar: one
Encoding: 49 49 20
Width: 1169
GlyphClass: 2
Flags: W
LayerCount: 2
Fore
SplineSet
199 1165 m 1,0,-1
 596 1462 l 1,1,-1
 682 1462 l 1,2,-1
 682 0 l 1,3,-1
 584 0 l 1,4,-1
 584 1065 l 2,5,6
 584 1210 584 1210 596 1366 c 1,7,8
 581 1351 581 1351 565 1337 c 128,-1,9
 549 1323 549 1323 256 1094 c 1,10,-1
 199 1165 l 1,0,-1
EndSplineSet
Validated: 1
Substitution2: "'pnum' Proportional Numbers in Latin lookup 4 subtable" one.pnum
Substitution2: "'onum' Oldstyle Figures in Latin lookup 2 subtable" one.os
EndChar

StartChar: two
Encoding: 50 50 21
Width: 1169
GlyphClass: 2
Flags: W
LayerCount: 2
Fore
SplineSet
113 0 m 1,0,-1
 113 88 l 1,1,-1
 502 494 l 2,2,3
 666 664 666 664 732 754 c 128,-1,4
 798 844 798 844 829 926 c 128,-1,5
 860 1008 860 1008 860 1098 c 0,6,7
 860 1229 860 1229 774 1311 c 128,-1,8
 688 1393 688 1393 551 1393 c 0,9,10
 368 1393 368 1393 201 1260 c 1,11,-1
 147 1329 l 1,12,13
 330 1483 330 1483 553 1483 c 0,14,15
 744 1483 744 1483 853.5 1381 c 128,-1,16
 963 1279 963 1279 963 1100 c 0,17,18
 963 955 963 955 889.5 819.5 c 128,-1,19
 816 684 816 684 621 485 c 2,20,-1
 246 100 l 1,21,-1
 246 96 l 1,22,-1
 1028 96 l 1,23,-1
 1028 0 l 1,24,-1
 113 0 l 1,0,-1
EndSplineSet
Validated: 1
Substitution2: "'onum' Oldstyle Figures in Latin lookup 3 subtable" two.os
Substitution2: "'onum' Oldstyle Figures in Latin lookup 2 subtable" two.os
EndChar

StartChar: three
Encoding: 51 51 22
Width: 1169
GlyphClass: 2
Flags: W
LayerCount: 2
Fore
SplineSet
94 63 m 1,0,-1
 94 162 l 1,1,2
 178 118 178 118 282.5 93 c 128,-1,3
 387 68 387 68 479 68 c 0,4,5
 700 68 700 68 811 157.5 c 128,-1,6
 922 247 922 247 922 410 c 0,7,8
 922 555 922 555 808.5 633 c 128,-1,9
 695 711 695 711 475 711 c 2,10,-1
 317 711 l 1,11,-1
 317 807 l 1,12,-1
 477 807 l 2,13,14
 659 807 659 807 765.5 893.5 c 128,-1,15
 872 980 872 980 872 1128 c 0,16,17
 872 1250 872 1250 785.5 1323.5 c 128,-1,18
 699 1397 699 1397 559 1397 c 0,19,20
 450 1397 450 1397 360 1366.5 c 128,-1,21
 270 1336 270 1336 158 1262 c 1,22,-1
 109 1329 l 1,23,24
 194 1400 194 1400 314 1441.5 c 128,-1,25
 434 1483 434 1483 557 1483 c 0,26,27
 759 1483 759 1483 869 1387.5 c 128,-1,28
 979 1292 979 1292 979 1118 c 0,29,30
 979 982 979 982 893.5 889 c 128,-1,31
 808 796 808 796 664 770 c 1,32,-1
 664 764 l 1,33,34
 840 742 840 742 932 652 c 128,-1,35
 1024 562 1024 562 1024 410 c 0,36,37
 1024 205 1024 205 884.5 92.5 c 128,-1,38
 745 -20 745 -20 483 -20 c 0,39,40
 260 -20 260 -20 94 63 c 1,0,-1
EndSplineSet
Validated: 1
Substitution2: "'onum' Oldstyle Figures in Latin lookup 3 subtable" three.os
Substitution2: "'onum' Oldstyle Figures in Latin lookup 2 subtable" three.os
EndChar

StartChar: four
Encoding: 52 52 23
Width: 1169
GlyphClass: 2
Flags: W
LayerCount: 2
Fore
SplineSet
162 459 m 1,0,-1
 795 459 l 1,1,-1
 795 877 l 2,2,3
 795 1179 795 1179 809 1384 c 1,4,-1
 801 1384 l 1,5,6
 781 1347 781 1347 678 1196 c 2,7,-1
 162 459 l 1,0,-1
43 373 m 1,8,-1
 43 440 l 1,9,-1
 768 1470 l 1,10,-1
 889 1470 l 1,11,-1
 889 459 l 1,12,-1
 1141 459 l 1,13,-1
 1141 373 l 1,14,-1
 889 373 l 1,15,-1
 889 0 l 1,16,-1
 795 0 l 1,17,-1
 795 373 l 1,18,-1
 43 373 l 1,8,-1
EndSplineSet
Validated: 1
Substitution2: "'onum' Oldstyle Figures in Latin lookup 3 subtable" four.os
Substitution2: "'onum' Oldstyle Figures in Latin lookup 2 subtable" four.os
EndChar

StartChar: five
Encoding: 53 53 24
Width: 1169
GlyphClass: 2
Flags: W
LayerCount: 2
Fore
SplineSet
143 63 m 1,0,-1
 143 166 l 1,1,2
 251 111 251 111 335 89.5 c 128,-1,3
 419 68 419 68 514 68 c 0,4,5
 706 68 706 68 822 169.5 c 128,-1,6
 938 271 938 271 938 444 c 0,7,8
 938 607 938 607 825 700 c 128,-1,9
 712 793 712 793 518 793 c 0,10,11
 388 793 388 793 246 754 c 1,12,-1
 186 793 l 1,13,-1
 244 1462 l 1,14,-1
 948 1462 l 1,15,-1
 948 1366 l 1,16,-1
 338 1366 l 1,17,-1
 293 850 l 1,18,19
 449 879 449 879 537 879 c 0,20,21
 771 879 771 879 905.5 766 c 128,-1,22
 1040 653 1040 653 1040 455 c 0,23,24
 1040 230 1040 230 900 105 c 128,-1,25
 760 -20 760 -20 514 -20 c 0,26,27
 405 -20 405 -20 307 1.5 c 128,-1,28
 209 23 209 23 143 63 c 1,0,-1
EndSplineSet
Validated: 1
Substitution2: "'onum' Oldstyle Figures in Latin lookup 3 subtable" five.os
Substitution2: "'onum' Oldstyle Figures in Latin lookup 2 subtable" five.os
EndChar

StartChar: six
Encoding: 54 54 25
Width: 1169
GlyphClass: 2
Flags: W
LayerCount: 2
Fore
SplineSet
240 504 m 0,0,1
 240 393 240 393 289.5 290.5 c 128,-1,2
 339 188 339 188 423.5 128 c 128,-1,3
 508 68 508 68 610 68 c 0,4,5
 774 68 774 68 865 171 c 128,-1,6
 956 274 956 274 956 465 c 0,7,8
 956 633 956 633 866 727 c 128,-1,9
 776 821 776 821 621 821 c 0,10,11
 519 821 519 821 431.5 776 c 128,-1,12
 344 731 344 731 292 656.5 c 128,-1,13
 240 582 240 582 240 504 c 0,0,1
131 623 m 0,14,15
 131 908 131 908 208.5 1102.5 c 128,-1,16
 286 1297 286 1297 428.5 1391 c 128,-1,17
 571 1485 571 1485 772 1485 c 0,18,19
 866 1485 866 1485 944 1462 c 1,20,-1
 944 1374 l 1,21,22
 871 1401 871 1401 768 1401 c 0,23,24
 521 1401 521 1401 383.5 1223 c 128,-1,25
 246 1045 246 1045 229 705 c 1,26,-1
 242 705 l 1,27,28
 318 803 318 803 416 853 c 128,-1,29
 514 903 514 903 623 903 c 0,30,31
 828 903 828 903 943.5 786 c 128,-1,32
 1059 669 1059 669 1059 463 c 0,33,34
 1059 239 1059 239 937.5 109.5 c 128,-1,35
 816 -20 816 -20 610 -20 c 0,36,37
 388 -20 388 -20 259.5 149.5 c 128,-1,38
 131 319 131 319 131 623 c 0,14,15
EndSplineSet
Validated: 1
Substitution2: "'onum' Oldstyle Figures in Latin lookup 3 subtable" six.os
Substitution2: "'onum' Oldstyle Figures in Latin lookup 2 subtable" six.os
EndChar

StartChar: seven
Encoding: 55 55 26
Width: 1169
GlyphClass: 2
Flags: W
LayerCount: 2
Fore
SplineSet
109 1366 m 1,0,-1
 109 1462 l 1,1,-1
 1055 1462 l 1,2,-1
 1055 1389 l 1,3,-1
 451 0 l 1,4,-1
 334 0 l 1,5,-1
 936 1366 l 1,6,-1
 109 1366 l 1,0,-1
EndSplineSet
Validated: 1
Substitution2: "'onum' Oldstyle Figures in Latin lookup 3 subtable" seven.os
Substitution2: "'onum' Oldstyle Figures in Latin lookup 2 subtable" seven.os
EndChar

StartChar: eight
Encoding: 56 56 27
Width: 1169
GlyphClass: 2
Flags: W
LayerCount: 2
Fore
SplineSet
268 1137 m 0,0,1
 268 1067 268 1067 299.5 1013.5 c 128,-1,2
 331 960 331 960 390.5 916.5 c 128,-1,3
 450 873 450 873 590 815 c 1,4,5
 753 878 753 878 824 954 c 128,-1,6
 895 1030 895 1030 895 1137 c 0,7,8
 895 1257 895 1257 810.5 1327 c 128,-1,9
 726 1397 726 1397 580 1397 c 0,10,11
 439 1397 439 1397 353.5 1327.5 c 128,-1,12
 268 1258 268 1258 268 1137 c 0,0,1
223 360 m 0,13,14
 223 222 223 222 316.5 146 c 128,-1,15
 410 70 410 70 578 70 c 0,16,17
 742 70 742 70 842 150.5 c 128,-1,18
 942 231 942 231 942 369 c 0,19,20
 942 493 942 493 863.5 570.5 c 128,-1,21
 785 648 785 648 561 733 c 1,22,23
 377 662 377 662 300 576 c 128,-1,24
 223 490 223 490 223 360 c 0,13,14
121 375 m 0,25,26
 121 506 121 506 204 605 c 128,-1,27
 287 704 287 704 461 774 c 1,28,29
 300 850 300 850 234 934.5 c 128,-1,30
 168 1019 168 1019 168 1137 c 0,31,32
 168 1242 168 1242 221 1321.5 c 128,-1,33
 274 1401 274 1401 369.5 1444 c 128,-1,34
 465 1487 465 1487 582 1487 c 0,35,36
 768 1487 768 1487 881.5 1392 c 128,-1,37
 995 1297 995 1297 995 1135 c 0,38,39
 995 1023 995 1023 924.5 937 c 128,-1,40
 854 851 854 851 696 778 c 1,41,42
 888 699 888 699 966 605 c 128,-1,43
 1044 511 1044 511 1044 377 c 0,44,45
 1044 196 1044 196 917.5 88 c 128,-1,46
 791 -20 791 -20 578 -20 c 0,47,48
 357 -20 357 -20 239 81 c 128,-1,49
 121 182 121 182 121 375 c 0,25,26
EndSplineSet
Validated: 1
Substitution2: "'onum' Oldstyle Figures in Latin lookup 3 subtable" eight.os
Substitution2: "'onum' Oldstyle Figures in Latin lookup 2 subtable" eight.os
EndChar

StartChar: nine
Encoding: 57 57 28
Width: 1169
GlyphClass: 2
Flags: W
LayerCount: 2
Fore
SplineSet
213 999 m 0,0,1
 213 825 213 825 300 735 c 128,-1,2
 387 645 387 645 549 645 c 0,3,4
 650 645 650 645 737.5 690 c 128,-1,5
 825 735 825 735 876.5 809.5 c 128,-1,6
 928 884 928 884 928 961 c 0,7,8
 928 1078 928 1078 881.5 1180 c 128,-1,9
 835 1282 835 1282 751.5 1339.5 c 128,-1,10
 668 1397 668 1397 559 1397 c 0,11,12
 401 1397 401 1397 307 1290.5 c 128,-1,13
 213 1184 213 1184 213 999 c 0,0,1
111 993 m 0,14,15
 111 1213 111 1213 235.5 1349 c 128,-1,16
 360 1485 360 1485 559 1485 c 0,17,18
 703 1485 703 1485 811 1409.5 c 128,-1,19
 919 1334 919 1334 977.5 1188 c 128,-1,20
 1036 1042 1036 1042 1036 842 c 0,21,22
 1036 554 1036 554 960.5 360 c 128,-1,23
 885 166 885 166 740.5 73 c 128,-1,24
 596 -20 596 -20 391 -20 c 0,25,26
 287 -20 287 -20 199 6 c 1,27,-1
 199 92 l 1,28,29
 242 78 242 78 302.5 70.5 c 128,-1,30
 363 63 363 63 395 63 c 0,31,32
 642 63 642 63 782 241.5 c 128,-1,33
 922 420 922 420 938 762 c 1,34,-1
 926 762 l 1,35,36
 853 666 853 666 752 614.5 c 128,-1,37
 651 563 651 563 541 563 c 0,38,39
 338 563 338 563 224.5 675 c 128,-1,40
 111 787 111 787 111 993 c 0,14,15
EndSplineSet
Validated: 1
Substitution2: "'onum' Oldstyle Figures in Latin lookup 3 subtable" nine.os
Substitution2: "'onum' Oldstyle Figures in Latin lookup 2 subtable" nine.os
EndChar

StartChar: colon
Encoding: 58 58 29
Width: 487
GlyphClass: 2
Flags: W
LayerCount: 2
Fore
SplineSet
162 971 m 0,0,1
 162 1069 162 1069 242 1069 c 0,2,3
 324 1069 324 1069 324 971 c 0,4,5
 324 918 324 918 300.5 895 c 128,-1,6
 277 872 277 872 242 872 c 0,7,8
 208 872 208 872 185 895 c 128,-1,9
 162 918 162 918 162 971 c 0,0,1
162 78 m 128,-1,11
 162 176 162 176 242 176 c 0,12,13
 324 176 324 176 324 78 c 128,-1,14
 324 -20 324 -20 242 -20 c 0,15,10
 162 -20 162 -20 162 78 c 128,-1,11
EndSplineSet
Validated: 1
EndChar

StartChar: semicolon
Encoding: 59 59 30
Width: 487
GlyphClass: 2
Flags: W
LayerCount: 2
Fore
SplineSet
162 971 m 0,0,1
 162 1069 162 1069 242 1069 c 0,2,3
 324 1069 324 1069 324 971 c 0,4,5
 324 918 324 918 300.5 895 c 128,-1,6
 277 872 277 872 242 872 c 0,7,8
 208 872 208 872 185 895 c 128,-1,9
 162 918 162 918 162 971 c 0,0,1
76 -264 m 1,10,11
 105 -167 105 -167 138 -18.5 c 128,-1,12
 171 130 171 130 186 238 c 1,13,-1
 303 238 l 1,14,-1
 315 217 l 1,15,16
 240 -48 240 -48 141 -264 c 1,17,-1
 76 -264 l 1,10,11
EndSplineSet
Validated: 1
EndChar

StartChar: less
Encoding: 60 60 31
Width: 1169
GlyphClass: 2
Flags: W
LayerCount: 2
Fore
SplineSet
111 682 m 1,0,-1
 111 743 l 1,1,-1
 1059 1217 l 1,2,-1
 1059 1122 l 1,3,-1
 236 717 l 1,4,-1
 1059 362 l 1,5,-1
 1059 266 l 1,6,-1
 111 682 l 1,0,-1
EndSplineSet
Validated: 1
EndChar

StartChar: equal
Encoding: 61 61 32
Width: 1169
GlyphClass: 2
Flags: W
LayerCount: 2
Fore
SplineSet
111 885 m 1,0,-1
 111 967 l 1,1,-1
 1059 967 l 1,2,-1
 1059 885 l 1,3,-1
 111 885 l 1,0,-1
111 477 m 1,4,-1
 111 559 l 1,5,-1
 1059 559 l 1,6,-1
 1059 477 l 1,7,-1
 111 477 l 1,4,-1
EndSplineSet
Validated: 1
EndChar

StartChar: greater
Encoding: 62 62 33
Width: 1169
GlyphClass: 2
Flags: W
LayerCount: 2
Fore
SplineSet
111 266 m 1,0,-1
 111 362 l 1,1,-1
 934 717 l 1,2,-1
 111 1122 l 1,3,-1
 111 1217 l 1,4,-1
 1059 743 l 1,5,-1
 1059 682 l 1,6,-1
 111 266 l 1,0,-1
EndSplineSet
Validated: 1
EndChar

StartChar: question
Encoding: 63 63 34
Width: 862
GlyphClass: 2
Flags: W
LayerCount: 2
Fore
SplineSet
260 78 m 128,-1,1
 260 176 260 176 340 176 c 0,2,3
 422 176 422 176 422 78 c 128,-1,4
 422 -20 422 -20 340 -20 c 0,5,0
 260 -20 260 -20 260 78 c 128,-1,1
57 1403 m 1,6,7
 167 1451 167 1451 241.5 1467 c 128,-1,8
 316 1483 316 1483 395 1483 c 0,9,10
 578 1483 578 1483 683 1384.5 c 128,-1,11
 788 1286 788 1286 788 1114 c 0,12,13
 788 1046 788 1046 770 995 c 128,-1,14
 752 944 752 944 719.5 900.5 c 128,-1,15
 687 857 687 857 641 816.5 c 128,-1,16
 595 776 595 776 539 729 c 0,17,18
 475 675 475 675 440.5 630.5 c 128,-1,19
 406 586 406 586 390.5 537 c 128,-1,20
 375 488 375 488 375 391 c 2,21,-1
 375 377 l 1,22,-1
 293 377 l 1,23,-1
 293 414 l 2,24,25
 293 537 293 537 330.5 615 c 128,-1,26
 368 693 368 693 469 782 c 2,27,-1
 560 861 l 2,28,29
 632 922 632 922 663 982 c 128,-1,30
 694 1042 694 1042 694 1120 c 0,31,32
 694 1247 694 1247 610.5 1322 c 128,-1,33
 527 1397 527 1397 391 1397 c 0,34,35
 312 1397 312 1397 243 1379.5 c 128,-1,36
 174 1362 174 1362 94 1323 c 1,37,-1
 57 1403 l 1,6,7
EndSplineSet
Validated: 1
EndChar

StartChar: at
Encoding: 64 64 35
Width: 1815
GlyphClass: 2
Flags: W
LayerCount: 2
Fore
SplineSet
633 590 m 0,0,1
 633 447 633 447 688 375 c 128,-1,2
 743 303 743 303 862 303 c 0,3,4
 1117 303 1117 303 1135 649 c 2,5,-1
 1151 940 l 1,6,7
 1072 967 1072 967 958 967 c 0,8,9
 809 967 809 967 721 864.5 c 128,-1,10
 633 762 633 762 633 590 c 0,0,1
113 561 m 0,11,12
 113 817 113 817 221.5 1021.5 c 128,-1,13
 330 1226 330 1226 528.5 1339 c 128,-1,14
 727 1452 727 1452 977 1452 c 0,15,16
 1192 1452 1192 1452 1357.5 1363 c 128,-1,17
 1523 1274 1523 1274 1612.5 1108.5 c 128,-1,18
 1702 943 1702 943 1702 725 c 0,19,20
 1702 497 1702 497 1611.5 359 c 128,-1,21
 1521 221 1521 221 1366 221 c 0,22,23
 1277 221 1277 221 1221.5 275 c 128,-1,24
 1166 329 1166 329 1157 422 c 1,25,-1
 1153 422 l 1,26,27
 1110 322 1110 322 1029 271.5 c 128,-1,28
 948 221 948 221 840 221 c 0,29,30
 692 221 692 221 611 317.5 c 128,-1,31
 530 414 530 414 530 588 c 0,32,33
 530 790 530 790 650.5 918.5 c 128,-1,34
 771 1047 771 1047 965 1047 c 0,35,36
 1103 1047 1103 1047 1251 1006 c 1,37,-1
 1229 542 l 1,38,-1
 1229 512 l 2,39,40
 1229 408 1229 408 1264 355.5 c 128,-1,41
 1299 303 1299 303 1380 303 c 0,42,43
 1483 303 1483 303 1548.5 419.5 c 128,-1,44
 1614 536 1614 536 1614 723 c 0,45,46
 1614 917 1614 917 1535 1063 c 128,-1,47
 1456 1209 1456 1209 1309.5 1287.5 c 128,-1,48
 1163 1366 1163 1366 975 1366 c 0,49,50
 745 1366 745 1366 569.5 1266.5 c 128,-1,51
 394 1167 394 1167 299.5 985 c 128,-1,52
 205 803 205 803 205 567 c 0,53,54
 205 245 205 245 372 69.5 c 128,-1,55
 539 -106 539 -106 846 -106 c 0,56,57
 939 -106 939 -106 1034.5 -88 c 128,-1,58
 1130 -70 1130 -70 1266 -18 c 1,59,-1
 1266 -117 l 1,60,61
 1063 -197 1063 -197 852 -197 c 0,62,63
 503 -197 503 -197 308 3.5 c 128,-1,64
 113 204 113 204 113 561 c 0,11,12
EndSplineSet
Validated: 1
EndChar

StartChar: A
Encoding: 65 65 36
Width: 1229
GlyphClass: 2
Flags: W
LayerCount: 2
Fore
SplineSet
354 608 m 1,0,-1
 877 608 l 1,1,-1
 678 1135 l 2,2,3
 653 1197 653 1197 618 1307 c 1,4,5
 591 1211 591 1211 559 1133 c 2,6,-1
 354 608 l 1,0,-1
0 0 m 1,7,-1
 588 1468 l 1,8,-1
 653 1468 l 1,9,-1
 1229 0 l 1,10,-1
 1114 0 l 1,11,-1
 911 516 l 1,12,-1
 317 516 l 1,13,-1
 113 0 l 1,14,-1
 0 0 l 1,7,-1
EndSplineSet
Validated: 1
EndChar

StartChar: B
Encoding: 66 66 37
Width: 1284
GlyphClass: 2
Flags: W
LayerCount: 2
Fore
SplineSet
309 811 m 1,0,-1
 631 811 l 2,1,2
 837 811 837 811 930.5 879.5 c 128,-1,3
 1024 948 1024 948 1024 1094 c 128,-1,4
 1024 1240 1024 1240 918.5 1306 c 128,-1,5
 813 1372 813 1372 604 1372 c 2,6,-1
 309 1372 l 1,7,-1
 309 811 l 1,0,-1
309 90 m 1,8,-1
 653 90 l 2,9,10
 1059 90 1059 90 1059 420 c 0,11,12
 1059 721 1059 721 631 721 c 2,13,-1
 309 721 l 1,14,-1
 309 90 l 1,8,-1
207 0 m 1,15,-1
 207 1462 l 1,16,-1
 608 1462 l 2,17,18
 879 1462 879 1462 1006 1370 c 128,-1,19
 1133 1278 1133 1278 1133 1092 c 0,20,21
 1133 965 1133 965 1055.5 880.5 c 128,-1,22
 978 796 978 796 829 772 c 1,23,-1
 829 766 l 1,24,25
 1004 740 1004 740 1086.5 655.5 c 128,-1,26
 1169 571 1169 571 1169 420 c 0,27,28
 1169 218 1169 218 1035 109 c 128,-1,29
 901 0 901 0 655 0 c 2,30,-1
 207 0 l 1,15,-1
EndSplineSet
Validated: 1
EndChar

StartChar: C
Encoding: 67 67 38
Width: 1272
GlyphClass: 2
Flags: W
LayerCount: 2
Fore
SplineSet
129 735 m 0,0,1
 129 958 129 958 213.5 1128 c 128,-1,2
 298 1298 298 1298 456.5 1390.5 c 128,-1,3
 615 1483 615 1483 825 1483 c 0,4,5
 1039 1483 1039 1483 1208 1403 c 1,6,-1
 1167 1311 l 1,7,8
 1007 1391 1007 1391 831 1391 c 0,9,10
 556 1391 556 1391 398 1215 c 128,-1,11
 240 1039 240 1039 240 733 c 0,12,13
 240 420 240 420 389 247 c 128,-1,14
 538 74 538 74 815 74 c 0,15,16
 999 74 999 74 1153 121 c 1,17,-1
 1153 31 l 1,18,19
 1008 -20 1008 -20 791 -20 c 0,20,21
 483 -20 483 -20 306 179 c 128,-1,22
 129 378 129 378 129 735 c 0,0,1
EndSplineSet
Validated: 1
EndChar

StartChar: D
Encoding: 68 68 39
Width: 1446
GlyphClass: 2
Flags: W
LayerCount: 2
Fore
SplineSet
309 90 m 1,0,-1
 551 90 l 2,1,2
 1206 90 1206 90 1206 741 c 0,3,4
 1206 1055 1206 1055 1046.5 1213.5 c 128,-1,5
 887 1372 887 1372 578 1372 c 2,6,-1
 309 1372 l 1,7,-1
 309 90 l 1,0,-1
207 0 m 1,8,-1
 207 1462 l 1,9,-1
 602 1462 l 2,10,11
 952 1462 952 1462 1134.5 1279 c 128,-1,12
 1317 1096 1317 1096 1317 745 c 0,13,14
 1317 377 1317 377 1124 188.5 c 128,-1,15
 931 0 931 0 557 0 c 2,16,-1
 207 0 l 1,8,-1
EndSplineSet
Validated: 1
EndChar

StartChar: E
Encoding: 69 69 40
Width: 1130
GlyphClass: 2
Flags: W
LayerCount: 2
Fore
SplineSet
207 0 m 1,0,-1
 207 1462 l 1,1,-1
 1006 1462 l 1,2,-1
 1006 1368 l 1,3,-1
 309 1368 l 1,4,-1
 309 815 l 1,5,-1
 967 815 l 1,6,-1
 967 721 l 1,7,-1
 309 721 l 1,8,-1
 309 94 l 1,9,-1
 1006 94 l 1,10,-1
 1006 0 l 1,11,-1
 207 0 l 1,0,-1
EndSplineSet
Validated: 1
EndChar

StartChar: F
Encoding: 70 70 41
Width: 1028
GlyphClass: 2
Flags: W
LayerCount: 2
Fore
SplineSet
207 0 m 1,0,-1
 207 1462 l 1,1,-1
 1008 1462 l 1,2,-1
 1008 1368 l 1,3,-1
 309 1368 l 1,4,-1
 309 748 l 1,5,-1
 969 748 l 1,6,-1
 969 653 l 1,7,-1
 309 653 l 1,8,-1
 309 0 l 1,9,-1
 207 0 l 1,0,-1
EndSplineSet
Validated: 1
EndChar

StartChar: G
Encoding: 71 71 42
Width: 1481
GlyphClass: 2
Flags: W
LayerCount: 2
Fore
SplineSet
129 729 m 0,0,1
 129 952 129 952 220.5 1124.5 c 128,-1,2
 312 1297 312 1297 482.5 1391 c 128,-1,3
 653 1485 653 1485 874 1485 c 0,4,5
 1113 1485 1113 1485 1303 1397 c 1,6,-1
 1262 1305 l 1,7,8
 1072 1393 1072 1393 868 1393 c 0,9,10
 579 1393 579 1393 409.5 1214.5 c 128,-1,11
 240 1036 240 1036 240 733 c 0,12,13
 240 403 240 403 401 236.5 c 128,-1,14
 562 70 562 70 874 70 c 0,15,16
 1076 70 1076 70 1217 127 c 1,17,-1
 1217 641 l 1,18,-1
 782 641 l 1,19,-1
 782 737 l 1,20,-1
 1321 737 l 1,21,-1
 1321 70 l 1,22,23
 1109 -20 1109 -20 844 -20 c 0,24,25
 498 -20 498 -20 313.5 175.5 c 128,-1,26
 129 371 129 371 129 729 c 0,0,1
EndSplineSet
Validated: 1
EndChar

StartChar: H
Encoding: 72 72 43
Width: 1473
GlyphClass: 2
Flags: W
LayerCount: 2
Fore
SplineSet
207 0 m 1,0,-1
 207 1462 l 1,1,-1
 309 1462 l 1,2,-1
 309 813 l 1,3,-1
 1163 813 l 1,4,-1
 1163 1462 l 1,5,-1
 1266 1462 l 1,6,-1
 1266 0 l 1,7,-1
 1163 0 l 1,8,-1
 1163 719 l 1,9,-1
 309 719 l 1,10,-1
 309 0 l 1,11,-1
 207 0 l 1,0,-1
EndSplineSet
Validated: 1
EndChar

StartChar: I
Encoding: 73 73 44
Width: 516
GlyphClass: 2
Flags: W
LayerCount: 2
Fore
SplineSet
207 0 m 1,0,-1
 207 1462 l 1,1,-1
 309 1462 l 1,2,-1
 309 0 l 1,3,-1
 207 0 l 1,0,-1
EndSplineSet
Validated: 1
Substitution2: "'ss03' Style Set 3 in Latin lookup 1 subtable" I.alt
EndChar

StartChar: J
Encoding: 74 74 45
Width: 506
GlyphClass: 2
Flags: W
LayerCount: 2
Fore
SplineSet
-184 -254 m 1,0,1
 -106 -274 -106 -274 -35 -274 c 0,2,3
 207 -274 207 -274 207 -10 c 2,4,-1
 207 1462 l 1,5,-1
 309 1462 l 1,6,-1
 309 0 l 2,7,8
 309 -369 309 -369 -33 -369 c 0,9,10
 -125 -369 -125 -369 -184 -342 c 1,11,-1
 -184 -254 l 1,0,1
EndSplineSet
Validated: 1
EndChar

StartChar: K
Encoding: 75 75 46
Width: 1190
GlyphClass: 2
Flags: W
LayerCount: 2
Fore
SplineSet
207 0 m 1,0,-1
 207 1462 l 1,1,-1
 309 1462 l 1,2,-1
 309 702 l 1,3,-1
 471 864 l 1,4,-1
 1044 1462 l 1,5,-1
 1174 1462 l 1,6,-1
 575 844 l 1,7,-1
 1190 0 l 1,8,-1
 1065 0 l 1,9,-1
 504 772 l 1,10,-1
 309 600 l 1,11,-1
 309 0 l 1,12,-1
 207 0 l 1,0,-1
EndSplineSet
Validated: 1
EndChar

StartChar: L
Encoding: 76 76 47
Width: 1051
GlyphClass: 2
Flags: W
LayerCount: 2
Fore
SplineSet
207 0 m 1,0,-1
 207 1462 l 1,1,-1
 309 1462 l 1,2,-1
 309 96 l 1,3,-1
 1006 96 l 1,4,-1
 1006 0 l 1,5,-1
 207 0 l 1,0,-1
EndSplineSet
Validated: 1
EndChar

StartChar: M
Encoding: 77 77 48
Width: 1767
GlyphClass: 2
Flags: W
LayerCount: 2
Fore
SplineSet
207 0 m 1,0,-1
 207 1462 l 1,1,-1
 365 1462 l 1,2,-1
 883 176 l 1,3,-1
 889 176 l 1,4,-1
 1407 1462 l 1,5,-1
 1561 1462 l 1,6,-1
 1561 0 l 1,7,-1
 1458 0 l 1,8,-1
 1458 1108 l 2,9,10
 1458 1224 1458 1224 1470 1348 c 1,11,-1
 1462 1348 l 1,12,-1
 915 0 l 1,13,-1
 850 0 l 1,14,-1
 305 1350 l 1,15,-1
 297 1350 l 1,16,17
 305 1226 305 1226 305 1096 c 2,18,-1
 305 0 l 1,19,-1
 207 0 l 1,0,-1
EndSplineSet
Validated: 1
EndChar

StartChar: N
Encoding: 78 78 49
Width: 1477
GlyphClass: 2
Flags: W
LayerCount: 2
Fore
SplineSet
207 0 m 1,0,-1
 207 1462 l 1,1,-1
 309 1462 l 1,2,-1
 1174 166 l 1,3,-1
 1180 166 l 1,4,5
 1171 346 1171 346 1171 508 c 2,6,-1
 1171 1462 l 1,7,-1
 1270 1462 l 1,8,-1
 1270 0 l 1,9,-1
 1167 0 l 1,10,-1
 301 1298 l 1,11,-1
 293 1298 l 1,12,13
 305 1066 305 1066 305 948 c 2,14,-1
 305 0 l 1,15,-1
 207 0 l 1,0,-1
EndSplineSet
Validated: 1
EndChar

StartChar: O
Encoding: 79 79 50
Width: 1565
GlyphClass: 2
Flags: W
LayerCount: 2
Fore
SplineSet
240 733 m 0,0,1
 240 419 240 419 380 247.5 c 128,-1,2
 520 76 520 76 782 76 c 0,3,4
 1046 76 1046 76 1185.5 246 c 128,-1,5
 1325 416 1325 416 1325 733 c 0,6,7
 1325 1049 1325 1049 1185.5 1217.5 c 128,-1,8
 1046 1386 1046 1386 784 1386 c 0,9,10
 523 1386 523 1386 381.5 1216 c 128,-1,11
 240 1046 240 1046 240 733 c 0,0,1
129 735 m 0,12,13
 129 1084 129 1084 304.5 1284.5 c 128,-1,14
 480 1485 480 1485 784 1485 c 0,15,16
 1090 1485 1090 1485 1263 1283.5 c 128,-1,17
 1436 1082 1436 1082 1436 733 c 0,18,19
 1436 385 1436 385 1262 182.5 c 128,-1,20
 1088 -20 1088 -20 782 -20 c 0,21,22
 477 -20 477 -20 303 182.5 c 128,-1,23
 129 385 129 385 129 735 c 0,12,13
EndSplineSet
Validated: 1
EndChar

StartChar: P
Encoding: 80 80 51
Width: 1198
GlyphClass: 2
Flags: W
LayerCount: 2
Fore
SplineSet
309 692 m 1,0,-1
 510 692 l 2,1,2
 757 692 757 692 867 773.5 c 128,-1,3
 977 855 977 855 977 1038 c 0,4,5
 977 1207 977 1207 873 1288.5 c 128,-1,6
 769 1370 769 1370 551 1370 c 2,7,-1
 309 1370 l 1,8,-1
 309 692 l 1,0,-1
207 0 m 1,9,-1
 207 1462 l 1,10,-1
 565 1462 l 2,11,12
 1087 1462 1087 1462 1087 1042 c 0,13,14
 1087 830 1087 830 943 717 c 128,-1,15
 799 604 799 604 535 604 c 2,16,-1
 309 604 l 1,17,-1
 309 0 l 1,18,-1
 207 0 l 1,9,-1
EndSplineSet
Validated: 1
EndChar

StartChar: Q
Encoding: 81 81 52
Width: 1565
GlyphClass: 2
Flags: W
LayerCount: 2
Fore
SplineSet
240 733 m 0,0,1
 240 419 240 419 380 247.5 c 128,-1,2
 520 76 520 76 782 76 c 0,3,4
 1046 76 1046 76 1185.5 246 c 128,-1,5
 1325 416 1325 416 1325 733 c 0,6,7
 1325 1049 1325 1049 1185.5 1217.5 c 128,-1,8
 1046 1386 1046 1386 784 1386 c 0,9,10
 523 1386 523 1386 381.5 1216 c 128,-1,11
 240 1046 240 1046 240 733 c 0,0,1
129 735 m 0,12,13
 129 1084 129 1084 304.5 1284.5 c 128,-1,14
 480 1485 480 1485 784 1485 c 0,15,16
 1090 1485 1090 1485 1263 1283.5 c 128,-1,17
 1436 1082 1436 1082 1436 733 c 0,18,19
 1436 439 1436 439 1310 246.5 c 128,-1,20
 1184 54 1184 54 961 0 c 1,21,-1
 1294 -348 l 1,22,-1
 1128 -348 l 1,23,-1
 846 -18 l 1,24,-1
 813 -20 l 1,25,-1
 782 -20 l 2,26,27
 477 -20 477 -20 303 182.5 c 128,-1,28
 129 385 129 385 129 735 c 0,12,13
EndSplineSet
Validated: 1
EndChar

StartChar: R
Encoding: 82 82 53
Width: 1217
GlyphClass: 2
Flags: W
LayerCount: 2
Fore
SplineSet
309 725 m 1,0,-1
 588 725 l 2,1,2
 773 725 773 725 875 807.5 c 128,-1,3
 977 890 977 890 977 1051 c 0,4,5
 977 1218 977 1218 877 1294 c 128,-1,6
 777 1370 777 1370 551 1370 c 2,7,-1
 309 1370 l 1,8,-1
 309 725 l 1,0,-1
207 0 m 1,9,-1
 207 1462 l 1,10,-1
 555 1462 l 2,11,12
 827 1462 827 1462 957 1361.5 c 128,-1,13
 1087 1261 1087 1261 1087 1059 c 0,14,15
 1087 912 1087 912 1009.5 811 c 128,-1,16
 932 710 932 710 774 666 c 1,17,-1
 1171 0 l 1,18,-1
 1049 0 l 1,19,-1
 672 637 l 1,20,-1
 309 637 l 1,21,-1
 309 0 l 1,22,-1
 207 0 l 1,9,-1
EndSplineSet
Validated: 1
EndChar

StartChar: S
Encoding: 83 83 54
Width: 1116
GlyphClass: 2
Flags: W
LayerCount: 2
Fore
SplineSet
111 39 m 1,0,-1
 111 141 l 1,1,2
 269 74 269 74 514 74 c 0,3,4
 694 74 694 74 799.5 156.5 c 128,-1,5
 905 239 905 239 905 373 c 0,6,7
 905 456 905 456 870 510.5 c 128,-1,8
 835 565 835 565 756 610 c 128,-1,9
 677 655 677 655 524 707 c 0,10,11
 300 784 300 784 214.5 873.5 c 128,-1,12
 129 963 129 963 129 1112 c 0,13,14
 129 1276 129 1276 257.5 1379.5 c 128,-1,15
 386 1483 386 1483 588 1483 c 0,16,17
 794 1483 794 1483 975 1405 c 1,18,-1
 938 1317 l 1,19,20
 756 1393 756 1393 590 1393 c 0,21,22
 428 1393 428 1393 332 1318 c 128,-1,23
 236 1243 236 1243 236 1114 c 0,24,25
 236 1033 236 1033 265.5 981 c 128,-1,26
 295 929 295 929 362 887.5 c 128,-1,27
 429 846 429 846 592 788 c 0,28,29
 763 729 763 729 849 673.5 c 128,-1,30
 935 618 935 618 974.5 547.5 c 128,-1,31
 1014 477 1014 477 1014 377 c 0,32,33
 1014 194 1014 194 879.5 87 c 128,-1,34
 745 -20 745 -20 522 -20 c 0,35,36
 254 -20 254 -20 111 39 c 1,0,-1
EndSplineSet
Validated: 1
EndChar

StartChar: T
Encoding: 84 84 55
Width: 1073
GlyphClass: 2
Flags: W
LayerCount: 2
Fore
SplineSet
10 1366 m 1,0,-1
 10 1462 l 1,1,-1
 1063 1462 l 1,2,-1
 1063 1366 l 1,3,-1
 588 1366 l 1,4,-1
 588 0 l 1,5,-1
 485 0 l 1,6,-1
 485 1366 l 1,7,-1
 10 1366 l 1,0,-1
EndSplineSet
Validated: 1
EndChar

StartChar: U
Encoding: 85 85 56
Width: 1473
GlyphClass: 2
Flags: W
LayerCount: 2
Fore
SplineSet
190 520 m 2,0,-1
 190 1462 l 1,1,-1
 293 1462 l 1,2,-1
 293 516 l 2,3,4
 293 305 293 305 410 187.5 c 128,-1,5
 527 70 527 70 741 70 c 0,6,7
 950 70 950 70 1065 185.5 c 128,-1,8
 1180 301 1180 301 1180 506 c 2,9,-1
 1180 1462 l 1,10,-1
 1282 1462 l 1,11,-1
 1282 516 l 2,12,13
 1282 264 1282 264 1136 122 c 128,-1,14
 990 -20 990 -20 729 -20 c 0,15,16
 475 -20 475 -20 332.5 122.5 c 128,-1,17
 190 265 190 265 190 520 c 2,0,-1
EndSplineSet
Validated: 1
EndChar

StartChar: V
Encoding: 86 86 57
Width: 1182
GlyphClass: 2
Flags: W
LayerCount: 2
Fore
SplineSet
0 1462 m 1,0,-1
 109 1462 l 1,1,-1
 477 467 l 2,2,3
 561 242 561 242 590 129 c 1,4,5
 610 204 610 204 669 362 c 2,6,-1
 1071 1462 l 1,7,-1
 1182 1462 l 1,8,-1
 635 0 l 1,9,-1
 545 0 l 1,10,-1
 0 1462 l 1,0,-1
EndSplineSet
Validated: 1
EndChar

StartChar: W
Encoding: 87 87 58
Width: 1827
GlyphClass: 2
Flags: W
LayerCount: 2
Fore
SplineSet
51 1462 m 1,0,-1
 158 1462 l 1,1,-1
 414 520 l 2,2,3
 429 463 429 463 442 414.5 c 128,-1,4
 455 366 455 366 465.5 323.5 c 128,-1,5
 476 281 476 281 484.5 241.5 c 128,-1,6
 493 202 493 202 500 162 c 1,7,8
 524 298 524 298 602 575 c 2,9,-1
 852 1462 l 1,10,-1
 965 1462 l 1,11,-1
 1258 444 l 2,12,13
 1309 268 1309 268 1331 160 c 1,14,15
 1344 232 1344 232 1364.5 313 c 128,-1,16
 1385 394 1385 394 1673 1462 c 1,17,-1
 1776 1462 l 1,18,-1
 1372 0 l 1,19,-1
 1288 0 l 1,20,-1
 967 1128 l 2,21,22
 927 1267 927 1267 907 1356 c 1,23,24
 891 1269 891 1269 861.5 1156 c 128,-1,25
 832 1043 832 1043 539 0 c 1,26,-1
 453 0 l 1,27,-1
 51 1462 l 1,0,-1
EndSplineSet
Validated: 1
EndChar

StartChar: X
Encoding: 88 88 59
Width: 1102
GlyphClass: 2
Flags: W
LayerCount: 2
Fore
SplineSet
0 0 m 1,0,-1
 492 762 l 1,1,-1
 45 1462 l 1,2,-1
 160 1462 l 1,3,-1
 555 836 l 1,4,-1
 956 1462 l 1,5,-1
 1065 1462 l 1,6,-1
 612 764 l 1,7,-1
 1102 0 l 1,8,-1
 985 0 l 1,9,-1
 553 682 l 1,10,-1
 113 0 l 1,11,-1
 0 0 l 1,0,-1
EndSplineSet
Validated: 1
EndChar

StartChar: Y
Encoding: 89 89 60
Width: 1081
GlyphClass: 2
Flags: W
LayerCount: 2
Fore
SplineSet
0 1462 m 1,0,-1
 117 1462 l 1,1,-1
 543 662 l 1,2,-1
 971 1462 l 1,3,-1
 1081 1462 l 1,4,-1
 594 565 l 1,5,-1
 594 0 l 1,6,-1
 489 0 l 1,7,-1
 489 557 l 1,8,-1
 0 1462 l 1,0,-1
EndSplineSet
Validated: 1
EndChar

StartChar: Z
Encoding: 90 90 61
Width: 1180
GlyphClass: 2
Flags: W
LayerCount: 2
Fore
SplineSet
82 0 m 1,0,-1
 82 76 l 1,1,-1
 938 1366 l 1,2,-1
 121 1366 l 1,3,-1
 121 1462 l 1,4,-1
 1075 1462 l 1,5,-1
 1075 1386 l 1,6,-1
 217 96 l 1,7,-1
 1098 96 l 1,8,-1
 1098 0 l 1,9,-1
 82 0 l 1,0,-1
EndSplineSet
Validated: 1
EndChar

StartChar: bracketleft
Encoding: 91 91 62
Width: 653
GlyphClass: 2
Flags: W
LayerCount: 2
Fore
SplineSet
174 -324 m 1,0,-1
 174 1462 l 1,1,-1
 602 1462 l 1,2,-1
 602 1368 l 1,3,-1
 272 1368 l 1,4,-1
 272 -229 l 1,5,-1
 602 -229 l 1,6,-1
 602 -324 l 1,7,-1
 174 -324 l 1,0,-1
EndSplineSet
Validated: 1
EndChar

StartChar: backslash
Encoding: 92 92 63
Width: 698
GlyphClass: 2
Flags: W
LayerCount: 2
Fore
SplineSet
25 1462 m 1,0,-1
 127 1462 l 1,1,-1
 674 0 l 1,2,-1
 571 0 l 1,3,-1
 25 1462 l 1,0,-1
EndSplineSet
Validated: 1
EndChar

StartChar: bracketright
Encoding: 93 93 64
Width: 653
GlyphClass: 2
Flags: W
LayerCount: 2
Fore
SplineSet
51 -229 m 1,0,-1
 381 -229 l 1,1,-1
 381 1368 l 1,2,-1
 51 1368 l 1,3,-1
 51 1462 l 1,4,-1
 479 1462 l 1,5,-1
 479 -324 l 1,6,-1
 51 -324 l 1,7,-1
 51 -229 l 1,0,-1
EndSplineSet
Validated: 1
EndChar

StartChar: asciicircum
Encoding: 94 94 65
Width: 1169
GlyphClass: 2
Flags: W
LayerCount: 2
Fore
SplineSet
88 561 m 1,0,-1
 553 1473 l 1,1,-1
 621 1473 l 1,2,-1
 1081 561 l 1,3,-1
 981 561 l 1,4,-1
 586 1352 l 1,5,-1
 188 561 l 1,6,-1
 88 561 l 1,0,-1
EndSplineSet
Validated: 1
EndChar

StartChar: underscore
Encoding: 95 95 66
Width: 842
GlyphClass: 2
Flags: W
LayerCount: 2
Fore
SplineSet
-4 -184 m 1,0,-1
 846 -184 l 1,1,-1
 846 -266 l 1,2,-1
 -4 -266 l 1,3,-1
 -4 -184 l 1,0,-1
EndSplineSet
Validated: 1
EndChar

StartChar: grave
Encoding: 96 96 67
Width: 1182
GlyphClass: 2
Flags: W
LayerCount: 2
Fore
SplineSet
393 1552 m 1,0,-1
 393 1569 l 1,1,-1
 535 1569 l 1,2,3
 561 1521 561 1521 633.5 1427 c 128,-1,4
 706 1333 706 1333 776 1257 c 1,5,-1
 776 1241 l 1,6,-1
 707 1241 l 1,7,8
 611 1320 611 1320 518.5 1412.5 c 128,-1,9
 426 1505 426 1505 393 1552 c 1,0,-1
EndSplineSet
Validated: 1
EndChar

StartChar: a
Encoding: 97 97 68
Width: 1085
GlyphClass: 2
Flags: W
LayerCount: 2
Fore
SplineSet
203 285 m 0,0,1
 203 183 203 183 265.5 126.5 c 128,-1,2
 328 70 328 70 442 70 c 0,3,4
 616 70 616 70 716.5 169.5 c 128,-1,5
 817 269 817 269 817 446 c 2,6,-1
 817 553 l 1,7,-1
 627 545 l 2,8,9
 398 534 398 534 300.5 473.5 c 128,-1,10
 203 413 203 413 203 285 c 0,0,1
98 289 m 0,11,12
 98 448 98 448 230.5 536 c 128,-1,13
 363 624 363 624 614 629 c 2,14,-1
 821 635 l 1,15,-1
 821 707 l 2,16,17
 821 862 821 862 758 941 c 128,-1,18
 695 1020 695 1020 555 1020 c 0,19,20
 404 1020 404 1020 242 936 c 1,21,-1
 205 1022 l 1,22,23
 384 1106 384 1106 559 1106 c 0,24,25
 738 1106 738 1106 826.5 1013 c 128,-1,26
 915 920 915 920 915 723 c 2,27,-1
 915 0 l 1,28,-1
 842 0 l 1,29,-1
 817 172 l 1,30,-1
 809 172 l 1,31,32
 727 67 727 67 640.5 23.5 c 128,-1,33
 554 -20 554 -20 436 -20 c 0,34,35
 276 -20 276 -20 187 62 c 128,-1,36
 98 144 98 144 98 289 c 0,11,12
EndSplineSet
Validated: 1
EndChar

StartChar: b
Encoding: 98 98 69
Width: 1219
GlyphClass: 2
Flags: W
LayerCount: 2
Fore
SplineSet
281 528 m 2,0,1
 281 282 281 282 367.5 175 c 128,-1,2
 454 68 454 68 637 68 c 0,3,4
 815 68 815 68 905 192.5 c 128,-1,5
 995 317 995 317 995 547 c 0,6,7
 995 1018 995 1018 639 1018 c 0,8,9
 447 1018 447 1018 364 908 c 128,-1,10
 281 798 281 798 281 545 c 2,11,-1
 281 528 l 2,0,1
182 0 m 1,12,-1
 182 1556 l 1,13,-1
 281 1556 l 1,14,-1
 281 1165 l 2,15,16
 281 1077 281 1077 277 1003 c 2,17,-1
 274 918 l 1,18,-1
 281 918 l 1,19,20
 343 1016 343 1016 430.5 1062 c 128,-1,21
 518 1108 518 1108 641 1108 c 0,22,23
 869 1108 869 1108 984.5 964.5 c 128,-1,24
 1100 821 1100 821 1100 545 c 0,25,26
 1100 274 1100 274 978.5 127 c 128,-1,27
 857 -20 857 -20 637 -20 c 0,28,29
 521 -20 521 -20 428 28 c 128,-1,30
 335 76 335 76 281 164 c 1,31,-1
 272 164 l 1,32,-1
 244 0 l 1,33,-1
 182 0 l 1,12,-1
EndSplineSet
Validated: 1
EndChar

StartChar: c
Encoding: 99 99 70
Width: 973
GlyphClass: 2
Flags: W
LayerCount: 2
Fore
SplineSet
119 537 m 0,0,1
 119 807 119 807 256 957.5 c 128,-1,2
 393 1108 393 1108 631 1108 c 0,3,4
 772 1108 772 1108 901 1059 c 1,5,-1
 874 971 l 1,6,7
 733 1018 733 1018 629 1018 c 0,8,9
 429 1018 429 1018 326 894.5 c 128,-1,10
 223 771 223 771 223 539 c 0,11,12
 223 319 223 319 326 194.5 c 128,-1,13
 429 70 429 70 614 70 c 0,14,15
 762 70 762 70 889 123 c 1,16,-1
 889 31 l 1,17,18
 785 -20 785 -20 616 -20 c 0,19,20
 383 -20 383 -20 251 127 c 128,-1,21
 119 274 119 274 119 537 c 0,0,1
EndSplineSet
Validated: 1
EndChar

StartChar: d
Encoding: 100 100 71
Width: 1219
GlyphClass: 2
Flags: W
LayerCount: 2
Fore
SplineSet
223 530 m 0,0,1
 223 68 223 68 582 68 c 0,2,3
 766 68 766 68 852 175 c 128,-1,4
 938 282 938 282 938 528 c 2,5,-1
 938 545 l 2,6,7
 938 797 938 797 853.5 907.5 c 128,-1,8
 769 1018 769 1018 580 1018 c 0,9,10
 402 1018 402 1018 312.5 893 c 128,-1,11
 223 768 223 768 223 530 c 0,0,1
119 528 m 0,12,13
 119 810 119 810 237 959 c 128,-1,14
 355 1108 355 1108 580 1108 c 0,15,16
 698 1108 698 1108 784 1065 c 128,-1,17
 870 1022 870 1022 938 918 c 1,18,-1
 944 918 l 1,19,20
 938 1044 938 1044 938 1165 c 2,21,-1
 938 1556 l 1,22,-1
 1036 1556 l 1,23,-1
 1036 0 l 1,24,-1
 971 0 l 1,25,-1
 946 166 l 1,26,-1
 938 166 l 1,27,28
 814 -20 814 -20 582 -20 c 0,29,30
 357 -20 357 -20 238 120 c 128,-1,31
 119 260 119 260 119 528 c 0,12,13
EndSplineSet
Validated: 1
EndChar

StartChar: e
Encoding: 101 101 72
Width: 1124
GlyphClass: 2
Flags: W
LayerCount: 2
Fore
SplineSet
229 618 m 1,0,-1
 901 618 l 1,1,2
 901 807 901 807 819 913.5 c 128,-1,3
 737 1020 737 1020 592 1020 c 0,4,5
 435 1020 435 1020 340 916.5 c 128,-1,6
 245 813 245 813 229 618 c 1,0,-1
119 535 m 0,7,8
 119 795 119 795 247 951.5 c 128,-1,9
 375 1108 375 1108 592 1108 c 0,10,11
 784 1108 784 1108 895 974 c 128,-1,12
 1006 840 1006 840 1006 610 c 2,13,-1
 1006 530 l 1,14,-1
 223 530 l 1,15,16
 225 306 225 306 327.5 188 c 128,-1,17
 430 70 430 70 621 70 c 0,18,19
 714 70 714 70 784.5 83 c 128,-1,20
 855 96 855 96 963 139 c 1,21,-1
 963 49 l 1,22,23
 871 9 871 9 793 -5.5 c 128,-1,24
 715 -20 715 -20 621 -20 c 0,25,26
 384 -20 384 -20 251.5 126 c 128,-1,27
 119 272 119 272 119 535 c 0,7,8
EndSplineSet
Validated: 1
EndChar

StartChar: f
Encoding: 102 102 73
Width: 614
GlyphClass: 2
Flags: W
LayerCount: 2
Fore
SplineSet
29 1001 m 1,0,-1
 29 1059 l 1,1,-1
 231 1096 l 1,2,-1
 231 1180 l 2,3,4
 231 1380 231 1380 304.5 1473.5 c 128,-1,5
 378 1567 378 1567 545 1567 c 0,6,7
 635 1567 635 1567 725 1540 c 1,8,-1
 702 1454 l 1,9,10
 622 1479 622 1479 543 1479 c 0,11,12
 427 1479 427 1479 378.5 1410.5 c 128,-1,13
 330 1342 330 1342 330 1188 c 2,14,-1
 330 1087 l 1,15,-1
 586 1087 l 1,16,-1
 586 1001 l 1,17,-1
 330 1001 l 1,18,-1
 330 0 l 1,19,-1
 231 0 l 1,20,-1
 231 1001 l 1,21,-1
 29 1001 l 1,0,-1
EndSplineSet
Validated: 1
EndChar

StartChar: g
Encoding: 103 103 74
Width: 1071
GlyphClass: 2
Flags: W
LayerCount: 2
Fore
SplineSet
233 748 m 0,0,1
 233 622 233 622 309.5 552.5 c 128,-1,2
 386 483 386 483 514 483 c 0,3,4
 650 483 650 483 722.5 552 c 128,-1,5
 795 621 795 621 795 752 c 0,6,7
 795 891 795 891 720.5 960.5 c 128,-1,8
 646 1030 646 1030 512 1030 c 0,9,10
 382 1030 382 1030 307.5 955.5 c 128,-1,11
 233 881 233 881 233 748 c 0,0,1
150 -184 m 0,12,13
 150 -408 150 -408 483 -408 c 0,14,15
 911 -408 911 -408 911 -135 c 0,16,17
 911 -37 911 -37 844 7 c 128,-1,18
 777 51 777 51 627 51 c 2,19,-1
 449 51 l 2,20,21
 150 51 150 51 150 -184 c 0,12,13
45 -193 m 0,22,23
 45 -81 45 -81 114.5 -7 c 128,-1,24
 184 67 184 67 303 94 c 1,25,26
 254 115 254 115 224.5 153.5 c 128,-1,27
 195 192 195 192 195 242 c 0,28,29
 195 351 195 351 334 434 c 1,30,31
 239 473 239 473 186 556.5 c 128,-1,32
 133 640 133 640 133 748 c 0,33,34
 133 911 133 911 236.5 1009.5 c 128,-1,35
 340 1108 340 1108 516 1108 c 0,36,37
 623 1108 623 1108 682 1087 c 1,38,-1
 1030 1087 l 1,39,-1
 1030 1018 l 1,40,-1
 805 1004 l 1,41,42
 895 892 895 892 895 758 c 0,43,44
 895 601 895 601 790.5 503.5 c 128,-1,45
 686 406 686 406 510 406 c 0,46,47
 436 406 436 406 406 412 c 1,48,49
 347 381 347 381 316 339 c 128,-1,50
 285 297 285 297 285 250 c 0,51,52
 285 198 285 198 324.5 174 c 128,-1,53
 364 150 364 150 457 150 c 2,54,-1
 647 150 l 2,55,56
 824 150 824 150 918 78.5 c 128,-1,57
 1012 7 1012 7 1012 -133 c 0,58,59
 1012 -305 1012 -305 872.5 -398.5 c 128,-1,60
 733 -492 733 -492 475 -492 c 0,61,62
 270 -492 270 -492 157.5 -413 c 128,-1,63
 45 -334 45 -334 45 -193 c 0,22,23
EndSplineSet
Validated: 1
Substitution2: "'ss02' Style Set 2 in Latin lookup 0 subtable" g.alt
EndChar

StartChar: h
Encoding: 104 104 75
Width: 1208
GlyphClass: 2
Flags: W
LayerCount: 2
Fore
SplineSet
182 0 m 1,0,-1
 182 1556 l 1,1,-1
 281 1556 l 1,2,-1
 281 1061 l 1,3,-1
 276 922 l 1,4,-1
 283 922 l 1,5,6
 344 1020 344 1020 437 1064 c 128,-1,7
 530 1108 530 1108 668 1108 c 0,8,9
 1038 1108 1038 1108 1038 711 c 2,10,-1
 1038 0 l 1,11,-1
 940 0 l 1,12,-1
 940 705 l 2,13,14
 940 869 940 869 871 943.5 c 128,-1,15
 802 1018 802 1018 657 1018 c 0,16,17
 462 1018 462 1018 371.5 919.5 c 128,-1,18
 281 821 281 821 281 600 c 2,19,-1
 281 0 l 1,20,-1
 182 0 l 1,0,-1
EndSplineSet
Validated: 1
EndChar

StartChar: i
Encoding: 105 105 76
Width: 463
GlyphClass: 2
Flags: W
LayerCount: 2
Fore
SplineSet
182 0 m 1,0,-1
 182 1087 l 1,1,-1
 281 1087 l 1,2,-1
 281 0 l 1,3,-1
 182 0 l 1,0,-1
168 1389 m 0,4,5
 168 1485 168 1485 231 1485 c 0,6,7
 262 1485 262 1485 279.5 1460 c 128,-1,8
 297 1435 297 1435 297 1389 c 0,9,10
 297 1344 297 1344 279.5 1318 c 128,-1,11
 262 1292 262 1292 231 1292 c 0,12,13
 168 1292 168 1292 168 1389 c 0,4,5
EndSplineSet
Validated: 1
EndChar

StartChar: j
Encoding: 106 106 77
Width: 463
GlyphClass: 2
Flags: W
LayerCount: 2
Fore
SplineSet
168 1389 m 0,0,1
 168 1485 168 1485 231 1485 c 0,2,3
 262 1485 262 1485 279.5 1460 c 128,-1,4
 297 1435 297 1435 297 1389 c 0,5,6
 297 1344 297 1344 279.5 1318 c 128,-1,7
 262 1292 262 1292 231 1292 c 0,8,9
 168 1292 168 1292 168 1389 c 0,0,1
-98 -381 m 1,10,11
 -29 -401 -29 -401 31 -401 c 0,12,13
 182 -401 182 -401 182 -225 c 2,14,-1
 182 1087 l 1,15,-1
 281 1087 l 1,16,-1
 281 -211 l 2,17,18
 281 -346 281 -346 217.5 -419 c 128,-1,19
 154 -492 154 -492 37 -492 c 0,20,21
 -43 -492 -43 -492 -98 -467 c 1,22,-1
 -98 -381 l 1,10,11
EndSplineSet
Validated: 1
EndChar

StartChar: k
Encoding: 107 107 78
Width: 991
GlyphClass: 2
Flags: W
LayerCount: 2
Fore
SplineSet
182 0 m 1,0,-1
 182 1556 l 1,1,-1
 281 1556 l 1,2,-1
 281 776 l 1,3,-1
 274 477 l 1,4,-1
 279 477 l 1,5,-1
 834 1087 l 1,6,-1
 954 1087 l 1,7,-1
 526 623 l 1,8,-1
 991 0 l 1,9,-1
 872 0 l 1,10,-1
 459 549 l 1,11,-1
 281 387 l 1,12,-1
 281 0 l 1,13,-1
 182 0 l 1,0,-1
EndSplineSet
Validated: 1
EndChar

StartChar: l
Encoding: 108 108 79
Width: 463
GlyphClass: 2
Flags: W
LayerCount: 2
Fore
SplineSet
182 0 m 1,0,-1
 182 1556 l 1,1,-1
 281 1556 l 1,2,-1
 281 0 l 1,3,-1
 182 0 l 1,0,-1
EndSplineSet
Validated: 1
EndChar

StartChar: m
Encoding: 109 109 80
Width: 1808
GlyphClass: 2
Flags: W
LayerCount: 2
Fore
SplineSet
182 0 m 1,0,-1
 182 1087 l 1,1,-1
 264 1087 l 1,2,-1
 285 938 l 1,3,-1
 291 938 l 1,4,5
 336 1019 336 1019 419 1063.5 c 128,-1,6
 502 1108 502 1108 602 1108 c 0,7,8
 859 1108 859 1108 932 915 c 1,9,-1
 936 915 l 1,10,11
 989 1008 989 1008 1078.5 1058 c 128,-1,12
 1168 1108 1168 1108 1282 1108 c 0,13,14
 1460 1108 1460 1108 1549 1013 c 128,-1,15
 1638 918 1638 918 1638 711 c 2,16,-1
 1638 0 l 1,17,-1
 1540 0 l 1,18,-1
 1540 713 l 2,19,20
 1540 872 1540 872 1478 945 c 128,-1,21
 1416 1018 1416 1018 1288 1018 c 0,22,23
 1121 1018 1121 1018 1041 926 c 128,-1,24
 961 834 961 834 961 637 c 2,25,-1
 961 0 l 1,26,-1
 860 0 l 1,27,-1
 860 743 l 2,28,29
 860 1018 860 1018 608 1018 c 0,30,31
 437 1018 437 1018 359 918.5 c 128,-1,32
 281 819 281 819 281 600 c 2,33,-1
 281 0 l 1,34,-1
 182 0 l 1,0,-1
EndSplineSet
Validated: 1
EndChar

StartChar: n
Encoding: 110 110 81
Width: 1208
GlyphClass: 2
Flags: W
LayerCount: 2
Fore
SplineSet
182 0 m 1,0,-1
 182 1087 l 1,1,-1
 266 1087 l 1,2,-1
 285 938 l 1,3,-1
 291 938 l 1,4,5
 397 1108 397 1108 668 1108 c 0,6,7
 1038 1108 1038 1108 1038 711 c 2,8,-1
 1038 0 l 1,9,-1
 940 0 l 1,10,-1
 940 705 l 2,11,12
 940 869 940 869 871 943.5 c 128,-1,13
 802 1018 802 1018 657 1018 c 0,14,15
 462 1018 462 1018 371.5 919.5 c 128,-1,16
 281 821 281 821 281 600 c 2,17,-1
 281 0 l 1,18,-1
 182 0 l 1,0,-1
EndSplineSet
Validated: 1
EndChar

StartChar: o
Encoding: 111 111 82
Width: 1200
GlyphClass: 2
Flags: W
LayerCount: 2
Fore
SplineSet
223 545 m 0,0,1
 223 321 223 321 321.5 195.5 c 128,-1,2
 420 70 420 70 600 70 c 128,-1,3
 780 70 780 70 878.5 195.5 c 128,-1,4
 977 321 977 321 977 545 c 0,5,6
 977 770 977 770 877.5 894 c 128,-1,7
 778 1018 778 1018 598 1018 c 128,-1,8
 418 1018 418 1018 320.5 894.5 c 128,-1,9
 223 771 223 771 223 545 c 0,0,1
119 545 m 0,10,11
 119 811 119 811 248 959.5 c 128,-1,12
 377 1108 377 1108 602 1108 c 0,13,14
 826 1108 826 1108 953.5 957.5 c 128,-1,15
 1081 807 1081 807 1081 545 c 0,16,17
 1081 279 1081 279 952 129.5 c 128,-1,18
 823 -20 823 -20 596 -20 c 0,19,20
 453 -20 453 -20 344 49 c 128,-1,21
 235 118 235 118 177 247 c 128,-1,22
 119 376 119 376 119 545 c 0,10,11
EndSplineSet
Validated: 1
EndChar

StartChar: p
Encoding: 112 112 83
Width: 1219
GlyphClass: 2
Flags: W
LayerCount: 2
Fore
SplineSet
281 541 m 2,0,1
 281 286 281 286 366.5 177 c 128,-1,2
 452 68 452 68 645 68 c 0,3,4
 812 68 812 68 903.5 192 c 128,-1,5
 995 316 995 316 995 539 c 0,6,7
 995 1018 995 1018 649 1018 c 0,8,9
 459 1018 459 1018 370 913.5 c 128,-1,10
 281 809 281 809 281 573 c 2,11,-1
 281 541 l 2,0,1
182 -492 m 1,12,-1
 182 1087 l 1,13,-1
 266 1087 l 1,14,-1
 285 932 l 1,15,-1
 291 932 l 1,16,17
 403 1108 403 1108 649 1108 c 0,18,19
 869 1108 869 1108 984.5 963.5 c 128,-1,20
 1100 819 1100 819 1100 543 c 0,21,22
 1100 275 1100 275 978.5 127.5 c 128,-1,23
 857 -20 857 -20 647 -20 c 0,24,25
 396 -20 396 -20 281 168 c 1,26,-1
 274 168 l 1,27,-1
 277 84 l 2,28,29
 281 10 281 10 281 -78 c 2,30,-1
 281 -492 l 1,31,-1
 182 -492 l 1,12,-1
EndSplineSet
Validated: 1
EndChar

StartChar: q
Encoding: 113 113 84
Width: 1219
GlyphClass: 2
Flags: W
LayerCount: 2
Fore
SplineSet
223 530 m 0,0,1
 223 301 223 301 312.5 184.5 c 128,-1,2
 402 68 402 68 571 68 c 0,3,4
 769 68 769 68 853.5 177 c 128,-1,5
 938 286 938 286 938 543 c 2,6,-1
 938 555 l 2,7,8
 938 800 938 800 853 909 c 128,-1,9
 768 1018 768 1018 582 1018 c 0,10,11
 406 1018 406 1018 314.5 894 c 128,-1,12
 223 770 223 770 223 530 c 0,0,1
119 532 m 0,13,14
 119 807 119 807 237 957.5 c 128,-1,15
 355 1108 355 1108 575 1108 c 0,16,17
 811 1108 811 1108 928 934 c 1,18,-1
 934 934 l 1,19,-1
 952 1087 l 1,20,-1
 1036 1087 l 1,21,-1
 1036 -492 l 1,22,-1
 938 -492 l 1,23,-1
 938 -78 l 2,24,25
 938 44 938 44 944 170 c 1,26,-1
 938 170 l 1,27,28
 820 -20 820 -20 569 -20 c 0,29,30
 355 -20 355 -20 237 122 c 128,-1,31
 119 264 119 264 119 532 c 0,13,14
EndSplineSet
Validated: 1
EndChar

StartChar: r
Encoding: 114 114 85
Width: 797
GlyphClass: 2
Flags: W
LayerCount: 2
Fore
SplineSet
182 0 m 1,0,-1
 182 1087 l 1,1,-1
 266 1087 l 1,2,-1
 276 891 l 1,3,-1
 283 891 l 1,4,5
 350 1011 350 1011 426 1059.5 c 128,-1,6
 502 1108 502 1108 610 1108 c 0,7,8
 679 1108 679 1108 758 1094 c 1,9,-1
 739 999 l 1,10,11
 671 1016 671 1016 598 1016 c 0,12,13
 459 1016 459 1016 370 898 c 128,-1,14
 281 780 281 780 281 600 c 2,15,-1
 281 0 l 1,16,-1
 182 0 l 1,0,-1
EndSplineSet
Validated: 1
EndChar

StartChar: s
Encoding: 115 115 86
Width: 954
GlyphClass: 2
Flags: W
LayerCount: 2
Fore
SplineSet
84 47 m 1,0,-1
 84 154 l 1,1,2
 248 72 248 72 430 72 c 0,3,4
 591 72 591 72 674.5 125.5 c 128,-1,5
 758 179 758 179 758 268 c 0,6,7
 758 350 758 350 691.5 406 c 128,-1,8
 625 462 625 462 473 516 c 0,9,10
 310 575 310 575 244 617.5 c 128,-1,11
 178 660 178 660 144.5 713.5 c 128,-1,12
 111 767 111 767 111 844 c 0,13,14
 111 966 111 966 213.5 1037 c 128,-1,15
 316 1108 316 1108 500 1108 c 0,16,17
 676 1108 676 1108 834 1042 c 1,18,-1
 797 952 l 1,19,20
 637 1018 637 1018 500 1018 c 0,21,22
 367 1018 367 1018 289 974 c 128,-1,23
 211 930 211 930 211 852 c 0,24,25
 211 767 211 767 271.5 716 c 128,-1,26
 332 665 332 665 508 602 c 0,27,28
 655 549 655 549 722 506.5 c 128,-1,29
 789 464 789 464 822.5 410 c 128,-1,30
 856 356 856 356 856 283 c 0,31,32
 856 137 856 137 745 58.5 c 128,-1,33
 634 -20 634 -20 430 -20 c 0,34,35
 212 -20 212 -20 84 47 c 1,0,-1
EndSplineSet
Validated: 1
EndChar

StartChar: t
Encoding: 116 116 87
Width: 686
GlyphClass: 2
Flags: W
LayerCount: 2
Fore
SplineSet
25 1001 m 1,0,-1
 25 1059 l 1,1,-1
 186 1104 l 1,2,-1
 236 1350 l 1,3,-1
 287 1350 l 1,4,-1
 287 1087 l 1,5,-1
 606 1087 l 1,6,-1
 606 1001 l 1,7,-1
 287 1001 l 1,8,-1
 287 313 l 2,9,10
 287 188 287 188 331 128 c 128,-1,11
 375 68 375 68 469 68 c 128,-1,12
 563 68 563 68 633 84 c 1,13,-1
 633 4 l 1,14,15
 561 -20 561 -20 467 -20 c 0,16,17
 323 -20 323 -20 254.5 57 c 128,-1,18
 186 134 186 134 186 299 c 2,19,-1
 186 1001 l 1,20,-1
 25 1001 l 1,0,-1
EndSplineSet
Validated: 1
EndChar

StartChar: u
Encoding: 117 117 88
Width: 1208
GlyphClass: 2
Flags: W
LayerCount: 2
Fore
SplineSet
170 377 m 2,0,-1
 170 1087 l 1,1,-1
 268 1087 l 1,2,-1
 268 383 l 2,3,4
 268 219 268 219 337 144.5 c 128,-1,5
 406 70 406 70 551 70 c 0,6,7
 745 70 745 70 836.5 168 c 128,-1,8
 928 266 928 266 928 487 c 2,9,-1
 928 1087 l 1,10,-1
 1026 1087 l 1,11,-1
 1026 0 l 1,12,-1
 942 0 l 1,13,-1
 924 150 l 1,14,-1
 918 150 l 1,15,16
 812 -20 812 -20 541 -20 c 0,17,18
 170 -20 170 -20 170 377 c 2,0,-1
EndSplineSet
Validated: 1
EndChar

StartChar: v
Encoding: 118 118 89
Width: 940
GlyphClass: 2
Flags: W
LayerCount: 2
Fore
SplineSet
0 1087 m 1,0,-1
 102 1087 l 1,1,-1
 383 348 l 2,2,3
 439 206 439 206 467 100 c 1,4,-1
 473 100 l 1,5,6
 514 236 514 236 557 350 c 2,7,-1
 838 1087 l 1,8,-1
 940 1087 l 1,9,-1
 520 0 l 1,10,-1
 420 0 l 1,11,-1
 0 1087 l 1,0,-1
EndSplineSet
Validated: 1
EndChar

StartChar: w
Encoding: 119 119 90
Width: 1481
GlyphClass: 2
Flags: W
LayerCount: 2
Fore
SplineSet
31 1087 m 1,0,-1
 137 1087 l 1,1,-1
 311 457 l 2,2,3
 372 223 372 223 391 113 c 1,4,-1
 397 113 l 1,5,6
 456 347 456 347 483 424 c 2,7,-1
 707 1087 l 1,8,-1
 797 1087 l 1,9,-1
 1010 426 l 2,10,11
 1082 191 1082 191 1098 115 c 1,12,-1
 1104 115 l 1,13,14
 1112 180 1112 180 1184 463 c 2,15,-1
 1350 1087 l 1,16,-1
 1450 1087 l 1,17,-1
 1155 0 l 1,18,-1
 1051 0 l 1,19,-1
 813 727 l 2,20,21
 790 801 790 801 754 944 c 1,22,-1
 748 944 l 1,23,-1
 727 870 l 1,24,-1
 682 725 l 1,25,-1
 440 0 l 1,26,-1
 342 0 l 1,27,-1
 31 1087 l 1,0,-1
EndSplineSet
Validated: 1
EndChar

StartChar: x
Encoding: 120 120 91
Width: 1020
GlyphClass: 2
Flags: W
LayerCount: 2
Fore
SplineSet
55 0 m 1,0,-1
 449 559 l 1,1,-1
 70 1087 l 1,2,-1
 184 1087 l 1,3,-1
 508 629 l 1,4,-1
 829 1087 l 1,5,-1
 938 1087 l 1,6,-1
 565 559 l 1,7,-1
 965 0 l 1,8,-1
 850 0 l 1,9,-1
 508 485 l 1,10,-1
 164 0 l 1,11,-1
 55 0 l 1,0,-1
EndSplineSet
Validated: 1
EndChar

StartChar: y
Encoding: 121 121 92
Width: 940
GlyphClass: 2
Flags: W
LayerCount: 2
Fore
SplineSet
0 1087 m 1,0,-1
 102 1087 l 1,1,-1
 332 477 l 2,2,3
 437 196 437 196 465 98 c 1,4,-1
 471 98 l 1,5,6
 513 227 513 227 608 483 c 2,7,-1
 838 1087 l 1,8,-1
 940 1087 l 1,9,-1
 453 -176 l 2,10,11
 394 -330 394 -330 354 -384 c 128,-1,12
 314 -438 314 -438 260.5 -465 c 128,-1,13
 207 -492 207 -492 131 -492 c 0,14,15
 74 -492 74 -492 4 -471 c 1,16,-1
 4 -385 l 1,17,18
 62 -401 62 -401 129 -401 c 0,19,20
 180 -401 180 -401 219 -377 c 128,-1,21
 258 -353 258 -353 289.5 -302.5 c 128,-1,22
 321 -252 321 -252 362.5 -142.5 c 128,-1,23
 404 -33 404 -33 416 0 c 1,24,-1
 0 1087 l 1,0,-1
EndSplineSet
Validated: 1
EndChar

StartChar: z
Encoding: 122 122 93
Width: 944
GlyphClass: 2
Flags: W
LayerCount: 2
Fore
SplineSet
82 0 m 1,0,-1
 82 63 l 1,1,-1
 727 999 l 1,2,-1
 129 999 l 1,3,-1
 129 1087 l 1,4,-1
 856 1087 l 1,5,-1
 856 1024 l 1,6,-1
 207 88 l 1,7,-1
 858 88 l 1,8,-1
 858 0 l 1,9,-1
 82 0 l 1,0,-1
EndSplineSet
Validated: 1
EndChar

StartChar: braceleft
Encoding: 123 123 94
Width: 723
GlyphClass: 2
Flags: W
LayerCount: 2
Fore
SplineSet
61 528 m 1,0,-1
 61 608 l 1,1,2
 183 610 183 610 237 659 c 128,-1,3
 291 708 291 708 291 807 c 2,4,-1
 291 1157 l 2,5,6
 291 1456 291 1456 651 1462 c 1,7,-1
 651 1372 l 1,8,9
 513 1367 513 1367 451 1314 c 128,-1,10
 389 1261 389 1261 389 1157 c 2,11,-1
 389 852 l 2,12,13
 389 722 389 722 345 658 c 128,-1,14
 301 594 301 594 203 573 c 1,15,-1
 203 565 l 1,16,17
 300 545 300 545 344.5 481.5 c 128,-1,18
 389 418 389 418 389 295 c 2,19,-1
 389 -27 l 2,20,21
 389 -129 389 -129 448.5 -179.5 c 128,-1,22
 508 -230 508 -230 651 -233 c 1,23,-1
 651 -324 l 1,24,25
 456 -324 456 -324 373.5 -249 c 128,-1,26
 291 -174 291 -174 291 -18 c 2,27,-1
 291 319 l 2,28,29
 291 524 291 524 61 528 c 1,0,-1
EndSplineSet
Validated: 1
EndChar

StartChar: bar
Encoding: 124 124 95
Width: 1108
GlyphClass: 2
Flags: W
LayerCount: 2
Fore
SplineSet
508 -506 m 1,0,-1
 508 1561 l 1,1,-1
 600 1561 l 1,2,-1
 600 -506 l 1,3,-1
 508 -506 l 1,0,-1
EndSplineSet
Validated: 1
EndChar

StartChar: braceright
Encoding: 125 125 96
Width: 723
GlyphClass: 2
Flags: W
LayerCount: 2
Fore
SplineSet
72 -233 m 1,0,1
 213 -231 213 -231 273.5 -180.5 c 128,-1,2
 334 -130 334 -130 334 -27 c 2,3,-1
 334 295 l 2,4,5
 334 418 334 418 378.5 481.5 c 128,-1,6
 423 545 423 545 520 565 c 1,7,-1
 520 573 l 1,8,9
 423 593 423 593 378.5 657 c 128,-1,10
 334 721 334 721 334 852 c 2,11,-1
 334 1157 l 2,12,13
 334 1260 334 1260 272.5 1313.5 c 128,-1,14
 211 1367 211 1367 72 1372 c 1,15,-1
 72 1462 l 1,16,17
 246 1462 246 1462 339 1384.5 c 128,-1,18
 432 1307 432 1307 432 1157 c 2,19,-1
 432 807 l 2,20,21
 432 707 432 707 486.5 658.5 c 128,-1,22
 541 610 541 610 662 608 c 1,23,-1
 662 528 l 1,24,25
 432 524 432 524 432 319 c 2,26,-1
 432 -18 l 2,27,28
 432 -173 432 -173 349.5 -248.5 c 128,-1,29
 267 -324 267 -324 72 -324 c 1,30,-1
 72 -233 l 1,0,1
EndSplineSet
Validated: 1
EndChar

StartChar: asciitilde
Encoding: 126 126 97
Width: 1169
GlyphClass: 2
Flags: W
LayerCount: 2
Fore
SplineSet
111 625 m 1,0,-1
 111 719 l 1,1,2
 219 829 219 829 344 829 c 0,3,4
 405 829 405 829 459 815.5 c 128,-1,5
 513 802 513 802 614 758 c 0,6,7
 740 700 740 700 834 700 c 0,8,9
 890 700 890 700 943.5 730.5 c 128,-1,10
 997 761 997 761 1059 825 c 1,11,-1
 1059 729 l 1,12,13
 1011 680 1011 680 954.5 648 c 128,-1,14
 898 616 898 616 825 616 c 0,15,16
 709 616 709 616 555 688 c 0,17,18
 431 745 431 745 334 745 c 0,19,20
 285 745 285 745 226 714.5 c 128,-1,21
 167 684 167 684 111 625 c 1,0,-1
EndSplineSet
Validated: 1
EndChar

StartChar: exclamdown
Encoding: 161 161 99
Width: 492
GlyphClass: 2
Flags: W
LayerCount: 2
Fore
SplineSet
186 -375 m 1,0,-1
 215 711 l 1,1,-1
 276 711 l 1,2,-1
 305 -375 l 1,3,-1
 186 -375 l 1,0,-1
166 1010 m 0,4,5
 166 1108 166 1108 246 1108 c 0,6,7
 328 1108 328 1108 328 1010 c 0,8,9
 328 957 328 957 304.5 934 c 128,-1,10
 281 911 281 911 246 911 c 0,11,12
 212 911 212 911 189 934 c 128,-1,13
 166 957 166 957 166 1010 c 0,4,5
EndSplineSet
Validated: 1
EndChar

StartChar: cent
Encoding: 162 162 100
Width: 1169
GlyphClass: 2
Flags: W
LayerCount: 2
Fore
SplineSet
211 745 m 0,0,1
 211 977 211 977 313.5 1126.5 c 128,-1,2
 416 1276 416 1276 602 1309 c 1,3,-1
 602 1483 l 1,4,-1
 684 1483 l 1,5,-1
 684 1317 l 1,6,-1
 698 1317 l 2,7,8
 829 1317 829 1317 973 1262 c 1,9,-1
 942 1178 l 1,10,11
 808 1229 808 1229 705 1229 c 0,12,13
 518 1229 518 1229 416.5 1106.5 c 128,-1,14
 315 984 315 984 315 748 c 0,15,16
 315 523 315 523 415.5 398.5 c 128,-1,17
 516 274 516 274 696 274 c 0,18,19
 827 274 827 274 963 332 c 1,20,-1
 963 240 l 1,21,22
 853 184 853 184 696 184 c 2,23,-1
 684 184 l 1,24,-1
 684 -20 l 1,25,-1
 602 -20 l 1,26,-1
 602 190 l 1,27,28
 416 220 416 220 313.5 365 c 128,-1,29
 211 510 211 510 211 745 c 0,0,1
EndSplineSet
Validated: 1
EndChar

StartChar: sterling
Encoding: 163 163 101
Width: 1169
GlyphClass: 2
Flags: W
LayerCount: 2
Fore
SplineSet
78 0 m 1,0,-1
 78 84 l 1,1,2
 188 105 188 105 249.5 194 c 128,-1,3
 311 283 311 283 311 418 c 2,4,-1
 311 676 l 1,5,-1
 100 676 l 1,6,-1
 100 758 l 1,7,-1
 311 758 l 1,8,-1
 311 1055 l 2,9,10
 311 1259 311 1259 409 1370 c 128,-1,11
 507 1481 507 1481 690 1481 c 0,12,13
 865 1481 865 1481 1020 1413 c 1,14,-1
 985 1327 l 1,15,16
 828 1393 828 1393 690 1393 c 0,17,18
 549 1393 549 1393 480.5 1312 c 128,-1,19
 412 1231 412 1231 412 1059 c 2,20,-1
 412 758 l 1,21,-1
 823 758 l 1,22,-1
 823 676 l 1,23,-1
 412 676 l 1,24,-1
 412 420 l 2,25,26
 412 304 412 304 377 224 c 128,-1,27
 342 144 342 144 264 96 c 1,28,-1
 1073 96 l 1,29,-1
 1073 0 l 1,30,-1
 78 0 l 1,0,-1
EndSplineSet
Validated: 1
EndChar

StartChar: currency
Encoding: 164 164 102
Width: 1169
GlyphClass: 2
Flags: W
LayerCount: 2
Fore
SplineSet
260 723 m 128,-1,1
 260 587 260 587 354.5 491 c 128,-1,2
 449 395 449 395 584 395 c 0,3,4
 718 395 718 395 812.5 490.5 c 128,-1,5
 907 586 907 586 907 723 c 0,6,7
 907 859 907 859 812 956 c 128,-1,8
 717 1053 717 1053 584 1053 c 0,9,10
 450 1053 450 1053 355 956 c 128,-1,0
 260 859 260 859 260 723 c 128,-1,1
127 326 m 1,11,-1
 266 467 l 1,12,13
 176 573 176 573 176 723 c 0,14,15
 176 870 176 870 266 981 c 1,16,-1
 127 1122 l 1,17,-1
 186 1182 l 1,18,-1
 324 1040 l 1,19,20
 427 1133 427 1133 584 1133 c 0,21,22
 739 1133 739 1133 844 1040 c 1,23,-1
 981 1182 l 1,24,-1
 1040 1122 l 1,25,-1
 901 981 l 1,26,27
 991 870 991 870 991 723 c 0,28,29
 991 572 991 572 901 467 c 1,30,-1
 1040 326 l 1,31,-1
 981 266 l 1,32,-1
 844 408 l 1,33,34
 734 315 734 315 584 315 c 0,35,36
 431 315 431 315 324 408 c 1,37,-1
 186 266 l 1,38,-1
 127 326 l 1,11,-1
EndSplineSet
Validated: 1
EndChar

StartChar: yen
Encoding: 165 165 103
Width: 1169
GlyphClass: 2
Flags: W
LayerCount: 2
Fore
SplineSet
43 1462 m 1,0,-1
 160 1462 l 1,1,-1
 586 666 l 1,2,-1
 1014 1462 l 1,3,-1
 1124 1462 l 1,4,-1
 692 674 l 1,5,-1
 975 674 l 1,6,-1
 975 592 l 1,7,-1
 637 592 l 1,8,-1
 637 387 l 1,9,-1
 975 387 l 1,10,-1
 975 305 l 1,11,-1
 637 305 l 1,12,-1
 637 0 l 1,13,-1
 532 0 l 1,14,-1
 532 305 l 1,15,-1
 195 305 l 1,16,-1
 195 387 l 1,17,-1
 532 387 l 1,18,-1
 532 592 l 1,19,-1
 195 592 l 1,20,-1
 195 674 l 1,21,-1
 473 674 l 1,22,-1
 43 1462 l 1,0,-1
EndSplineSet
Validated: 1
EndChar

StartChar: brokenbar
Encoding: 166 166 104
Width: 1108
GlyphClass: 2
Flags: W
LayerCount: 2
Fore
SplineSet
508 797 m 1,0,-1
 508 1561 l 1,1,-1
 600 1561 l 1,2,-1
 600 797 l 1,3,-1
 508 797 l 1,0,-1
508 258 m 1,4,-1
 600 258 l 1,5,-1
 600 -506 l 1,6,-1
 508 -506 l 1,7,-1
 508 258 l 1,4,-1
EndSplineSet
Validated: 1
EndChar

StartChar: section
Encoding: 167 167 105
Width: 1057
GlyphClass: 2
Flags: W
LayerCount: 2
Fore
SplineSet
246 825 m 0,0,1
 246 760 246 760 277.5 721 c 128,-1,2
 309 682 309 682 383 646 c 128,-1,3
 457 610 457 610 633 547 c 1,4,5
 715 588 715 588 759 645 c 128,-1,6
 803 702 803 702 803 766 c 0,7,8
 803 828 803 828 771 868 c 128,-1,9
 739 908 739 908 662.5 945 c 128,-1,10
 586 982 586 982 426 1032 c 1,11,12
 345 1009 345 1009 295.5 953 c 128,-1,13
 246 897 246 897 246 825 c 0,0,1
129 63 m 1,14,-1
 129 158 l 1,15,16
 311 80 311 80 461 80 c 0,17,18
 623 80 623 80 708 129.5 c 128,-1,19
 793 179 793 179 793 270 c 0,20,21
 793 325 793 325 768 357.5 c 128,-1,22
 743 390 743 390 679.5 423 c 128,-1,23
 616 456 616 456 489 502 c 0,24,25
 289 575 289 575 217 643.5 c 128,-1,26
 145 712 145 712 145 813 c 0,27,28
 145 896 145 896 195.5 965.5 c 128,-1,29
 246 1035 246 1035 334 1073 c 1,30,31
 248 1120 248 1120 209 1175 c 128,-1,32
 170 1230 170 1230 170 1311 c 0,33,34
 170 1428 170 1428 271.5 1494.5 c 128,-1,35
 373 1561 373 1561 547 1561 c 0,36,37
 722 1561 722 1561 883 1497 c 1,38,-1
 848 1417 l 1,39,40
 757 1451 757 1451 689.5 1464 c 128,-1,41
 622 1477 622 1477 545 1477 c 0,42,43
 411 1477 411 1477 339.5 1432.5 c 128,-1,44
 268 1388 268 1388 268 1313 c 0,45,46
 268 1259 268 1259 293.5 1224.5 c 128,-1,47
 319 1190 319 1190 379 1159 c 128,-1,48
 439 1128 439 1128 567 1085 c 0,49,50
 759 1021 759 1021 831 952.5 c 128,-1,51
 903 884 903 884 903 782 c 0,52,53
 903 609 903 609 717 508 c 1,54,55
 803 466 803 466 846 412 c 128,-1,56
 889 358 889 358 889 276 c 0,57,58
 889 141 889 141 776 68.5 c 128,-1,59
 663 -4 663 -4 465 -4 c 0,60,61
 373 -4 373 -4 294 11 c 128,-1,62
 215 26 215 26 129 63 c 1,14,-1
EndSplineSet
Validated: 1
EndChar

StartChar: dieresis
Encoding: 168 168 106
Width: 1182
GlyphClass: 2
Flags: W
LayerCount: 2
Fore
SplineSet
717 1389 m 0,0,1
 717 1435 717 1435 732.5 1455 c 128,-1,2
 748 1475 748 1475 780 1475 c 0,3,4
 844 1475 844 1475 844 1389 c 128,-1,5
 844 1303 844 1303 780 1303 c 0,6,7
 717 1303 717 1303 717 1389 c 0,0,1
336 1389 m 0,8,9
 336 1435 336 1435 351.5 1455 c 128,-1,10
 367 1475 367 1475 399 1475 c 0,11,12
 463 1475 463 1475 463 1389 c 128,-1,13
 463 1303 463 1303 399 1303 c 0,14,15
 336 1303 336 1303 336 1389 c 0,8,9
EndSplineSet
Validated: 1
EndChar

StartChar: copyright
Encoding: 169 169 107
Width: 1704
GlyphClass: 2
Flags: W
LayerCount: 2
Fore
SplineSet
489 725 m 0,0,1
 489 933 489 933 600 1057.5 c 128,-1,2
 711 1182 711 1182 897 1182 c 0,3,4
 1016 1182 1016 1182 1124 1130 c 1,5,-1
 1087 1047 l 1,6,7
 989 1092 989 1092 897 1092 c 0,8,9
 755 1092 755 1092 674.5 997.5 c 128,-1,10
 594 903 594 903 594 733 c 0,11,12
 594 547 594 547 668.5 458 c 128,-1,13
 743 369 743 369 889 369 c 0,14,15
 973 369 973 369 1087 412 c 1,16,-1
 1087 324 l 1,17,18
 985 279 985 279 879 279 c 0,19,20
 692 279 692 279 590.5 394 c 128,-1,21
 489 509 489 509 489 725 c 0,0,1
193 731 m 0,22,23
 193 553 193 553 281.5 401.5 c 128,-1,24
 370 250 370 250 522 161 c 128,-1,25
 674 72 674 72 852 72 c 128,-1,26
 1030 72 1030 72 1181.5 160.5 c 128,-1,27
 1333 249 1333 249 1422 401 c 128,-1,28
 1511 553 1511 553 1511 731 c 0,29,30
 1511 905 1511 905 1425.5 1056 c 128,-1,31
 1340 1207 1340 1207 1186.5 1299 c 128,-1,32
 1033 1391 1033 1391 852 1391 c 0,33,34
 676 1391 676 1391 523.5 1302.5 c 128,-1,35
 371 1214 371 1214 282 1060 c 128,-1,36
 193 906 193 906 193 731 c 0,22,23
100 731 m 0,37,38
 100 931 100 931 200 1106 c 128,-1,39
 300 1281 300 1281 475 1382 c 128,-1,40
 650 1483 650 1483 852 1483 c 0,41,42
 1052 1483 1052 1483 1227 1383 c 128,-1,43
 1402 1283 1402 1283 1503 1108 c 128,-1,44
 1604 933 1604 933 1604 731 c 0,45,46
 1604 534 1604 534 1507 361 c 128,-1,47
 1410 188 1410 188 1235 84 c 128,-1,48
 1060 -20 1060 -20 852 -20 c 0,49,50
 645 -20 645 -20 470 83.5 c 128,-1,51
 295 187 295 187 197.5 360 c 128,-1,52
 100 533 100 533 100 731 c 0,37,38
EndSplineSet
Validated: 1
EndChar

StartChar: ordfeminine
Encoding: 170 170 108
Width: 686
GlyphClass: 2
Flags: W
LayerCount: 2
Fore
SplineSet
168 993 m 0,0,1
 168 939 168 939 203 908 c 128,-1,2
 238 877 238 877 299 877 c 0,3,4
 389 877 389 877 441.5 927 c 128,-1,5
 494 977 494 977 494 1069 c 2,6,-1
 494 1133 l 1,7,-1
 406 1128 l 2,8,9
 290 1122 290 1122 229 1091.5 c 128,-1,10
 168 1061 168 1061 168 993 c 0,0,1
78 989 m 0,11,12
 78 1089 78 1089 158 1140.5 c 128,-1,13
 238 1192 238 1192 399 1200 c 2,14,-1
 494 1204 l 1,15,-1
 494 1247 l 2,16,17
 494 1324 494 1324 456 1361.5 c 128,-1,18
 418 1399 418 1399 350 1399 c 0,19,20
 263 1399 263 1399 154 1350 c 1,21,-1
 121 1423 l 1,22,23
 238 1479 238 1479 352 1479 c 0,24,25
 580 1479 580 1479 580 1264 c 2,26,-1
 580 813 l 1,27,-1
 512 813 l 1,28,-1
 487 885 l 1,29,30
 403 801 403 801 285 801 c 0,31,32
 190 801 190 801 134 850 c 128,-1,33
 78 899 78 899 78 989 c 0,11,12
EndSplineSet
Validated: 1
EndChar

StartChar: guillemotleft
Encoding: 171 171 109
Width: 885
GlyphClass: 2
Flags: W
LayerCount: 2
Fore
SplineSet
442 516 m 1,0,-1
 442 543 l 1,1,-1
 752 936 l 1,2,-1
 813 893 l 1,3,-1
 559 530 l 1,4,-1
 813 168 l 1,5,-1
 752 125 l 1,6,-1
 442 516 l 1,0,-1
82 516 m 1,7,-1
 82 543 l 1,8,-1
 391 936 l 1,9,-1
 453 893 l 1,10,-1
 199 530 l 1,11,-1
 453 168 l 1,12,-1
 391 125 l 1,13,-1
 82 516 l 1,7,-1
EndSplineSet
Validated: 1
EndChar

StartChar: logicalnot
Encoding: 172 172 110
Width: 1169
GlyphClass: 2
Flags: W
LayerCount: 2
Fore
SplineSet
111 682 m 1,0,-1
 111 764 l 1,1,-1
 1038 764 l 1,2,-1
 1038 270 l 1,3,-1
 956 270 l 1,4,-1
 956 682 l 1,5,-1
 111 682 l 1,0,-1
EndSplineSet
Validated: 1
EndChar

StartChar: uni00AD
Encoding: 173 173 111
Width: 659
GlyphClass: 2
Flags: W
LayerCount: 2
Fore
SplineSet
92 512 m 1,0,-1
 92 594 l 1,1,-1
 567 594 l 1,2,-1
 567 512 l 1,3,-1
 92 512 l 1,0,-1
EndSplineSet
Validated: 1
EndChar

StartChar: registered
Encoding: 174 174 112
Width: 1704
GlyphClass: 2
Flags: W
LayerCount: 2
Fore
SplineSet
709 731 m 1,0,-1
 821 731 l 2,1,2
 912 731 912 731 964 777.5 c 128,-1,3
 1016 824 1016 824 1016 913 c 0,4,5
 1016 1085 1016 1085 819 1085 c 2,6,-1
 709 1085 l 1,7,-1
 709 731 l 1,0,-1
608 291 m 1,8,-1
 608 1171 l 1,9,-1
 819 1171 l 2,10,11
 962 1171 962 1171 1041 1109 c 128,-1,12
 1120 1047 1120 1047 1120 918 c 0,13,14
 1120 839 1120 839 1081.5 778.5 c 128,-1,15
 1043 718 1043 718 971 684 c 1,16,-1
 1208 291 l 1,17,-1
 1087 291 l 1,18,-1
 877 651 l 1,19,-1
 709 651 l 1,20,-1
 709 291 l 1,21,-1
 608 291 l 1,8,-1
193 731 m 0,22,23
 193 553 193 553 281.5 401.5 c 128,-1,24
 370 250 370 250 522 161 c 128,-1,25
 674 72 674 72 852 72 c 128,-1,26
 1030 72 1030 72 1181.5 160.5 c 128,-1,27
 1333 249 1333 249 1422 401 c 128,-1,28
 1511 553 1511 553 1511 731 c 0,29,30
 1511 905 1511 905 1425.5 1056 c 128,-1,31
 1340 1207 1340 1207 1186.5 1299 c 128,-1,32
 1033 1391 1033 1391 852 1391 c 0,33,34
 676 1391 676 1391 523.5 1302.5 c 128,-1,35
 371 1214 371 1214 282 1060 c 128,-1,36
 193 906 193 906 193 731 c 0,22,23
100 731 m 0,37,38
 100 931 100 931 200 1106 c 128,-1,39
 300 1281 300 1281 475 1382 c 128,-1,40
 650 1483 650 1483 852 1483 c 0,41,42
 1052 1483 1052 1483 1227 1383 c 128,-1,43
 1402 1283 1402 1283 1503 1108 c 128,-1,44
 1604 933 1604 933 1604 731 c 0,45,46
 1604 534 1604 534 1507 361 c 128,-1,47
 1410 188 1410 188 1235 84 c 128,-1,48
 1060 -20 1060 -20 852 -20 c 0,49,50
 645 -20 645 -20 470 83.5 c 128,-1,51
 295 187 295 187 197.5 360 c 128,-1,52
 100 533 100 533 100 731 c 0,37,38
EndSplineSet
Validated: 1
EndChar

StartChar: macron
Encoding: 175 175 113
Width: 1024
GlyphClass: 2
Flags: W
LayerCount: 2
Fore
SplineSet
-6 1556 m 1,0,-1
 -6 1638 l 1,1,-1
 1030 1638 l 1,2,-1
 1030 1556 l 1,3,-1
 -6 1556 l 1,0,-1
EndSplineSet
Validated: 1
EndChar

StartChar: degree
Encoding: 176 176 114
Width: 877
GlyphClass: 2
Flags: W
LayerCount: 2
Fore
SplineSet
229 1184 m 0,0,1
 229 1093 229 1093 290 1030 c 128,-1,2
 351 967 351 967 438 967 c 0,3,4
 524 967 524 967 585.5 1029 c 128,-1,5
 647 1091 647 1091 647 1184 c 0,6,7
 647 1276 647 1276 587 1338.5 c 128,-1,8
 527 1401 527 1401 438 1401 c 0,9,10
 348 1401 348 1401 288.5 1337 c 128,-1,11
 229 1273 229 1273 229 1184 c 0,0,1
139 1184 m 0,12,13
 139 1316 139 1316 225.5 1399.5 c 128,-1,14
 312 1483 312 1483 438 1483 c 128,-1,15
 564 1483 564 1483 650.5 1399.5 c 128,-1,16
 737 1316 737 1316 737 1184 c 128,-1,17
 737 1052 737 1052 650.5 968.5 c 128,-1,18
 564 885 564 885 438 885 c 0,19,20
 308 885 308 885 223.5 968 c 128,-1,21
 139 1051 139 1051 139 1184 c 0,12,13
EndSplineSet
Validated: 1
EndChar

StartChar: uni00B2
Encoding: 178 178 116
Width: 688
GlyphClass: 2
Flags: W
LayerCount: 2
Fore
SplineSet
53 586 m 1,0,-1
 53 664 l 1,1,-1
 295 901 l 2,2,3
 420 1022 420 1022 467 1094 c 128,-1,4
 514 1166 514 1166 514 1243 c 0,5,6
 514 1314 514 1314 467.5 1355.5 c 128,-1,7
 421 1397 421 1397 344 1397 c 0,8,9
 236 1397 236 1397 127 1315 c 1,10,-1
 78 1380 l 1,11,12
 197 1483 197 1483 348 1483 c 0,13,14
 472 1483 472 1483 542 1419.5 c 128,-1,15
 612 1356 612 1356 612 1245 c 0,16,17
 612 1198 612 1198 599 1156 c 128,-1,18
 586 1114 586 1114 559 1070.5 c 128,-1,19
 532 1027 532 1027 490.5 980.5 c 128,-1,20
 449 934 449 934 182 674 c 1,21,-1
 629 674 l 1,22,-1
 629 586 l 1,23,-1
 53 586 l 1,0,-1
EndSplineSet
Validated: 1
EndChar

StartChar: uni00B3
Encoding: 179 179 117
Width: 688
GlyphClass: 2
Flags: W
LayerCount: 2
Fore
SplineSet
41 629 m 1,0,-1
 41 717 l 1,1,2
 177 655 177 655 307 655 c 0,3,4
 422 655 422 655 481.5 704 c 128,-1,5
 541 753 541 753 541 840 c 0,6,7
 541 923 541 923 481.5 962 c 128,-1,8
 422 1001 422 1001 303 1001 c 2,9,-1
 172 1001 l 1,10,-1
 172 1085 l 1,11,-1
 307 1085 l 2,12,13
 412 1085 412 1085 465 1128.5 c 128,-1,14
 518 1172 518 1172 518 1249 c 0,15,16
 518 1316 518 1316 471 1356.5 c 128,-1,17
 424 1397 424 1397 344 1397 c 0,18,19
 216 1397 216 1397 98 1319 c 1,20,-1
 51 1389 l 1,21,22
 181 1483 181 1483 344 1483 c 0,23,24
 471 1483 471 1483 543.5 1423 c 128,-1,25
 616 1363 616 1363 616 1260 c 0,26,27
 616 1182 616 1182 572 1128.5 c 128,-1,28
 528 1075 528 1075 455 1053 c 1,29,30
 641 1008 641 1008 641 842 c 0,31,32
 641 712 641 712 552.5 640.5 c 128,-1,33
 464 569 464 569 305 569 c 0,34,35
 161 569 161 569 41 629 c 1,0,-1
EndSplineSet
Validated: 1
EndChar

StartChar: acute
Encoding: 180 180 118
Width: 1182
GlyphClass: 2
Flags: W
LayerCount: 2
Fore
SplineSet
393 1241 m 1,0,-1
 393 1257 l 1,1,2
 466 1336 466 1336 537.5 1428.5 c 128,-1,3
 609 1521 609 1521 635 1569 c 1,4,-1
 776 1569 l 1,5,-1
 776 1552 l 1,6,7
 740 1500 740 1500 653.5 1414 c 128,-1,8
 567 1328 567 1328 463 1241 c 1,9,-1
 393 1241 l 1,0,-1
EndSplineSet
Validated: 1
EndChar

StartChar: uni00B5
Encoding: 181 181 119
Width: 1221
GlyphClass: 2
Flags: W
LayerCount: 2
Fore
SplineSet
182 -492 m 1,0,-1
 182 1087 l 1,1,-1
 281 1087 l 1,2,-1
 281 383 l 2,3,4
 281 219 281 219 350 144.5 c 128,-1,5
 419 70 419 70 563 70 c 0,6,7
 757 70 757 70 848.5 168 c 128,-1,8
 940 266 940 266 940 487 c 2,9,-1
 940 1087 l 1,10,-1
 1038 1087 l 1,11,-1
 1038 0 l 1,12,-1
 954 0 l 1,13,-1
 936 150 l 1,14,-1
 930 150 l 1,15,16
 880 73 880 73 780 26.5 c 128,-1,17
 680 -20 680 -20 563 -20 c 0,18,19
 464 -20 464 -20 395.5 7.5 c 128,-1,20
 327 35 327 35 276 92 c 1,21,22
 281 0 281 0 281 -78 c 2,23,-1
 281 -492 l 1,24,-1
 182 -492 l 1,0,-1
EndSplineSet
Validated: 1
EndChar

StartChar: paragraph
Encoding: 182 182 120
Width: 1341
GlyphClass: 2
Flags: W
LayerCount: 2
Fore
SplineSet
113 1042 m 0,0,1
 113 1302 113 1302 222 1429 c 128,-1,2
 331 1556 331 1556 563 1556 c 2,3,-1
 1106 1556 l 1,4,-1
 1106 -260 l 1,5,-1
 1006 -260 l 1,6,-1
 1006 1462 l 1,7,-1
 778 1462 l 1,8,-1
 778 -260 l 1,9,-1
 678 -260 l 1,10,-1
 678 559 l 1,11,12
 614 541 614 541 532 541 c 0,13,14
 316 541 316 541 214.5 666 c 128,-1,15
 113 791 113 791 113 1042 c 0,0,1
EndSplineSet
Validated: 1
EndChar

StartChar: cedilla
Encoding: 184 184 122
Width: 420
GlyphClass: 2
Flags: W
LayerCount: 2
Fore
SplineSet
43 -393 m 1,0,1
 73 -403 73 -403 135 -403 c 0,2,3
 213 -403 213 -403 254 -375 c 128,-1,4
 295 -347 295 -347 295 -295 c 0,5,6
 295 -201 295 -201 102 -174 c 1,7,-1
 195 0 l 1,8,-1
 291 0 l 1,9,-1
 225 -117 l 1,10,11
 393 -154 393 -154 393 -291 c 0,12,13
 393 -391 393 -391 325.5 -441.5 c 128,-1,14
 258 -492 258 -492 137 -492 c 0,15,16
 69 -492 69 -492 43 -481 c 1,17,-1
 43 -393 l 1,0,1
EndSplineSet
Validated: 1
EndChar

StartChar: uni00B9
Encoding: 185 185 123
Width: 688
GlyphClass: 2
Flags: W
LayerCount: 2
Fore
SplineSet
76 1298 m 1,0,-1
 350 1462 l 1,1,-1
 442 1462 l 1,2,-1
 442 586 l 1,3,-1
 344 586 l 1,4,-1
 344 1133 l 2,5,6
 344 1232 344 1232 356 1366 c 1,7,8
 330 1343 330 1343 123 1221 c 1,9,-1
 76 1298 l 1,0,-1
EndSplineSet
Validated: 1
EndChar

StartChar: ordmasculine
Encoding: 186 186 124
Width: 739
GlyphClass: 2
Flags: W
LayerCount: 2
Fore
SplineSet
160 1141 m 0,0,1
 160 877 160 877 369 877 c 128,-1,2
 578 877 578 877 578 1141 c 0,3,4
 578 1272 578 1272 528 1335.5 c 128,-1,5
 478 1399 478 1399 369 1399 c 128,-1,6
 260 1399 260 1399 210 1335.5 c 128,-1,7
 160 1272 160 1272 160 1141 c 0,0,1
70 1141 m 0,8,9
 70 1303 70 1303 148 1391 c 128,-1,10
 226 1479 226 1479 371 1479 c 0,11,12
 513 1479 513 1479 591.5 1392 c 128,-1,13
 670 1305 670 1305 670 1141 c 0,14,15
 670 980 670 980 590 890.5 c 128,-1,16
 510 801 510 801 367 801 c 128,-1,17
 224 801 224 801 147 887 c 128,-1,18
 70 973 70 973 70 1141 c 0,8,9
EndSplineSet
Validated: 1
EndChar

StartChar: guillemotright
Encoding: 187 187 125
Width: 885
GlyphClass: 2
Flags: W
LayerCount: 2
Fore
SplineSet
432 168 m 1,0,-1
 686 530 l 1,1,-1
 432 893 l 1,2,-1
 494 936 l 1,3,-1
 803 545 l 1,4,-1
 803 518 l 1,5,-1
 494 125 l 1,6,-1
 432 168 l 1,0,-1
72 168 m 1,7,-1
 326 530 l 1,8,-1
 72 893 l 1,9,-1
 133 936 l 1,10,-1
 442 545 l 1,11,-1
 442 518 l 1,12,-1
 133 125 l 1,13,-1
 72 168 l 1,7,-1
EndSplineSet
Validated: 1
EndChar

StartChar: questiondown
Encoding: 191 191 129
Width: 862
GlyphClass: 2
Flags: W
LayerCount: 2
Fore
SplineSet
440 1010 m 0,0,1
 440 1108 440 1108 520 1108 c 0,2,3
 602 1108 602 1108 602 1010 c 0,4,5
 602 957 602 957 578.5 934 c 128,-1,6
 555 911 555 911 520 911 c 0,7,8
 486 911 486 911 463 934 c 128,-1,9
 440 957 440 957 440 1010 c 0,0,1
74 -27 m 0,10,11
 74 43 74 43 94 97 c 128,-1,12
 114 151 114 151 152.5 199 c 128,-1,13
 191 247 191 247 324 358 c 0,14,15
 388 411 388 411 422.5 456.5 c 128,-1,16
 457 502 457 502 472 550.5 c 128,-1,17
 487 599 487 599 487 696 c 2,18,-1
 487 711 l 1,19,-1
 569 711 l 1,20,-1
 569 674 l 2,21,22
 569 549 569 549 529.5 469.5 c 128,-1,23
 490 390 490 390 393 305 c 2,24,-1
 303 226 l 2,25,26
 230 165 230 165 199 105.5 c 128,-1,27
 168 46 168 46 168 -33 c 0,28,29
 168 -157 168 -157 250 -233 c 128,-1,30
 332 -309 332 -309 471 -309 c 0,31,32
 596 -309 596 -309 704 -263 c 2,33,-1
 768 -236 l 1,34,-1
 805 -315 l 1,35,36
 694 -363 694 -363 619.5 -379 c 128,-1,37
 545 -395 545 -395 467 -395 c 0,38,39
 283 -395 283 -395 178.5 -296 c 128,-1,40
 74 -197 74 -197 74 -27 c 0,10,11
EndSplineSet
Validated: 1
EndChar

StartChar: AE
Encoding: 198 198 136
Width: 1653
GlyphClass: 2
Flags: W
LayerCount: 2
Fore
SplineSet
377 608 m 1,0,-1
 811 608 l 1,1,-1
 811 1368 l 1,2,-1
 711 1368 l 1,3,-1
 377 608 l 1,0,-1
-2 0 m 1,4,-1
 651 1462 l 1,5,-1
 1528 1462 l 1,6,-1
 1528 1368 l 1,7,-1
 913 1368 l 1,8,-1
 913 815 l 1,9,-1
 1489 815 l 1,10,-1
 1489 721 l 1,11,-1
 913 721 l 1,12,-1
 913 94 l 1,13,-1
 1528 94 l 1,14,-1
 1528 0 l 1,15,-1
 811 0 l 1,16,-1
 811 516 l 1,17,-1
 336 516 l 1,18,-1
 109 0 l 1,19,-1
 -2 0 l 1,4,-1
EndSplineSet
Validated: 1
EndChar

StartChar: Eth
Encoding: 208 208 146
Width: 1466
GlyphClass: 2
Flags: W
LayerCount: 2
Fore
SplineSet
309 90 m 1,0,-1
 551 90 l 2,1,2
 1206 90 1206 90 1206 741 c 0,3,4
 1206 1055 1206 1055 1046.5 1213.5 c 128,-1,5
 887 1372 887 1372 578 1372 c 2,6,-1
 309 1372 l 1,7,-1
 309 772 l 1,8,-1
 715 772 l 1,9,-1
 715 678 l 1,10,-1
 309 678 l 1,11,-1
 309 90 l 1,0,-1
47 678 m 1,12,-1
 47 772 l 1,13,-1
 207 772 l 1,14,-1
 207 1462 l 1,15,-1
 602 1462 l 2,16,17
 952 1462 952 1462 1134.5 1279 c 128,-1,18
 1317 1096 1317 1096 1317 745 c 0,19,20
 1317 377 1317 377 1124 188.5 c 128,-1,21
 931 0 931 0 557 0 c 2,22,-1
 207 0 l 1,23,-1
 207 678 l 1,24,-1
 47 678 l 1,12,-1
EndSplineSet
Validated: 1
EndChar

StartChar: multiply
Encoding: 215 215 153
Width: 1169
GlyphClass: 2
Flags: W
LayerCount: 2
Fore
SplineSet
119 1130 m 1,0,-1
 176 1188 l 1,1,-1
 584 780 l 1,2,-1
 993 1188 l 1,3,-1
 1051 1130 l 1,4,-1
 643 723 l 1,5,-1
 1049 315 l 1,6,-1
 991 258 l 1,7,-1
 584 666 l 1,8,-1
 178 258 l 1,9,-1
 121 315 l 1,10,-1
 526 723 l 1,11,-1
 119 1130 l 1,0,-1
EndSplineSet
Validated: 1
EndChar

StartChar: Oslash
Encoding: 216 216 154
Width: 1565
GlyphClass: 2
Flags: W
LayerCount: 2
Fore
SplineSet
444 182 m 1,0,1
 577 76 577 76 782 76 c 0,2,3
 1046 76 1046 76 1185.5 246 c 128,-1,4
 1325 416 1325 416 1325 733 c 0,5,6
 1325 1048 1325 1048 1186 1219 c 1,7,-1
 444 182 l 1,0,1
240 733 m 0,8,9
 240 421 240 421 379 250 c 1,10,-1
 1118 1284 l 1,11,12
 985 1386 985 1386 784 1386 c 0,13,14
 523 1386 523 1386 381.5 1216 c 128,-1,15
 240 1046 240 1046 240 733 c 0,8,9
129 735 m 0,16,17
 129 1084 129 1084 304.5 1284.5 c 128,-1,18
 480 1485 480 1485 784 1485 c 0,19,20
 1016 1485 1016 1485 1176 1364 c 1,21,-1
 1284 1516 l 1,22,-1
 1356 1456 l 1,23,-1
 1245 1303 l 1,24,25
 1436 1096 1436 1096 1436 733 c 0,26,27
 1436 385 1436 385 1262 182.5 c 128,-1,28
 1088 -20 1088 -20 782 -20 c 0,29,30
 546 -20 546 -20 387 100 c 1,31,-1
 301 -20 l 1,32,-1
 227 39 l 1,33,-1
 317 166 l 1,34,35
 129 366 129 366 129 735 c 0,16,17
EndSplineSet
Validated: 1
EndChar

StartChar: Thorn
Encoding: 222 222 160
Width: 1198
GlyphClass: 2
Flags: W
LayerCount: 2
Fore
SplineSet
309 428 m 1,0,-1
 510 428 l 2,1,2
 757 428 757 428 867 509.5 c 128,-1,3
 977 591 977 591 977 774 c 0,4,5
 977 943 977 943 873 1024.5 c 128,-1,6
 769 1106 769 1106 551 1106 c 2,7,-1
 309 1106 l 1,8,-1
 309 428 l 1,0,-1
207 0 m 1,9,-1
 207 1462 l 1,10,-1
 309 1462 l 1,11,-1
 309 1198 l 1,12,-1
 565 1198 l 2,13,14
 1087 1198 1087 1198 1087 778 c 0,15,16
 1087 566 1087 566 943 453 c 128,-1,17
 799 340 799 340 535 340 c 2,18,-1
 309 340 l 1,19,-1
 309 0 l 1,20,-1
 207 0 l 1,9,-1
EndSplineSet
Validated: 1
EndChar

StartChar: germandbls
Encoding: 223 223 161
Width: 1194
GlyphClass: 2
Flags: W
LayerCount: 2
Fore
SplineSet
182 0 m 1,0,-1
 182 1206 l 2,1,2
 182 1379 182 1379 285.5 1473 c 128,-1,3
 389 1567 389 1567 578 1567 c 0,4,5
 766 1567 766 1567 863.5 1494.5 c 128,-1,6
 961 1422 961 1422 961 1284 c 0,7,8
 961 1145 961 1145 822 1034 c 0,9,10
 741 970 741 970 711.5 933.5 c 128,-1,11
 682 897 682 897 682 858 c 0,12,13
 682 814 682 814 696.5 790 c 128,-1,14
 711 766 711 766 748 733 c 128,-1,15
 785 700 785 700 850 655 c 0,16,17
 956 580 956 580 1001.5 530.5 c 128,-1,18
 1047 481 1047 481 1069.5 427.5 c 128,-1,19
 1092 374 1092 374 1092 307 c 0,20,21
 1092 151 1092 151 1004 65.5 c 128,-1,22
 916 -20 916 -20 758 -20 c 0,23,24
 663 -20 663 -20 583.5 -1.5 c 128,-1,25
 504 17 504 17 457 47 c 1,26,-1
 457 154 l 1,27,28
 522 116 522 116 605.5 92 c 128,-1,29
 689 68 689 68 758 68 c 0,30,31
 872 68 872 68 932.5 122.5 c 128,-1,32
 993 177 993 177 993 283 c 0,33,34
 993 366 993 366 954 427 c 128,-1,35
 915 488 915 488 805 563 c 0,36,37
 678 650 678 650 630 710 c 128,-1,38
 582 770 582 770 582 856 c 0,39,40
 582 916 582 916 614.5 966 c 128,-1,41
 647 1016 647 1016 721 1074 c 0,42,43
 795 1131 795 1131 827.5 1179.5 c 128,-1,44
 860 1228 860 1228 860 1286 c 0,45,46
 860 1379 860 1379 790 1429 c 128,-1,47
 720 1479 720 1479 588 1479 c 0,48,49
 443 1479 443 1479 362 1410 c 128,-1,50
 281 1341 281 1341 281 1214 c 2,51,-1
 281 0 l 1,52,-1
 182 0 l 1,0,-1
EndSplineSet
Validated: 1
EndChar

StartChar: ae
Encoding: 230 230 168
Width: 1731
GlyphClass: 2
Flags: W
LayerCount: 2
Fore
SplineSet
903 618 m 1,0,-1
 1507 618 l 1,1,2
 1507 806 1507 806 1429.5 913 c 128,-1,3
 1352 1020 1352 1020 1217 1020 c 0,4,5
 933 1020 933 1020 903 618 c 1,0,-1
203 285 m 0,6,7
 203 183 203 183 264 126.5 c 128,-1,8
 325 70 325 70 434 70 c 0,9,10
 603 70 603 70 700 169.5 c 128,-1,11
 797 269 797 269 797 446 c 2,12,-1
 797 553 l 1,13,-1
 610 545 l 2,14,15
 391 534 391 534 297 473.5 c 128,-1,16
 203 413 203 413 203 285 c 0,6,7
98 289 m 0,17,18
 98 443 98 443 223 532 c 128,-1,19
 348 621 348 621 600 629 c 2,20,-1
 801 635 l 1,21,-1
 801 707 l 2,22,23
 801 862 801 862 739.5 941 c 128,-1,24
 678 1020 678 1020 541 1020 c 0,25,26
 393 1020 393 1020 236 936 c 1,27,-1
 199 1022 l 1,28,29
 372 1106 372 1106 545 1106 c 0,30,31
 806 1106 806 1106 870 895 c 1,32,33
 981 1108 981 1108 1217 1108 c 0,34,35
 1401 1108 1401 1108 1506.5 973.5 c 128,-1,36
 1612 839 1612 839 1612 610 c 2,37,-1
 1612 530 l 1,38,-1
 897 530 l 1,39,40
 897 70 897 70 1245 70 c 0,41,42
 1330 70 1330 70 1395 82 c 128,-1,43
 1460 94 1460 94 1569 139 c 1,44,-1
 1569 49 l 1,45,46
 1477 8 1477 8 1404 -6 c 128,-1,47
 1331 -20 1331 -20 1243 -20 c 0,48,49
 948 -20 948 -20 846 236 c 1,50,51
 778 103 778 103 678 41.5 c 128,-1,52
 578 -20 578 -20 426 -20 c 0,53,54
 270 -20 270 -20 184 62.5 c 128,-1,55
 98 145 98 145 98 289 c 0,17,18
EndSplineSet
Validated: 1
EndChar

StartChar: eth
Encoding: 240 240 178
Width: 1174
GlyphClass: 2
Flags: W
LayerCount: 2
Fore
SplineSet
221 463 m 0,0,1
 221 277 221 277 315.5 173.5 c 128,-1,2
 410 70 410 70 584 70 c 0,3,4
 763 70 763 70 856.5 193 c 128,-1,5
 950 316 950 316 950 557 c 0,6,7
 950 703 950 703 853 785.5 c 128,-1,8
 756 868 756 868 586 868 c 0,9,10
 401 868 401 868 311 767.5 c 128,-1,11
 221 667 221 667 221 463 c 0,0,1
117 471 m 0,12,13
 117 699 117 699 243.5 828.5 c 128,-1,14
 370 958 370 958 586 958 c 0,15,16
 694 958 694 958 773.5 925 c 128,-1,17
 853 892 853 892 922 829 c 1,18,-1
 926 831 l 1,19,20
 862 1101 862 1101 657 1290 c 1,21,-1
 387 1133 l 1,22,-1
 338 1210 l 1,23,-1
 582 1356 l 1,24,25
 496 1418 496 1418 383 1475 c 1,26,-1
 428 1556 l 1,27,28
 575 1487 575 1487 676 1411 c 1,29,-1
 901 1548 l 1,30,-1
 950 1464 l 1,31,-1
 748 1343 l 1,32,33
 902 1192 902 1192 978.5 990 c 128,-1,34
 1055 788 1055 788 1055 559 c 0,35,36
 1055 283 1055 283 931 131.5 c 128,-1,37
 807 -20 807 -20 582 -20 c 0,38,39
 368 -20 368 -20 242.5 110 c 128,-1,40
 117 240 117 240 117 471 c 0,12,13
EndSplineSet
Validated: 1
EndChar

StartChar: divide
Encoding: 247 247 185
Width: 1169
GlyphClass: 2
Flags: W
LayerCount: 2
Fore
SplineSet
504 1075 m 0,0,1
 504 1174 504 1174 584 1174 c 0,2,3
 666 1174 666 1174 666 1075 c 0,4,5
 666 1023 666 1023 642.5 1000 c 128,-1,6
 619 977 619 977 584 977 c 0,7,8
 550 977 550 977 527 1000 c 128,-1,9
 504 1023 504 1023 504 1075 c 0,0,1
504 371 m 0,10,11
 504 469 504 469 584 469 c 0,12,13
 666 469 666 469 666 371 c 0,14,15
 666 318 666 318 642.5 295 c 128,-1,16
 619 272 619 272 584 272 c 0,17,18
 550 272 550 272 527 295 c 128,-1,19
 504 318 504 318 504 371 c 0,10,11
111 682 m 1,20,-1
 111 764 l 1,21,-1
 1059 764 l 1,22,-1
 1059 682 l 1,23,-1
 111 682 l 1,20,-1
EndSplineSet
Validated: 1
EndChar

StartChar: oslash
Encoding: 248 248 186
Width: 1200
GlyphClass: 2
Flags: W
LayerCount: 2
Fore
SplineSet
362 152 m 1,0,1
 456 70 456 70 600 70 c 0,2,3
 780 70 780 70 878.5 195.5 c 128,-1,4
 977 321 977 321 977 545 c 0,5,6
 977 735 977 735 905 854 c 1,7,-1
 362 152 l 1,0,1
223 545 m 0,8,9
 223 345 223 345 301 223 c 1,10,-1
 844 928 l 1,11,12
 746 1018 746 1018 598 1018 c 0,13,14
 418 1018 418 1018 320.5 894.5 c 128,-1,15
 223 771 223 771 223 545 c 0,8,9
119 545 m 0,16,17
 119 811 119 811 248 959.5 c 128,-1,18
 377 1108 377 1108 602 1108 c 0,19,20
 781 1108 781 1108 903 1004 c 1,21,-1
 999 1128 l 1,22,-1
 1073 1073 l 1,23,-1
 969 936 l 1,24,25
 1081 789 1081 789 1081 545 c 0,26,27
 1081 279 1081 279 952 129.5 c 128,-1,28
 823 -20 823 -20 596 -20 c 0,29,30
 423 -20 423 -20 305 78 c 1,31,-1
 219 -35 l 1,32,-1
 147 23 l 1,33,-1
 240 143 l 1,34,35
 119 296 119 296 119 545 c 0,16,17
EndSplineSet
Validated: 1
EndChar

StartChar: thorn
Encoding: 254 254 192
Width: 1219
GlyphClass: 2
Flags: W
LayerCount: 2
Fore
SplineSet
281 541 m 2,0,1
 281 286 281 286 366.5 177 c 128,-1,2
 452 68 452 68 645 68 c 0,3,4
 812 68 812 68 903.5 192 c 128,-1,5
 995 316 995 316 995 539 c 0,6,7
 995 1018 995 1018 647 1018 c 0,8,9
 454 1018 454 1018 367.5 913 c 128,-1,10
 281 808 281 808 281 559 c 2,11,-1
 281 541 l 2,0,1
182 -492 m 1,12,-1
 182 1556 l 1,13,-1
 281 1556 l 1,14,-1
 281 1165 l 1,15,-1
 274 918 l 1,16,-1
 281 918 l 1,17,18
 395 1108 395 1108 649 1108 c 0,19,20
 869 1108 869 1108 984.5 963.5 c 128,-1,21
 1100 819 1100 819 1100 543 c 0,22,23
 1100 275 1100 275 978.5 127.5 c 128,-1,24
 857 -20 857 -20 647 -20 c 0,25,26
 396 -20 396 -20 281 168 c 1,27,-1
 274 168 l 1,28,-1
 277 84 l 2,29,30
 281 10 281 10 281 -78 c 2,31,-1
 281 -492 l 1,32,-1
 182 -492 l 1,12,-1
EndSplineSet
Validated: 1
EndChar

StartChar: aogonek
Encoding: 261 261 199
Width: 1085
GlyphClass: 2
Flags: W
LayerCount: 2
Fore
SplineSet
203 285 m 0,0,1
 203 183 203 183 265.5 126.5 c 128,-1,2
 328 70 328 70 442 70 c 0,3,4
 616 70 616 70 716.5 169.5 c 128,-1,5
 817 269 817 269 817 446 c 2,6,-1
 817 553 l 1,7,-1
 627 545 l 2,8,9
 398 534 398 534 300.5 473.5 c 128,-1,10
 203 413 203 413 203 285 c 0,0,1
98 289 m 0,11,12
 98 448 98 448 230.5 536 c 128,-1,13
 363 624 363 624 614 629 c 2,14,-1
 821 635 l 1,15,-1
 821 707 l 2,16,17
 821 862 821 862 758 941 c 128,-1,18
 695 1020 695 1020 555 1020 c 0,19,20
 404 1020 404 1020 242 936 c 1,21,-1
 205 1022 l 1,22,23
 384 1106 384 1106 559 1106 c 0,24,25
 738 1106 738 1106 826.5 1013 c 128,-1,26
 915 920 915 920 915 723 c 2,27,-1
 915 0 l 1,28,29
 843 -63 843 -63 807.5 -119.5 c 128,-1,30
 772 -176 772 -176 772 -248 c 0,31,32
 772 -358 772 -358 878 -358 c 0,33,34
 927 -358 927 -358 960 -346 c 1,35,-1
 960 -430 l 1,36,37
 920 -446 920 -446 856 -446 c 0,38,39
 772 -446 772 -446 722.5 -398.5 c 128,-1,40
 673 -351 673 -351 673 -264 c 0,41,42
 673 -194 673 -194 713 -125 c 0,43,44
 751 -58 751 -58 840 13 c 1,45,-1
 817 172 l 1,46,-1
 809 172 l 1,47,48
 727 67 727 67 640.5 23.5 c 128,-1,49
 554 -20 554 -20 436 -20 c 0,50,51
 276 -20 276 -20 187 62 c 128,-1,52
 98 144 98 144 98 289 c 0,11,12
EndSplineSet
Validated: 1
EndChar

StartChar: dcroat
Encoding: 273 273 211
Width: 1219
GlyphClass: 2
Flags: W
LayerCount: 2
Fore
SplineSet
223 530 m 0,0,1
 223 68 223 68 582 68 c 0,2,3
 766 68 766 68 852 175 c 128,-1,4
 938 282 938 282 938 528 c 2,5,-1
 938 545 l 2,6,7
 938 797 938 797 853.5 907.5 c 128,-1,8
 769 1018 769 1018 580 1018 c 0,9,10
 402 1018 402 1018 312.5 893 c 128,-1,11
 223 768 223 768 223 530 c 0,0,1
119 528 m 0,12,13
 119 810 119 810 237 959 c 128,-1,14
 355 1108 355 1108 580 1108 c 0,15,16
 698 1108 698 1108 784 1065 c 128,-1,17
 870 1022 870 1022 938 918 c 1,18,-1
 944 918 l 1,19,20
 938 1044 938 1044 938 1165 c 2,21,-1
 938 1272 l 1,22,-1
 465 1272 l 1,23,-1
 465 1354 l 1,24,-1
 938 1354 l 1,25,-1
 938 1556 l 1,26,-1
 1036 1556 l 1,27,-1
 1036 1354 l 1,28,-1
 1192 1354 l 1,29,-1
 1192 1272 l 1,30,-1
 1036 1272 l 1,31,-1
 1036 0 l 1,32,-1
 971 0 l 1,33,-1
 946 166 l 1,34,-1
 938 166 l 1,35,36
 814 -20 814 -20 582 -20 c 0,37,38
 357 -20 357 -20 238 120 c 128,-1,39
 119 260 119 260 119 528 c 0,12,13
EndSplineSet
Validated: 1
EndChar

StartChar: Hbar
Encoding: 294 294 232
Width: 1473
GlyphClass: 2
Flags: W
LayerCount: 2
Fore
SplineSet
309 813 m 1,0,-1
 1163 813 l 1,1,-1
 1163 1098 l 1,2,-1
 309 1098 l 1,3,-1
 309 813 l 1,0,-1
0 1098 m 1,4,-1
 0 1192 l 1,5,-1
 207 1192 l 1,6,-1
 207 1462 l 1,7,-1
 309 1462 l 1,8,-1
 309 1192 l 1,9,-1
 1163 1192 l 1,10,-1
 1163 1462 l 1,11,-1
 1266 1462 l 1,12,-1
 1266 1192 l 1,13,-1
 1473 1192 l 1,14,-1
 1473 1098 l 1,15,-1
 1266 1098 l 1,16,-1
 1266 0 l 1,17,-1
 1163 0 l 1,18,-1
 1163 719 l 1,19,-1
 309 719 l 1,20,-1
 309 0 l 1,21,-1
 207 0 l 1,22,-1
 207 1098 l 1,23,-1
 0 1098 l 1,4,-1
EndSplineSet
Validated: 1
EndChar

StartChar: hbar
Encoding: 295 295 233
Width: 1208
GlyphClass: 2
Flags: W
LayerCount: 2
Fore
SplineSet
27 1272 m 1,0,-1
 27 1354 l 1,1,-1
 182 1354 l 1,2,-1
 182 1556 l 1,3,-1
 281 1556 l 1,4,-1
 281 1354 l 1,5,-1
 754 1354 l 1,6,-1
 754 1272 l 1,7,-1
 281 1272 l 1,8,-1
 281 1030 l 1,9,-1
 276 891 l 1,10,-1
 283 891 l 1,11,12
 344 989 344 989 437 1033 c 128,-1,13
 530 1077 530 1077 668 1077 c 0,14,15
 1038 1077 1038 1077 1038 680 c 2,16,-1
 1038 0 l 1,17,-1
 940 0 l 1,18,-1
 940 674 l 2,19,20
 940 838 940 838 871 912.5 c 128,-1,21
 802 987 802 987 657 987 c 0,22,23
 460 987 460 987 370.5 889 c 128,-1,24
 281 791 281 791 281 569 c 2,25,-1
 281 0 l 1,26,-1
 182 0 l 1,27,-1
 182 1272 l 1,28,-1
 27 1272 l 1,0,-1
EndSplineSet
Validated: 1
EndChar

StartChar: dotlessi
Encoding: 305 305 243
Width: 463
GlyphClass: 2
Flags: W
LayerCount: 2
Fore
SplineSet
182 0 m 1,0,-1
 182 1087 l 1,1,-1
 281 1087 l 1,2,-1
 281 0 l 1,3,-1
 182 0 l 1,0,-1
EndSplineSet
Validated: 1
EndChar

StartChar: kgreenlandic
Encoding: 312 312 250
Width: 991
GlyphClass: 2
Flags: W
LayerCount: 2
Fore
SplineSet
182 0 m 1,0,-1
 182 1087 l 1,1,-1
 281 1087 l 1,2,-1
 281 776 l 1,3,-1
 274 477 l 1,4,-1
 279 477 l 1,5,-1
 834 1087 l 1,6,-1
 954 1087 l 1,7,-1
 526 623 l 1,8,-1
 991 0 l 1,9,-1
 872 0 l 1,10,-1
 459 549 l 1,11,-1
 281 387 l 1,12,-1
 281 0 l 1,13,-1
 182 0 l 1,0,-1
EndSplineSet
Validated: 1
EndChar

StartChar: Lslash
Encoding: 321 321 259
Width: 1051
GlyphClass: 2
Flags: W
LayerCount: 2
Fore
SplineSet
29 539 m 1,0,-1
 207 651 l 1,1,-1
 207 1462 l 1,2,-1
 309 1462 l 1,3,-1
 309 715 l 1,4,-1
 633 920 l 1,5,-1
 680 844 l 1,6,-1
 309 614 l 1,7,-1
 309 96 l 1,8,-1
 1006 96 l 1,9,-1
 1006 0 l 1,10,-1
 207 0 l 1,11,-1
 207 551 l 1,12,-1
 70 465 l 1,13,-1
 29 539 l 1,0,-1
EndSplineSet
Validated: 1
EndChar

StartChar: lslash
Encoding: 322 322 260
Width: 463
GlyphClass: 2
Flags: W
LayerCount: 2
Fore
SplineSet
8 639 m 1,0,-1
 182 754 l 1,1,-1
 182 1556 l 1,2,-1
 281 1556 l 1,3,-1
 281 817 l 1,4,-1
 434 920 l 1,5,-1
 477 850 l 1,6,-1
 281 719 l 1,7,-1
 281 0 l 1,8,-1
 182 0 l 1,9,-1
 182 653 l 1,10,-1
 53 567 l 1,11,-1
 8 639 l 1,0,-1
EndSplineSet
Validated: 1
EndChar

StartChar: Eng
Encoding: 330 330 268
Width: 1477
GlyphClass: 2
Flags: W
LayerCount: 2
Fore
SplineSet
207 0 m 1,0,-1
 207 1462 l 1,1,-1
 309 1462 l 1,2,-1
 1174 166 l 1,3,-1
 1180 166 l 1,4,5
 1171 346 1171 346 1171 508 c 2,6,-1
 1171 1462 l 1,7,-1
 1270 1462 l 1,8,-1
 1270 0 l 2,9,10
 1270 -369 1270 -369 928 -369 c 0,11,12
 835 -369 835 -369 776 -342 c 1,13,-1
 776 -254 l 1,14,15
 854 -274 854 -274 926 -274 c 0,16,17
 1167 -274 1167 -274 1167 -10 c 2,18,-1
 1167 0 l 1,19,-1
 301 1298 l 1,20,-1
 293 1298 l 1,21,22
 305 1066 305 1066 305 948 c 2,23,-1
 305 0 l 1,24,-1
 207 0 l 1,0,-1
EndSplineSet
Validated: 1
EndChar

StartChar: eng
Encoding: 331 331 269
Width: 1208
GlyphClass: 2
Flags: W
LayerCount: 2
Fore
SplineSet
182 0 m 1,0,-1
 182 1087 l 1,1,-1
 266 1087 l 1,2,-1
 285 938 l 1,3,-1
 291 938 l 1,4,5
 345 1025 345 1025 438 1066.5 c 128,-1,6
 531 1108 531 1108 643 1108 c 0,7,8
 844 1108 844 1108 941 1009 c 128,-1,9
 1038 910 1038 910 1038 711 c 2,10,-1
 1038 -211 l 2,11,12
 1038 -345 1038 -345 975.5 -418.5 c 128,-1,13
 913 -492 913 -492 795 -492 c 0,14,15
 716 -492 716 -492 659 -467 c 1,16,-1
 659 -381 l 1,17,18
 728 -401 728 -401 788 -401 c 0,19,20
 940 -401 940 -401 940 -225 c 2,21,-1
 940 705 l 2,22,23
 940 869 940 869 867.5 943.5 c 128,-1,24
 795 1018 795 1018 643 1018 c 0,25,26
 454 1018 454 1018 367.5 918.5 c 128,-1,27
 281 819 281 819 281 600 c 2,28,-1
 281 0 l 1,29,-1
 182 0 l 1,0,-1
EndSplineSet
Validated: 1
EndChar

StartChar: OE
Encoding: 338 338 276
Width: 1839
GlyphClass: 2
Flags: W
LayerCount: 2
Fore
SplineSet
240 733 m 0,0,1
 240 418 240 418 380.5 249 c 128,-1,2
 521 80 521 80 782 80 c 0,3,4
 891 80 891 80 956 98 c 1,5,-1
 956 1364 l 1,6,7
 894 1380 894 1380 784 1380 c 0,8,9
 522 1380 522 1380 381 1212.5 c 128,-1,10
 240 1045 240 1045 240 733 c 0,0,1
129 735 m 0,11,12
 129 1082 129 1082 303.5 1280.5 c 128,-1,13
 478 1479 478 1479 784 1479 c 0,14,15
 862 1479 862 1479 967 1462 c 1,16,-1
 1714 1462 l 1,17,-1
 1714 1368 l 1,18,-1
 1059 1368 l 1,19,-1
 1059 815 l 1,20,-1
 1675 815 l 1,21,-1
 1675 721 l 1,22,-1
 1059 721 l 1,23,-1
 1059 94 l 1,24,-1
 1714 94 l 1,25,-1
 1714 0 l 1,26,-1
 958 0 l 1,27,28
 882 -16 882 -16 782 -16 c 0,29,30
 477 -16 477 -16 303 184 c 128,-1,31
 129 384 129 384 129 735 c 0,11,12
EndSplineSet
Validated: 1
EndChar

StartChar: oe
Encoding: 339 339 277
Width: 1942
GlyphClass: 2
Flags: W
LayerCount: 2
Fore
SplineSet
1065 618 m 1,0,-1
 1718 618 l 1,1,2
 1718 807 1718 807 1636 913.5 c 128,-1,3
 1554 1020 1554 1020 1409 1020 c 0,4,5
 1254 1020 1254 1020 1167 916 c 128,-1,6
 1080 812 1080 812 1065 618 c 1,0,-1
223 545 m 0,7,8
 223 321 223 321 321.5 195.5 c 128,-1,9
 420 70 420 70 600 70 c 0,10,11
 774 70 774 70 865 192.5 c 128,-1,12
 956 315 956 315 956 545 c 0,13,14
 956 769 956 769 863 893.5 c 128,-1,15
 770 1018 770 1018 598 1018 c 0,16,17
 418 1018 418 1018 320.5 894.5 c 128,-1,18
 223 771 223 771 223 545 c 0,7,8
119 545 m 0,19,20
 119 811 119 811 248 959.5 c 128,-1,21
 377 1108 377 1108 602 1108 c 0,22,23
 753 1108 753 1108 853 1038 c 128,-1,24
 953 968 953 968 1010 829 c 1,25,26
 1120 1108 1120 1108 1409 1108 c 0,27,28
 1601 1108 1601 1108 1712 974 c 128,-1,29
 1823 840 1823 840 1823 610 c 2,30,-1
 1823 530 l 1,31,-1
 1061 530 l 1,32,33
 1063 300 1063 300 1161.5 185 c 128,-1,34
 1260 70 1260 70 1438 70 c 0,35,36
 1531 70 1531 70 1601.5 83 c 128,-1,37
 1672 96 1672 96 1780 139 c 1,38,-1
 1780 49 l 1,39,40
 1688 9 1688 9 1610 -5.5 c 128,-1,41
 1532 -20 1532 -20 1438 -20 c 0,42,43
 1282 -20 1282 -20 1171.5 47.5 c 128,-1,44
 1061 115 1061 115 1006 246 c 1,45,46
 947 118 947 118 848 49 c 128,-1,47
 749 -20 749 -20 596 -20 c 0,48,49
 453 -20 453 -20 344 49 c 128,-1,50
 235 118 235 118 177 247 c 128,-1,51
 119 376 119 376 119 545 c 0,19,20
EndSplineSet
Validated: 1
EndChar

StartChar: Tbar
Encoding: 358 358 296
Width: 1073
GlyphClass: 2
Flags: W
LayerCount: 2
Fore
SplineSet
10 1366 m 1,0,-1
 10 1462 l 1,1,-1
 1063 1462 l 1,2,-1
 1063 1366 l 1,3,-1
 588 1366 l 1,4,-1
 588 793 l 1,5,-1
 942 793 l 1,6,-1
 942 698 l 1,7,-1
 588 698 l 1,8,-1
 588 0 l 1,9,-1
 485 0 l 1,10,-1
 485 698 l 1,11,-1
 127 698 l 1,12,-1
 127 793 l 1,13,-1
 485 793 l 1,14,-1
 485 1366 l 1,15,-1
 10 1366 l 1,0,-1
EndSplineSet
Validated: 1
EndChar

StartChar: tbar
Encoding: 359 359 297
Width: 686
GlyphClass: 2
Flags: W
LayerCount: 2
Fore
SplineSet
25 1001 m 1,0,-1
 25 1059 l 1,1,-1
 186 1104 l 1,2,-1
 236 1350 l 1,3,-1
 287 1350 l 1,4,-1
 287 1087 l 1,5,-1
 606 1087 l 1,6,-1
 606 1001 l 1,7,-1
 287 1001 l 1,8,-1
 287 688 l 1,9,-1
 596 688 l 1,10,-1
 596 602 l 1,11,-1
 287 602 l 1,12,-1
 287 313 l 2,13,14
 287 188 287 188 331 128 c 128,-1,15
 375 68 375 68 469 68 c 128,-1,16
 563 68 563 68 633 84 c 1,17,-1
 633 4 l 1,18,19
 561 -20 561 -20 467 -20 c 0,20,21
 323 -20 323 -20 254.5 57 c 128,-1,22
 186 134 186 134 186 299 c 2,23,-1
 186 602 l 1,24,-1
 41 602 l 1,25,-1
 41 688 l 1,26,-1
 186 688 l 1,27,-1
 186 1001 l 1,28,-1
 25 1001 l 1,0,-1
EndSplineSet
Validated: 1
EndChar

StartChar: uogonek
Encoding: 371 371 309
Width: 1208
GlyphClass: 2
Flags: W
LayerCount: 2
Fore
SplineSet
170 377 m 2,0,-1
 170 1087 l 1,1,-1
 268 1087 l 1,2,-1
 268 383 l 2,3,4
 268 219 268 219 337 144.5 c 128,-1,5
 406 70 406 70 551 70 c 0,6,7
 745 70 745 70 836.5 168 c 128,-1,8
 928 266 928 266 928 487 c 2,9,-1
 928 1087 l 1,10,-1
 1026 1087 l 1,11,-1
 1026 0 l 1,12,13
 954 -63 954 -63 918.5 -119.5 c 128,-1,14
 883 -176 883 -176 883 -248 c 0,15,16
 883 -358 883 -358 989 -358 c 0,17,18
 1038 -358 1038 -358 1071 -346 c 1,19,-1
 1071 -430 l 1,20,21
 1031 -446 1031 -446 967 -446 c 0,22,23
 883 -446 883 -446 833.5 -398.5 c 128,-1,24
 784 -351 784 -351 784 -264 c 0,25,26
 784 -194 784 -194 824 -125 c 0,27,28
 863 -56 863 -56 941 4 c 1,29,-1
 924 150 l 1,30,-1
 918 150 l 1,31,32
 812 -20 812 -20 541 -20 c 0,33,34
 355 -20 355 -20 262.5 79 c 128,-1,35
 170 178 170 178 170 377 c 2,0,-1
EndSplineSet
Validated: 1
EndChar

StartChar: longs
Encoding: 383 383 321
Width: 627
GlyphClass: 2
Flags: W
LayerCount: 2
Fore
SplineSet
182 0 m 1,0,-1
 182 1180 l 2,1,2
 182 1383 182 1383 256.5 1475 c 128,-1,3
 331 1567 331 1567 496 1567 c 0,4,5
 586 1567 586 1567 676 1540 c 1,6,-1
 653 1454 l 1,7,8
 573 1479 573 1479 494 1479 c 0,9,10
 378 1479 378 1479 329.5 1410.5 c 128,-1,11
 281 1342 281 1342 281 1188 c 2,12,-1
 281 0 l 1,13,-1
 182 0 l 1,0,-1
EndSplineSet
Validated: 1
EndChar

StartChar: florin
Encoding: 402 402 322
Width: 1169
GlyphClass: 2
Flags: W
LayerCount: 2
Fore
SplineSet
190 -383 m 1,0,1
 268 -401 268 -401 334 -401 c 0,2,3
 510 -401 510 -401 510 -184 c 2,4,-1
 510 854 l 1,5,-1
 303 854 l 1,6,-1
 303 913 l 1,7,-1
 510 950 l 1,8,-1
 510 1096 l 2,9,10
 510 1297 510 1297 586.5 1390 c 128,-1,11
 663 1483 663 1483 827 1483 c 0,12,13
 909 1483 909 1483 1010 1452 c 1,14,-1
 985 1366 l 1,15,16
 896 1395 896 1395 825 1395 c 0,17,18
 710 1395 710 1395 659 1327.5 c 128,-1,19
 608 1260 608 1260 608 1104 c 2,20,-1
 608 942 l 1,21,-1
 889 942 l 1,22,-1
 889 854 l 1,23,-1
 608 854 l 1,24,-1
 608 -174 l 2,25,26
 608 -329 608 -329 537 -410.5 c 128,-1,27
 466 -492 466 -492 330 -492 c 0,28,29
 245 -492 245 -492 190 -473 c 1,30,-1
 190 -383 l 1,0,1
EndSplineSet
Validated: 1
EndChar

StartChar: Ohorn
Encoding: 416 416 323
Width: 1565
GlyphClass: 2
Flags: W
LayerCount: 2
Fore
SplineSet
240 733 m 0,0,1
 240 419 240 419 380 247.5 c 128,-1,2
 520 76 520 76 782 76 c 0,3,4
 1046 76 1046 76 1185.5 246 c 128,-1,5
 1325 416 1325 416 1325 733 c 0,6,7
 1325 1049 1325 1049 1185.5 1217.5 c 128,-1,8
 1046 1386 1046 1386 784 1386 c 0,9,10
 523 1386 523 1386 381.5 1216 c 128,-1,11
 240 1046 240 1046 240 733 c 0,0,1
129 735 m 0,12,13
 129 1084 129 1084 304.5 1284.5 c 128,-1,14
 480 1485 480 1485 784 1485 c 0,15,16
 1114 1485 1114 1485 1284 1255 c 1,17,18
 1365 1276 1365 1276 1404.5 1347 c 128,-1,19
 1444 1418 1444 1418 1444 1556 c 1,20,-1
 1548 1556 l 1,21,-1
 1561 1538 l 1,22,23
 1551 1391 1551 1391 1493.5 1306 c 128,-1,24
 1436 1221 1436 1221 1329 1186 c 1,25,26
 1436 1004 1436 1004 1436 733 c 0,27,28
 1436 385 1436 385 1262 182.5 c 128,-1,29
 1088 -20 1088 -20 782 -20 c 0,30,31
 477 -20 477 -20 303 182.5 c 128,-1,32
 129 385 129 385 129 735 c 0,12,13
EndSplineSet
Validated: 1
EndChar

StartChar: ohorn
Encoding: 417 417 324
Width: 1200
GlyphClass: 2
Flags: W
LayerCount: 2
Fore
SplineSet
223 545 m 0,0,1
 223 321 223 321 321.5 195.5 c 128,-1,2
 420 70 420 70 600 70 c 128,-1,3
 780 70 780 70 878.5 195.5 c 128,-1,4
 977 321 977 321 977 545 c 0,5,6
 977 770 977 770 877.5 894 c 128,-1,7
 778 1018 778 1018 598 1018 c 128,-1,8
 418 1018 418 1018 320.5 894.5 c 128,-1,9
 223 771 223 771 223 545 c 0,0,1
119 545 m 0,10,11
 119 811 119 811 248 959.5 c 128,-1,12
 377 1108 377 1108 602 1108 c 0,13,14
 821 1108 821 1108 950 961 c 1,15,16
 1022 985 1022 985 1057.5 1053 c 128,-1,17
 1093 1121 1093 1121 1096 1255 c 1,18,-1
 1196 1255 l 1,19,-1
 1208 1237 l 1,20,21
 1197 1093 1197 1093 1146 1012 c 128,-1,22
 1095 931 1095 931 999 893 c 1,23,24
 1081 756 1081 756 1081 545 c 0,25,26
 1081 279 1081 279 952 129.5 c 128,-1,27
 823 -20 823 -20 596 -20 c 0,28,29
 453 -20 453 -20 344 49 c 128,-1,30
 235 118 235 118 177 247 c 128,-1,31
 119 376 119 376 119 545 c 0,10,11
EndSplineSet
Validated: 1
EndChar

StartChar: Uhorn
Encoding: 431 431 325
Width: 1497
GlyphClass: 2
Flags: W
LayerCount: 2
Fore
SplineSet
190 520 m 2,0,-1
 190 1462 l 1,1,-1
 293 1462 l 1,2,-1
 293 516 l 2,3,4
 293 305 293 305 410 187.5 c 128,-1,5
 527 70 527 70 741 70 c 0,6,7
 950 70 950 70 1065 185.5 c 128,-1,8
 1180 301 1180 301 1180 506 c 2,9,-1
 1180 1462 l 1,10,-1
 1282 1462 l 1,11,-1
 1282 1255 l 1,12,13
 1371 1274 1371 1274 1412.5 1344 c 128,-1,14
 1454 1414 1454 1414 1454 1556 c 1,15,-1
 1559 1556 l 1,16,-1
 1571 1538 l 1,17,18
 1559 1371 1559 1371 1485.5 1283.5 c 128,-1,19
 1412 1196 1412 1196 1282 1171 c 1,20,-1
 1282 516 l 2,21,22
 1282 264 1282 264 1136 122 c 128,-1,23
 990 -20 990 -20 729 -20 c 0,24,25
 475 -20 475 -20 332.5 122.5 c 128,-1,26
 190 265 190 265 190 520 c 2,0,-1
EndSplineSet
Validated: 1
EndChar

StartChar: uhorn
Encoding: 432 432 326
Width: 1262
GlyphClass: 2
Flags: W
LayerCount: 2
Fore
SplineSet
170 377 m 2,0,-1
 170 1087 l 1,1,-1
 268 1087 l 1,2,-1
 268 383 l 2,3,4
 268 219 268 219 340.5 144.5 c 128,-1,5
 413 70 413 70 565 70 c 0,6,7
 754 70 754 70 841 169 c 128,-1,8
 928 268 928 268 928 487 c 2,9,-1
 928 1087 l 1,10,-1
 1026 1087 l 1,11,-1
 1026 965 l 1,12,13
 1092 976 1092 976 1130.5 1009 c 128,-1,14
 1169 1042 1169 1042 1185.5 1099 c 128,-1,15
 1202 1156 1202 1156 1202 1266 c 1,16,-1
 1303 1266 l 1,17,-1
 1315 1247 l 1,18,19
 1306 1124 1306 1124 1274 1057 c 128,-1,20
 1242 990 1242 990 1182.5 944 c 128,-1,21
 1123 898 1123 898 1026 881 c 1,22,-1
 1026 0 l 1,23,-1
 942 0 l 1,24,-1
 924 150 l 1,25,-1
 918 150 l 1,26,27
 866 68 866 68 774.5 24 c 128,-1,28
 683 -20 683 -20 565 -20 c 0,29,30
 364 -20 364 -20 267 78 c 128,-1,31
 170 176 170 176 170 377 c 2,0,-1
EndSplineSet
Validated: 1
EndChar

StartChar: Aringacute
Encoding: 506 506 328
Width: 1229
GlyphClass: 2
Flags: W
LayerCount: 2
Fore
SplineSet
561 1673 m 1,0,-1
 561 1690 l 1,1,2
 664 1801 664 1801 752 1962 c 1,3,-1
 893 1962 l 1,4,-1
 893 1946 l 1,5,6
 849 1885 849 1885 771.5 1805 c 128,-1,7
 694 1725 694 1725 631 1673 c 1,8,-1
 561 1673 l 1,0,-1
481 1411 m 0,9,10
 481 1345 481 1345 519 1307.5 c 128,-1,11
 557 1270 557 1270 618 1270 c 0,12,13
 680 1270 680 1270 718 1307.5 c 128,-1,14
 756 1345 756 1345 756 1411 c 0,15,16
 756 1475 756 1475 717 1512.5 c 128,-1,17
 678 1550 678 1550 618 1550 c 128,-1,18
 558 1550 558 1550 519.5 1512 c 128,-1,19
 481 1474 481 1474 481 1411 c 0,9,10
346 539 m 1,20,-1
 885 539 l 1,21,-1
 678 993 l 2,22,23
 654 1045 654 1045 618 1147 c 1,24,25
 595 1077 595 1077 555 987 c 2,26,-1
 346 539 l 1,20,-1
-12 0 m 1,27,-1
 553 1206 l 1,28,29
 485 1223 485 1223 443 1275 c 128,-1,30
 401 1327 401 1327 401 1411 c 0,31,32
 401 1505 401 1505 461 1563.5 c 128,-1,33
 521 1622 521 1622 618 1622 c 0,34,35
 716 1622 716 1622 776 1564 c 128,-1,36
 836 1506 836 1506 836 1411 c 0,37,38
 836 1330 836 1330 795 1278 c 128,-1,39
 754 1226 754 1226 686 1206 c 1,40,-1
 1239 0 l 1,41,-1
 1124 0 l 1,42,-1
 924 446 l 1,43,-1
 307 446 l 1,44,-1
 98 0 l 1,45,-1
 -12 0 l 1,27,-1
EndSplineSet
Validated: 1
EndChar

StartChar: aringacute
Encoding: 507 507 329
Width: 1085
GlyphClass: 2
Flags: W
LayerCount: 2
Fore
SplineSet
467 1700 m 1,0,-1
 467 1712 l 1,1,2
 515 1762 515 1762 568.5 1835 c 128,-1,3
 622 1908 622 1908 655 1962 c 1,4,-1
 793 1962 l 1,5,-1
 793 1948 l 1,6,7
 758 1903 758 1903 680.5 1828 c 128,-1,8
 603 1753 603 1753 535 1700 c 1,9,-1
 467 1700 l 1,0,-1
403 1413 m 0,10,11
 403 1347 403 1347 441 1309.5 c 128,-1,12
 479 1272 479 1272 541 1272 c 128,-1,13
 603 1272 603 1272 640.5 1309.5 c 128,-1,14
 678 1347 678 1347 678 1413 c 0,15,16
 678 1477 678 1477 639 1514.5 c 128,-1,17
 600 1552 600 1552 541 1552 c 0,18,19
 481 1552 481 1552 442 1514.5 c 128,-1,20
 403 1477 403 1477 403 1413 c 0,10,11
324 1413 m 0,21,22
 324 1507 324 1507 384 1565.5 c 128,-1,23
 444 1624 444 1624 541 1624 c 128,-1,24
 638 1624 638 1624 698 1565 c 128,-1,25
 758 1506 758 1506 758 1413 c 0,26,27
 758 1316 758 1316 698 1258 c 128,-1,28
 638 1200 638 1200 541 1200 c 128,-1,29
 444 1200 444 1200 384 1258 c 128,-1,30
 324 1316 324 1316 324 1413 c 0,21,22
203 285 m 0,31,32
 203 183 203 183 265.5 126.5 c 128,-1,33
 328 70 328 70 442 70 c 0,34,35
 616 70 616 70 716.5 169.5 c 128,-1,36
 817 269 817 269 817 446 c 2,37,-1
 817 553 l 1,38,-1
 627 545 l 2,39,40
 398 534 398 534 300.5 473.5 c 128,-1,41
 203 413 203 413 203 285 c 0,31,32
98 289 m 0,42,43
 98 448 98 448 230.5 536 c 128,-1,44
 363 624 363 624 614 629 c 2,45,-1
 821 635 l 1,46,-1
 821 707 l 2,47,48
 821 862 821 862 758 941 c 128,-1,49
 695 1020 695 1020 555 1020 c 0,50,51
 404 1020 404 1020 242 936 c 1,52,-1
 205 1022 l 1,53,54
 384 1106 384 1106 559 1106 c 0,55,56
 738 1106 738 1106 826.5 1013 c 128,-1,57
 915 920 915 920 915 723 c 2,58,-1
 915 0 l 1,59,-1
 842 0 l 1,60,-1
 817 172 l 1,61,-1
 809 172 l 1,62,63
 727 67 727 67 640.5 23.5 c 128,-1,64
 554 -20 554 -20 436 -20 c 0,65,66
 276 -20 276 -20 187 62 c 128,-1,67
 98 144 98 144 98 289 c 0,42,43
EndSplineSet
Validated: 1
EndChar

StartChar: uni0237
Encoding: 567 567 338
Width: 463
GlyphClass: 2
Flags: W
LayerCount: 2
Fore
SplineSet
-98 -381 m 1,0,1
 -29 -401 -29 -401 31 -401 c 0,2,3
 182 -401 182 -401 182 -225 c 2,4,-1
 182 1087 l 1,5,-1
 281 1087 l 1,6,-1
 281 -211 l 2,7,8
 281 -346 281 -346 217.5 -419 c 128,-1,9
 154 -492 154 -492 37 -492 c 0,10,11
 -43 -492 -43 -492 -98 -467 c 1,12,-1
 -98 -381 l 1,0,1
EndSplineSet
Validated: 1
EndChar

StartChar: circumflex
Encoding: 710 710 340
Width: 1182
GlyphClass: 2
Flags: W
LayerCount: 2
Fore
SplineSet
299 1241 m 1,0,-1
 299 1257 l 1,1,2
 361 1324 361 1324 430.5 1413 c 128,-1,3
 500 1502 500 1502 541 1569 c 1,4,-1
 639 1569 l 1,5,6
 707 1449 707 1449 881 1257 c 1,7,-1
 881 1241 l 1,8,-1
 811 1241 l 1,9,10
 689 1342 689 1342 590 1448 c 1,11,12
 482 1334 482 1334 369 1241 c 1,13,-1
 299 1241 l 1,0,-1
EndSplineSet
Validated: 1
EndChar

StartChar: caron
Encoding: 711 711 341
Width: 1182
GlyphClass: 2
Flags: W
LayerCount: 2
Fore
SplineSet
299 1552 m 1,0,-1
 299 1569 l 1,1,-1
 369 1569 l 1,2,3
 483 1475 483 1475 590 1362 c 1,4,5
 698 1476 698 1476 811 1569 c 1,6,-1
 881 1569 l 1,7,-1
 881 1552 l 1,8,9
 711 1364 711 1364 639 1241 c 1,10,-1
 541 1241 l 1,11,12
 465 1369 465 1369 299 1552 c 1,0,-1
EndSplineSet
Validated: 1
EndChar

StartChar: uni02C9
Encoding: 713 713 342
Width: 1141
GlyphClass: 2
Flags: W
LayerCount: 2
Fore
SplineSet
293 1251 m 1,0,-1
 293 1333 l 1,1,-1
 848 1333 l 1,2,-1
 848 1251 l 1,3,-1
 293 1251 l 1,0,-1
EndSplineSet
Validated: 1
EndChar

StartChar: breve
Encoding: 728 728 343
Width: 1182
GlyphClass: 2
Flags: W
LayerCount: 2
Fore
SplineSet
311 1487 m 1,0,-1
 393 1487 l 1,1,2
 407 1400 407 1400 453.5 1362.5 c 128,-1,3
 500 1325 500 1325 588 1325 c 128,-1,4
 676 1325 676 1325 722.5 1362.5 c 128,-1,5
 769 1400 769 1400 784 1487 c 1,6,-1
 864 1487 l 1,7,8
 834 1241 834 1241 586 1241 c 0,9,10
 333 1241 333 1241 311 1487 c 1,0,-1
EndSplineSet
Validated: 1
EndChar

StartChar: dotaccent
Encoding: 729 729 344
Width: 483
GlyphClass: 2
Flags: W
LayerCount: 2
Fore
SplineSet
178 1389 m 0,0,1
 178 1485 178 1485 242 1485 c 0,2,3
 273 1485 273 1485 290 1460 c 128,-1,4
 307 1435 307 1435 307 1389 c 0,5,6
 307 1344 307 1344 290 1318 c 128,-1,7
 273 1292 273 1292 242 1292 c 0,8,9
 178 1292 178 1292 178 1389 c 0,0,1
EndSplineSet
Validated: 1
EndChar

StartChar: ring
Encoding: 730 730 345
Width: 1182
GlyphClass: 2
Flags: W
LayerCount: 2
Fore
SplineSet
451 1456 m 0,0,1
 451 1390 451 1390 488.5 1352.5 c 128,-1,2
 526 1315 526 1315 588 1315 c 128,-1,3
 650 1315 650 1315 687.5 1352.5 c 128,-1,4
 725 1390 725 1390 725 1456 c 0,5,6
 725 1520 725 1520 686 1557.5 c 128,-1,7
 647 1595 647 1595 588 1595 c 0,8,9
 526 1595 526 1595 488.5 1557 c 128,-1,10
 451 1519 451 1519 451 1456 c 0,0,1
371 1456 m 0,11,12
 371 1550 371 1550 431 1608.5 c 128,-1,13
 491 1667 491 1667 588 1667 c 128,-1,14
 685 1667 685 1667 745 1608 c 128,-1,15
 805 1549 805 1549 805 1456 c 0,16,17
 805 1359 805 1359 745 1301 c 128,-1,18
 685 1243 685 1243 588 1243 c 128,-1,19
 491 1243 491 1243 431 1301 c 128,-1,20
 371 1359 371 1359 371 1456 c 0,11,12
EndSplineSet
Validated: 1
EndChar

StartChar: ogonek
Encoding: 731 731 346
Width: 356
GlyphClass: 2
Flags: W
LayerCount: 2
Fore
SplineSet
63 -264 m 0,0,1
 63 -194 63 -194 103 -125 c 128,-1,2
 143 -56 143 -56 215 0 c 1,3,-1
 305 0 l 1,4,5
 233 -63 233 -63 197.5 -119.5 c 128,-1,6
 162 -176 162 -176 162 -248 c 0,7,8
 162 -358 162 -358 268 -358 c 0,9,10
 317 -358 317 -358 350 -346 c 1,11,-1
 350 -430 l 1,12,13
 310 -446 310 -446 246 -446 c 0,14,15
 162 -446 162 -446 112.5 -398.5 c 128,-1,16
 63 -351 63 -351 63 -264 c 0,0,1
EndSplineSet
Validated: 1
EndChar

StartChar: tilde
Encoding: 732 732 347
Width: 1182
GlyphClass: 2
Flags: W
LayerCount: 2
Fore
SplineSet
283 1243 m 1,0,1
 293 1354 293 1354 346 1417.5 c 128,-1,2
 399 1481 399 1481 483 1481 c 0,3,4
 531 1481 531 1481 571 1456 c 128,-1,5
 611 1431 611 1431 653 1397 c 0,6,7
 687 1369 687 1369 719 1347 c 128,-1,8
 751 1325 751 1325 780 1325 c 0,9,10
 826 1325 826 1325 857 1361.5 c 128,-1,11
 888 1398 888 1398 905 1481 c 1,12,-1
 981 1481 l 1,13,14
 965 1365 965 1365 912 1304 c 128,-1,15
 859 1243 859 1243 780 1243 c 0,16,17
 744 1243 744 1243 705 1261.5 c 128,-1,18
 666 1280 666 1280 604 1333 c 0,19,20
 572 1359 572 1359 541.5 1379 c 128,-1,21
 511 1399 511 1399 479 1399 c 0,22,23
 434 1399 434 1399 404 1364.5 c 128,-1,24
 374 1330 374 1330 356 1243 c 1,25,-1
 283 1243 l 1,0,1
EndSplineSet
Validated: 1
EndChar

StartChar: hungarumlaut
Encoding: 733 733 348
Width: 1182
GlyphClass: 2
Flags: W
LayerCount: 2
Fore
SplineSet
596 1241 m 1,0,-1
 596 1257 l 1,1,2
 627 1290 627 1290 663 1347 c 128,-1,3
 699 1404 699 1404 784 1569 c 1,4,-1
 920 1569 l 1,5,-1
 920 1552 l 1,6,7
 785 1350 785 1350 666 1241 c 1,8,-1
 596 1241 l 1,0,-1
258 1241 m 1,9,-1
 258 1257 l 1,10,11
 289 1290 289 1290 325 1347 c 128,-1,12
 361 1404 361 1404 446 1569 c 1,13,-1
 582 1569 l 1,14,-1
 582 1552 l 1,15,16
 447 1350 447 1350 328 1241 c 1,17,-1
 258 1241 l 1,9,-1
EndSplineSet
Validated: 1
EndChar

StartChar: uni02F3
Encoding: 755 755 349
Width: 682
GlyphClass: 2
Flags: W
LayerCount: 2
Fore
SplineSet
203 -338 m 0,0,1
 203 -404 203 -404 240.5 -441.5 c 128,-1,2
 278 -479 278 -479 340 -479 c 128,-1,3
 402 -479 402 -479 439.5 -441.5 c 128,-1,4
 477 -404 477 -404 477 -338 c 0,5,6
 477 -274 477 -274 438 -236.5 c 128,-1,7
 399 -199 399 -199 340 -199 c 0,8,9
 278 -199 278 -199 240.5 -237 c 128,-1,10
 203 -275 203 -275 203 -338 c 0,0,1
123 -338 m 0,11,12
 123 -244 123 -244 183 -185.5 c 128,-1,13
 243 -127 243 -127 340 -127 c 128,-1,14
 437 -127 437 -127 497 -186 c 128,-1,15
 557 -245 557 -245 557 -338 c 0,16,17
 557 -435 557 -435 497 -493 c 128,-1,18
 437 -551 437 -551 340 -551 c 128,-1,19
 243 -551 243 -551 183 -493 c 128,-1,20
 123 -435 123 -435 123 -338 c 0,11,12
EndSplineSet
Validated: 1
EndChar

StartChar: hookabovecomb
Encoding: 777 777 353
Width: 0
GlyphClass: 2
Flags: W
LayerCount: 2
Fore
SplineSet
-748 1589 m 1,0,-1
 -748 1667 l 1,1,2
 -696 1679 -696 1679 -641 1679 c 0,3,4
 -533 1679 -533 1679 -472.5 1633.5 c 128,-1,5
 -412 1588 -412 1588 -412 1505 c 0,6,7
 -412 1365 -412 1365 -580 1329 c 1,8,-1
 -590 1208 l 1,9,-1
 -670 1208 l 1,10,-1
 -680 1386 l 1,11,12
 -591 1401 -591 1401 -550.5 1429 c 128,-1,13
 -510 1457 -510 1457 -510 1501 c 0,14,15
 -510 1549 -510 1549 -543.5 1573 c 128,-1,16
 -577 1597 -577 1597 -655 1597 c 0,17,18
 -703 1597 -703 1597 -748 1589 c 1,0,-1
EndSplineSet
Validated: 1
EndChar

StartChar: uni030F
Encoding: 783 783 354
Width: 0
GlyphClass: 2
Flags: W
LayerCount: 2
Fore
SplineSet
-674 1552 m 1,0,-1
 -674 1569 l 1,1,-1
 -539 1569 l 1,2,3
 -460 1415 -460 1415 -421 1353 c 128,-1,4
 -382 1291 -382 1291 -350 1257 c 1,5,-1
 -350 1241 l 1,6,-1
 -420 1241 l 1,7,8
 -477 1291 -477 1291 -551.5 1383.5 c 128,-1,9
 -626 1476 -626 1476 -674 1552 c 1,0,-1
-1012 1552 m 1,10,-1
 -1012 1569 l 1,11,-1
 -877 1569 l 1,12,13
 -801 1421 -801 1421 -761.5 1357 c 128,-1,14
 -722 1293 -722 1293 -688 1257 c 1,15,-1
 -688 1241 l 1,16,-1
 -758 1241 l 1,17,18
 -815 1291 -815 1291 -889.5 1383.5 c 128,-1,19
 -964 1476 -964 1476 -1012 1552 c 1,10,-1
EndSplineSet
Validated: 1
EndChar

StartChar: dotbelowcomb
Encoding: 803 803 355
Width: 0
GlyphClass: 2
Flags: W
LayerCount: 2
Fore
SplineSet
-662 -227 m 0,0,1
 -662 -131 -662 -131 -598 -131 c 0,2,3
 -567 -131 -567 -131 -549.5 -156 c 128,-1,4
 -532 -181 -532 -181 -532 -227 c 0,5,6
 -532 -272 -532 -272 -549.5 -298 c 128,-1,7
 -567 -324 -567 -324 -598 -324 c 0,8,9
 -662 -324 -662 -324 -662 -227 c 0,0,1
EndSplineSet
Validated: 1
EndChar

StartChar: tonos
Encoding: 900 900 356
Width: 1182
GlyphClass: 2
Flags: W
LayerCount: 2
Fore
SplineSet
530 1241 m 1,0,-1
 530 1257 l 1,1,2
 559 1332 559 1332 587 1441 c 128,-1,3
 615 1550 615 1550 629 1651 c 1,4,-1
 748 1651 l 1,5,-1
 748 1634 l 1,6,7
 730 1557 730 1557 685 1443 c 128,-1,8
 640 1329 640 1329 588 1241 c 1,9,-1
 530 1241 l 1,0,-1
EndSplineSet
Validated: 1
EndChar

StartChar: dieresistonos
Encoding: 901 901 357
Width: 1182
GlyphClass: 2
Flags: W
LayerCount: 2
Fore
SplineSet
745 1389 m 128,-1,1
 745 1475 745 1475 809 1475 c 0,2,3
 872 1475 872 1475 872 1389 c 128,-1,4
 872 1303 872 1303 809 1303 c 0,5,0
 745 1303 745 1303 745 1389 c 128,-1,1
526 1389 m 1,6,-1
 526 1405 l 1,7,8
 601 1569 601 1569 641 1716 c 1,9,-1
 758 1716 l 1,10,-1
 758 1698 l 1,11,12
 737 1646 737 1646 685.5 1553 c 128,-1,13
 634 1460 634 1460 584 1389 c 1,14,-1
 526 1389 l 1,6,-1
309 1389 m 128,-1,16
 309 1475 309 1475 373 1475 c 0,17,18
 436 1475 436 1475 436 1389 c 128,-1,19
 436 1303 436 1303 373 1303 c 0,20,15
 309 1303 309 1303 309 1389 c 128,-1,16
EndSplineSet
Validated: 1
EndChar

StartChar: Gamma
Encoding: 915 915 369
Width: 1028
GlyphClass: 2
Flags: W
LayerCount: 2
Fore
SplineSet
207 0 m 1,0,-1
 207 1462 l 1,1,-1
 1008 1462 l 1,2,-1
 1008 1368 l 1,3,-1
 309 1368 l 1,4,-1
 309 0 l 1,5,-1
 207 0 l 1,0,-1
EndSplineSet
Validated: 1
EndChar

StartChar: Theta
Encoding: 920 920 374
Width: 1565
GlyphClass: 2
Flags: W
LayerCount: 2
Fore
SplineSet
449 698 m 1,0,-1
 449 793 l 1,1,-1
 1114 793 l 1,2,-1
 1114 698 l 1,3,-1
 449 698 l 1,0,-1
240 733 m 0,4,5
 240 419 240 419 380 247.5 c 128,-1,6
 520 76 520 76 782 76 c 0,7,8
 1046 76 1046 76 1185.5 246 c 128,-1,9
 1325 416 1325 416 1325 733 c 0,10,11
 1325 1049 1325 1049 1185.5 1217.5 c 128,-1,12
 1046 1386 1046 1386 784 1386 c 0,13,14
 523 1386 523 1386 381.5 1216 c 128,-1,15
 240 1046 240 1046 240 733 c 0,4,5
129 735 m 0,16,17
 129 1084 129 1084 304.5 1284.5 c 128,-1,18
 480 1485 480 1485 784 1485 c 0,19,20
 1090 1485 1090 1485 1263 1283.5 c 128,-1,21
 1436 1082 1436 1082 1436 733 c 0,22,23
 1436 385 1436 385 1262 182.5 c 128,-1,24
 1088 -20 1088 -20 782 -20 c 0,25,26
 477 -20 477 -20 303 182.5 c 128,-1,27
 129 385 129 385 129 735 c 0,16,17
EndSplineSet
Validated: 1
EndChar

StartChar: Lambda
Encoding: 923 923 377
Width: 1229
GlyphClass: 2
Flags: W
LayerCount: 2
Fore
SplineSet
0 0 m 1,0,-1
 596 1468 l 1,1,-1
 645 1468 l 1,2,-1
 1229 0 l 1,3,-1
 1114 0 l 1,4,-1
 678 1120 l 2,5,6
 655 1180 655 1180 618 1292 c 1,7,8
 589 1192 589 1192 559 1118 c 2,9,-1
 113 0 l 1,10,-1
 0 0 l 1,0,-1
EndSplineSet
Validated: 1
EndChar

StartChar: Xi
Encoding: 926 926 380
Width: 1087
GlyphClass: 2
Flags: W
LayerCount: 2
Fore
SplineSet
164 721 m 1,0,-1
 164 815 l 1,1,-1
 924 815 l 1,2,-1
 924 721 l 1,3,-1
 164 721 l 1,0,-1
82 1368 m 1,4,-1
 82 1462 l 1,5,-1
 1006 1462 l 1,6,-1
 1006 1368 l 1,7,-1
 82 1368 l 1,4,-1
41 0 m 1,8,-1
 41 94 l 1,9,-1
 1047 94 l 1,10,-1
 1047 0 l 1,11,-1
 41 0 l 1,8,-1
EndSplineSet
Validated: 1
EndChar

StartChar: Pi
Encoding: 928 928 382
Width: 1462
GlyphClass: 2
Flags: W
LayerCount: 2
Fore
SplineSet
207 0 m 1,0,-1
 207 1462 l 1,1,-1
 1255 1462 l 1,2,-1
 1255 0 l 1,3,-1
 1153 0 l 1,4,-1
 1153 1366 l 1,5,-1
 309 1366 l 1,6,-1
 309 0 l 1,7,-1
 207 0 l 1,0,-1
EndSplineSet
Validated: 1
EndChar

StartChar: Sigma
Encoding: 931 931 384
Width: 1128
GlyphClass: 2
Flags: W
LayerCount: 2
Fore
SplineSet
61 0 m 1,0,-1
 61 84 l 1,1,-1
 594 760 l 1,2,-1
 74 1380 l 1,3,-1
 74 1462 l 1,4,-1
 1038 1462 l 1,5,-1
 1038 1368 l 1,6,-1
 391 1368 l 1,7,-1
 209 1370 l 1,8,-1
 723 766 l 1,9,-1
 193 94 l 1,10,-1
 1098 94 l 1,11,-1
 1098 0 l 1,12,-1
 61 0 l 1,0,-1
EndSplineSet
Validated: 1
EndChar

StartChar: Phi
Encoding: 934 934 387
Width: 1561
GlyphClass: 2
Flags: W
LayerCount: 2
Fore
SplineSet
831 289 m 1,0,-1
 846 289 l 2,1,2
 1082 289 1082 289 1210.5 413.5 c 128,-1,3
 1339 538 1339 538 1339 766 c 0,4,5
 1339 985 1339 985 1219 1102 c 128,-1,6
 1099 1219 1099 1219 874 1219 c 2,7,-1
 831 1219 l 1,8,-1
 831 289 l 1,0,-1
221 764 m 0,9,10
 221 537 221 537 349.5 413 c 128,-1,11
 478 289 478 289 713 289 c 2,12,-1
 729 289 l 1,13,-1
 729 1219 l 1,14,-1
 688 1219 l 2,15,16
 469 1219 469 1219 345 1097 c 128,-1,17
 221 975 221 975 221 764 c 0,9,10
111 758 m 0,18,19
 111 914 111 914 181 1039.5 c 128,-1,20
 251 1165 251 1165 382 1234 c 128,-1,21
 513 1303 513 1303 692 1303 c 2,22,-1
 729 1303 l 1,23,-1
 729 1483 l 1,24,-1
 831 1483 l 1,25,-1
 831 1303 l 1,26,-1
 874 1303 l 2,27,28
 1149 1303 1149 1303 1299.5 1162 c 128,-1,29
 1450 1021 1450 1021 1450 770 c 0,30,31
 1450 596 1450 596 1380.5 469 c 128,-1,32
 1311 342 1311 342 1174.5 273.5 c 128,-1,33
 1038 205 1038 205 842 205 c 2,34,-1
 831 205 l 1,35,-1
 831 -20 l 1,36,-1
 729 -20 l 1,37,-1
 729 205 l 1,38,-1
 711 205 l 2,39,40
 518 205 518 205 383.5 273 c 128,-1,41
 249 341 249 341 180 464 c 128,-1,42
 111 587 111 587 111 758 c 0,18,19
EndSplineSet
Validated: 1
EndChar

StartChar: Psi
Encoding: 936 936 389
Width: 1565
GlyphClass: 2
Flags: W
LayerCount: 2
Fore
SplineSet
123 979 m 2,0,-1
 123 1462 l 1,1,-1
 225 1462 l 1,2,-1
 225 983 l 2,3,4
 225 757 225 757 342 650 c 128,-1,5
 459 543 459 543 698 543 c 2,6,-1
 721 543 l 1,7,-1
 721 1462 l 1,8,-1
 823 1462 l 1,9,-1
 823 543 l 1,10,-1
 846 543 l 2,11,12
 1085 543 1085 543 1202 650 c 128,-1,13
 1319 757 1319 757 1319 983 c 2,14,-1
 1319 1462 l 1,15,-1
 1421 1462 l 1,16,-1
 1421 979 l 2,17,18
 1421 714 1421 714 1275 583.5 c 128,-1,19
 1129 453 1129 453 850 453 c 2,20,-1
 823 453 l 1,21,-1
 823 0 l 1,22,-1
 721 0 l 1,23,-1
 721 453 l 1,24,-1
 694 453 l 2,25,26
 414 453 414 453 268.5 583.5 c 128,-1,27
 123 714 123 714 123 979 c 2,0,-1
EndSplineSet
Validated: 1
EndChar

StartChar: Omega
Encoding: 937 937 390
Width: 1587
GlyphClass: 2
Flags: W
LayerCount: 2
Fore
SplineSet
82 0 m 1,0,-1
 82 94 l 1,1,-1
 489 94 l 1,2,3
 356 212 356 212 283.5 318.5 c 128,-1,4
 211 425 211 425 173 550.5 c 128,-1,5
 135 676 135 676 135 821 c 0,6,7
 135 1021 135 1021 215 1172 c 128,-1,8
 295 1323 295 1323 444.5 1404 c 128,-1,9
 594 1485 594 1485 793 1485 c 0,10,11
 1104 1485 1104 1485 1278 1311 c 128,-1,12
 1452 1137 1452 1137 1452 823 c 0,13,14
 1452 614 1452 614 1371.5 439 c 128,-1,15
 1291 264 1291 264 1102 94 c 1,16,-1
 1505 94 l 1,17,-1
 1505 0 l 1,18,-1
 940 0 l 1,19,-1
 940 72 l 1,20,21
 1155 247 1155 247 1248 422 c 128,-1,22
 1341 597 1341 597 1341 827 c 0,23,24
 1341 1089 1341 1089 1195 1241 c 128,-1,25
 1049 1393 1049 1393 793 1393 c 0,26,27
 542 1393 542 1393 394 1241.5 c 128,-1,28
 246 1090 246 1090 246 829 c 0,29,30
 246 603 246 603 336.5 431.5 c 128,-1,31
 427 260 427 260 649 72 c 1,32,-1
 649 0 l 1,33,-1
 82 0 l 1,0,-1
EndSplineSet
Validated: 1
EndChar

StartChar: alpha
Encoding: 945 945 398
Width: 1208
GlyphClass: 2
Flags: W
LayerCount: 2
Fore
SplineSet
223 541 m 0,0,1
 223 68 223 68 578 68 c 0,2,3
 758 68 758 68 843 176.5 c 128,-1,4
 928 285 928 285 928 530 c 2,5,-1
 928 565 l 2,6,7
 928 802 928 802 842.5 910 c 128,-1,8
 757 1018 757 1018 575 1018 c 0,9,10
 406 1018 406 1018 314.5 894.5 c 128,-1,11
 223 771 223 771 223 541 c 0,0,1
119 539 m 0,12,13
 119 814 119 814 239.5 961 c 128,-1,14
 360 1108 360 1108 586 1108 c 0,15,16
 714 1108 714 1108 802 1051.5 c 128,-1,17
 890 995 890 995 944 874 c 1,18,-1
 950 874 l 1,19,20
 954 926 954 926 968.5 993.5 c 128,-1,21
 983 1061 983 1061 993 1087 c 1,22,-1
 1067 1087 l 1,23,24
 1026 953 1026 953 1026 696 c 2,25,-1
 1026 201 l 2,26,27
 1026 59 1026 59 1116 59 c 0,28,29
 1153 59 1153 59 1180 70 c 1,30,-1
 1180 -2 l 1,31,32
 1151 -20 1151 -20 1098 -20 c 0,33,34
 952 -20 952 -20 934 168 c 1,35,-1
 926 168 l 1,36,37
 863 70 863 70 778 25 c 128,-1,38
 693 -20 693 -20 578 -20 c 0,39,40
 352 -20 352 -20 235.5 123 c 128,-1,41
 119 266 119 266 119 539 c 0,12,13
EndSplineSet
Validated: 1
EndChar

StartChar: beta
Encoding: 946 946 399
Width: 1245
GlyphClass: 2
Flags: W
LayerCount: 2
Fore
SplineSet
281 170 m 1,0,1
 390 112 390 112 475 89 c 128,-1,2
 560 66 560 66 651 66 c 0,3,4
 838 66 838 66 943.5 157 c 128,-1,5
 1049 248 1049 248 1049 412 c 0,6,7
 1049 776 1049 776 657 776 c 2,8,-1
 539 776 l 1,9,-1
 539 864 l 1,10,-1
 645 864 l 2,11,12
 809 864 809 864 894 945.5 c 128,-1,13
 979 1027 979 1027 979 1184 c 0,14,15
 979 1323 979 1323 892 1401 c 128,-1,16
 805 1479 805 1479 647 1479 c 0,17,18
 465 1479 465 1479 373 1382 c 128,-1,19
 281 1285 281 1285 281 1098 c 2,20,-1
 281 170 l 1,0,1
182 -492 m 1,21,-1
 182 1094 l 2,22,23
 182 1318 182 1318 303 1442.5 c 128,-1,24
 424 1567 424 1567 649 1567 c 0,25,26
 853 1567 853 1567 968 1465 c 128,-1,27
 1083 1363 1083 1363 1083 1182 c 0,28,29
 1083 1042 1083 1042 1010.5 949.5 c 128,-1,30
 938 857 938 857 797 831 c 1,31,-1
 797 825 l 1,32,33
 973 801 973 801 1058 701 c 128,-1,34
 1143 601 1143 601 1143 414 c 0,35,36
 1143 213 1143 213 1011 100.5 c 128,-1,37
 879 -12 879 -12 653 -12 c 0,38,39
 470 -12 470 -12 281 88 c 1,40,-1
 281 -492 l 1,41,-1
 182 -492 l 1,21,-1
EndSplineSet
Validated: 1
EndChar

StartChar: gamma
Encoding: 947 947 400
Width: 983
GlyphClass: 2
Flags: W
LayerCount: 2
Fore
SplineSet
10 1087 m 1,0,-1
 113 1087 l 1,1,-1
 381 442 l 1,2,-1
 506 129 l 1,3,-1
 512 129 l 1,4,-1
 598 367 l 1,5,-1
 870 1087 l 1,6,-1
 973 1087 l 1,7,-1
 569 47 l 2,8,9
 525 -69 525 -69 494.5 -222 c 128,-1,10
 464 -375 464 -375 459 -492 c 1,11,-1
 360 -492 l 1,12,13
 360 -400 360 -400 390 -253.5 c 128,-1,14
 420 -107 420 -107 463 12 c 1,15,-1
 10 1087 l 1,0,-1
EndSplineSet
Validated: 1
EndChar

StartChar: delta
Encoding: 948 948 401
Width: 1190
GlyphClass: 2
Flags: W
LayerCount: 2
Fore
SplineSet
221 434 m 0,0,1
 221 268 221 268 322.5 168 c 128,-1,2
 424 68 424 68 596 68 c 0,3,4
 773 68 773 68 870 172.5 c 128,-1,5
 967 277 967 277 967 473 c 0,6,7
 967 608 967 608 896.5 705 c 128,-1,8
 826 802 826 802 659 887 c 1,9,10
 511 851 511 851 436.5 811.5 c 128,-1,11
 362 772 362 772 316 719.5 c 128,-1,12
 270 667 270 667 245.5 596.5 c 128,-1,13
 221 526 221 526 221 434 c 0,0,1
117 434 m 0,14,15
 117 629 117 629 226.5 753 c 128,-1,16
 336 877 336 877 573 940 c 1,17,18
 415 1029 415 1029 353 1109.5 c 128,-1,19
 291 1190 291 1190 291 1290 c 0,20,21
 291 1412 291 1412 384.5 1489.5 c 128,-1,22
 478 1567 478 1567 627 1567 c 0,23,24
 724 1567 724 1567 814.5 1546.5 c 128,-1,25
 905 1526 905 1526 1028 1466 c 1,26,-1
 983 1380 l 1,27,28
 871 1437 871 1437 791.5 1458 c 128,-1,29
 712 1479 712 1479 629 1479 c 0,30,31
 520 1479 520 1479 456.5 1428.5 c 128,-1,32
 393 1378 393 1378 393 1294 c 128,-1,33
 393 1210 393 1210 446 1152.5 c 128,-1,34
 499 1095 499 1095 684 987 c 0,35,36
 850 892 850 892 925 821.5 c 128,-1,37
 1000 751 1000 751 1035.5 668 c 128,-1,38
 1071 585 1071 585 1071 471 c 0,39,40
 1071 242 1071 242 944.5 111 c 128,-1,41
 818 -20 818 -20 594 -20 c 0,42,43
 377 -20 377 -20 247 104.5 c 128,-1,44
 117 229 117 229 117 434 c 0,14,15
EndSplineSet
Validated: 1
EndChar

StartChar: epsilon
Encoding: 949 949 402
Width: 928
GlyphClass: 2
Flags: W
LayerCount: 2
Fore
SplineSet
94 287 m 0,0,1
 94 511 94 511 342 571 c 1,2,-1
 342 580 l 1,3,4
 127 643 127 643 127 819 c 0,5,6
 127 952 127 952 230 1030 c 128,-1,7
 333 1108 333 1108 512 1108 c 0,8,9
 608 1108 608 1108 686.5 1092.5 c 128,-1,10
 765 1077 765 1077 852 1040 c 1,11,-1
 815 956 l 1,12,13
 667 1020 667 1020 512 1020 c 0,14,15
 370 1020 370 1020 300.5 967 c 128,-1,16
 231 914 231 914 231 817 c 0,17,18
 231 618 231 618 557 618 c 2,19,-1
 672 618 l 1,20,-1
 672 532 l 1,21,-1
 532 532 l 2,22,23
 363 532 363 532 281 469.5 c 128,-1,24
 199 407 199 407 199 295 c 0,25,26
 199 190 199 190 286 130 c 128,-1,27
 373 70 373 70 530 70 c 0,28,29
 606 70 606 70 670 84 c 128,-1,30
 734 98 734 98 844 150 c 1,31,-1
 844 57 l 1,32,33
 709 -20 709 -20 522 -20 c 0,34,35
 320 -20 320 -20 207 61 c 128,-1,36
 94 142 94 142 94 287 c 0,0,1
EndSplineSet
Validated: 1
EndChar

StartChar: zeta
Encoding: 950 950 403
Width: 956
GlyphClass: 2
Flags: W
LayerCount: 2
Fore
SplineSet
119 459 m 0,0,1
 119 559 119 559 144.5 651 c 128,-1,2
 170 743 170 743 216 830.5 c 128,-1,3
 262 918 262 918 328.5 1005.5 c 128,-1,4
 395 1093 395 1093 482.5 1187 c 128,-1,5
 570 1281 570 1281 776 1477 c 1,6,7
 671 1470 671 1470 412 1470 c 2,8,-1
 182 1470 l 1,9,-1
 182 1556 l 1,10,-1
 899 1556 l 1,11,-1
 899 1481 l 1,12,13
 643 1245 643 1245 497.5 1073.5 c 128,-1,14
 352 902 352 902 287.5 760 c 128,-1,15
 223 618 223 618 223 463 c 0,16,17
 223 350 223 350 252 286.5 c 128,-1,18
 281 223 281 223 347 183.5 c 128,-1,19
 413 144 413 144 545 115 c 0,20,21
 698 82 698 82 761.5 53 c 128,-1,22
 825 24 825 24 854 -19 c 128,-1,23
 883 -62 883 -62 883 -129 c 0,24,25
 883 -189 883 -189 858 -252 c 128,-1,26
 833 -315 833 -315 770 -401 c 1,27,-1
 674 -401 l 1,28,29
 788 -246 788 -246 788 -143 c 0,30,31
 788 -94 788 -94 762 -66.5 c 128,-1,32
 736 -39 736 -39 677 -17 c 128,-1,33
 618 5 618 5 512 25 c 0,34,35
 303 63 303 63 211 167 c 128,-1,36
 119 271 119 271 119 459 c 0,0,1
EndSplineSet
Validated: 1
EndChar

StartChar: eta
Encoding: 951 951 404
Width: 1208
GlyphClass: 2
Flags: W
LayerCount: 2
Fore
SplineSet
182 0 m 1,0,-1
 182 1087 l 1,1,-1
 266 1087 l 1,2,-1
 285 938 l 1,3,-1
 291 938 l 1,4,5
 345 1025 345 1025 438 1066.5 c 128,-1,6
 531 1108 531 1108 643 1108 c 0,7,8
 844 1108 844 1108 941 1009 c 128,-1,9
 1038 910 1038 910 1038 711 c 2,10,-1
 1038 -492 l 1,11,-1
 940 -492 l 1,12,-1
 940 705 l 2,13,14
 940 869 940 869 867.5 943.5 c 128,-1,15
 795 1018 795 1018 643 1018 c 0,16,17
 454 1018 454 1018 367.5 918.5 c 128,-1,18
 281 819 281 819 281 600 c 2,19,-1
 281 0 l 1,20,-1
 182 0 l 1,0,-1
EndSplineSet
Validated: 1
EndChar

StartChar: theta
Encoding: 952 952 405
Width: 1167
GlyphClass: 2
Flags: W
LayerCount: 2
Fore
SplineSet
217 846 m 1,0,-1
 948 846 l 1,1,2
 936 1174 936 1174 845 1332.5 c 128,-1,3
 754 1491 754 1491 580 1491 c 0,4,5
 404 1491 404 1491 316.5 1326.5 c 128,-1,6
 229 1162 229 1162 217 846 c 1,0,-1
217 760 m 1,7,8
 229 68 229 68 582 68 c 128,-1,9
 935 68 935 68 950 760 c 1,10,-1
 217 760 l 1,7,8
119 780 m 0,11,12
 119 1172 119 1172 238.5 1375.5 c 128,-1,13
 358 1579 358 1579 586 1579 c 0,14,15
 1049 1579 1049 1579 1049 782 c 0,16,17
 1049 383 1049 383 931 181.5 c 128,-1,18
 813 -20 813 -20 580 -20 c 0,19,20
 119 -20 119 -20 119 780 c 0,11,12
EndSplineSet
Validated: 1
EndChar

StartChar: iota
Encoding: 953 953 406
Width: 629
GlyphClass: 2
Flags: W
LayerCount: 2
Fore
SplineSet
166 303 m 2,0,-1
 166 1087 l 1,1,-1
 264 1087 l 1,2,-1
 264 313 l 2,3,4
 264 179 264 179 310.5 123.5 c 128,-1,5
 357 68 357 68 463 68 c 0,6,7
 528 68 528 68 592 84 c 1,8,-1
 592 0 l 1,9,10
 572 -7 572 -7 531 -13.5 c 128,-1,11
 490 -20 490 -20 453 -20 c 0,12,13
 301 -20 301 -20 233.5 60 c 128,-1,14
 166 140 166 140 166 303 c 2,0,-1
EndSplineSet
Validated: 1
EndChar

StartChar: lambda
Encoding: 955 955 408
Width: 1030
GlyphClass: 2
Flags: W
LayerCount: 2
Fore
SplineSet
-12 0 m 1,0,-1
 465 1092 l 1,1,-1
 410 1257 l 2,2,3
 375 1364 375 1364 350 1405.5 c 128,-1,4
 325 1447 325 1447 292 1468 c 128,-1,5
 259 1489 259 1489 211 1489 c 0,6,7
 167 1489 167 1489 109 1477 c 1,8,-1
 109 1552 l 1,9,10
 172 1569 172 1569 223 1569 c 0,11,12
 291 1569 291 1569 335 1546 c 128,-1,13
 379 1523 379 1523 413 1469.5 c 128,-1,14
 447 1416 447 1416 494 1284 c 2,15,-1
 895 145 l 2,16,17
 910 102 910 102 928 80.5 c 128,-1,18
 946 59 946 59 975 59 c 0,19,20
 1006 59 1006 59 1030 70 c 1,21,-1
 1030 -4 l 1,22,23
 1000 -20 1000 -20 952 -20 c 0,24,25
 900 -20 900 -20 866.5 12 c 128,-1,26
 833 44 833 44 807 117 c 2,27,-1
 635 606 l 2,28,29
 539 886 539 886 512 995 c 1,30,-1
 508 995 l 1,31,32
 476 900 476 900 431.5 793 c 128,-1,33
 387 686 387 686 92 0 c 1,34,-1
 -12 0 l 1,0,-1
EndSplineSet
Validated: 1
EndChar

StartChar: nu
Encoding: 957 957 410
Width: 1051
GlyphClass: 2
Flags: W
LayerCount: 2
Fore
SplineSet
-2 1087 m 1,0,-1
 100 1087 l 1,1,2
 390 306 390 306 418 228.5 c 128,-1,3
 446 151 446 151 467 88 c 1,4,-1
 473 88 l 1,5,6
 872 457 872 457 872 1087 c 1,7,-1
 967 1087 l 1,8,9
 967 735 967 735 857 479.5 c 128,-1,10
 747 224 747 224 508 0 c 1,11,-1
 406 0 l 1,12,-1
 -2 1087 l 1,0,-1
EndSplineSet
Validated: 1
EndChar

StartChar: xi
Encoding: 958 958 411
Width: 940
GlyphClass: 2
Flags: W
LayerCount: 2
Fore
SplineSet
119 422 m 0,0,1
 119 566 119 566 199 669.5 c 128,-1,2
 279 773 279 773 424 815 c 1,3,-1
 424 825 l 1,4,5
 303 861 303 861 245.5 932 c 128,-1,6
 188 1003 188 1003 188 1114 c 0,7,8
 188 1245 188 1245 273 1340.5 c 128,-1,9
 358 1436 358 1436 518 1479 c 1,10,11
 449 1470 449 1470 270 1470 c 2,12,-1
 182 1470 l 1,13,-1
 182 1556 l 1,14,-1
 852 1556 l 1,15,-1
 852 1477 l 1,16,-1
 836 1477 l 2,17,18
 681 1477 681 1477 550 1430 c 128,-1,19
 419 1383 419 1383 349 1301.5 c 128,-1,20
 279 1220 279 1220 279 1118 c 0,21,22
 279 864 279 864 659 864 c 2,23,-1
 809 864 l 1,24,-1
 809 780 l 1,25,-1
 659 780 l 2,26,27
 459 780 459 780 341 683.5 c 128,-1,28
 223 587 223 587 223 428 c 0,29,30
 223 335 223 335 255.5 275.5 c 128,-1,31
 288 216 288 216 354 178.5 c 128,-1,32
 420 141 420 141 584 106 c 0,33,34
 758 68 758 68 820.5 17 c 128,-1,35
 883 -34 883 -34 883 -131 c 0,36,37
 883 -250 883 -250 770 -401 c 1,38,-1
 674 -401 l 1,39,40
 788 -244 788 -244 788 -145 c 0,41,42
 788 -95 788 -95 761.5 -66 c 128,-1,43
 735 -37 735 -37 676.5 -16 c 128,-1,44
 618 5 618 5 512 25 c 0,45,46
 305 63 305 63 212 162 c 128,-1,47
 119 261 119 261 119 422 c 0,0,1
EndSplineSet
Validated: 1
EndChar

StartChar: pi
Encoding: 960 960 413
Width: 1253
GlyphClass: 2
Flags: W
LayerCount: 2
Fore
SplineSet
25 1001 m 1,0,-1
 25 1059 l 1,1,-1
 190 1087 l 1,2,-1
 1196 1087 l 1,3,-1
 1196 1001 l 1,4,-1
 975 1001 l 1,5,-1
 975 223 l 2,6,7
 975 68 975 68 1085 68 c 0,8,9
 1127 68 1127 68 1153 80 c 1,10,-1
 1153 -4 l 1,11,12
 1116 -20 1116 -20 1071 -20 c 0,13,14
 980 -20 980 -20 928.5 38 c 128,-1,15
 877 96 877 96 877 209 c 2,16,-1
 877 1001 l 1,17,-1
 344 1001 l 1,18,-1
 344 0 l 1,19,-1
 246 0 l 1,20,-1
 246 1001 l 1,21,-1
 25 1001 l 1,0,-1
EndSplineSet
Validated: 1
EndChar

StartChar: rho
Encoding: 961 961 414
Width: 1196
GlyphClass: 2
Flags: W
LayerCount: 2
Fore
SplineSet
274 190 m 1,0,1
 342 129 342 129 416.5 98.5 c 128,-1,2
 491 68 491 68 588 68 c 0,3,4
 783 68 783 68 878 185.5 c 128,-1,5
 973 303 973 303 973 547 c 0,6,7
 973 779 973 779 887.5 898.5 c 128,-1,8
 802 1018 802 1018 618 1018 c 0,9,10
 439 1018 439 1018 356.5 907.5 c 128,-1,11
 274 797 274 797 274 563 c 2,12,-1
 274 190 l 1,0,1
176 -492 m 1,13,-1
 176 567 l 2,14,15
 176 835 176 835 290 971.5 c 128,-1,16
 404 1108 404 1108 627 1108 c 0,17,18
 848 1108 848 1108 962.5 966 c 128,-1,19
 1077 824 1077 824 1077 547 c 0,20,21
 1077 268 1077 268 952.5 124 c 128,-1,22
 828 -20 828 -20 586 -20 c 0,23,24
 502 -20 502 -20 418.5 6.5 c 128,-1,25
 335 33 335 33 270 86 c 1,26,-1
 268 86 l 1,27,-1
 271 -8 l 1,28,-1
 274 -195 l 1,29,-1
 274 -492 l 1,30,-1
 176 -492 l 1,13,-1
EndSplineSet
Validated: 1
EndChar

StartChar: sigma1
Encoding: 962 962 415
Width: 973
GlyphClass: 2
Flags: W
LayerCount: 2
Fore
SplineSet
119 508 m 0,0,1
 119 794 119 794 253 951 c 128,-1,2
 387 1108 387 1108 633 1108 c 0,3,4
 771 1108 771 1108 901 1059 c 1,5,-1
 874 971 l 1,6,7
 805 994 805 994 738 1006 c 128,-1,8
 671 1018 671 1018 629 1018 c 0,9,10
 223 1018 223 1018 223 514 c 0,11,12
 223 373 223 373 258 301 c 128,-1,13
 293 229 293 229 372 181 c 128,-1,14
 451 133 451 133 590 104 c 0,15,16
 751 70 751 70 817 18 c 128,-1,17
 883 -34 883 -34 883 -129 c 0,18,19
 883 -173 883 -173 870.5 -214.5 c 128,-1,20
 858 -256 858 -256 839.5 -293 c 128,-1,21
 821 -330 821 -330 770 -401 c 1,22,-1
 674 -401 l 1,23,24
 729 -327 729 -327 758.5 -259 c 128,-1,25
 788 -191 788 -191 788 -141 c 0,26,27
 788 -76 788 -76 729 -41 c 128,-1,28
 670 -6 670 -6 522 23 c 0,29,30
 365 54 365 54 280.5 115 c 128,-1,31
 196 176 196 176 157.5 275.5 c 128,-1,32
 119 375 119 375 119 508 c 0,0,1
EndSplineSet
Validated: 1
EndChar

StartChar: sigma
Encoding: 963 963 416
Width: 1202
GlyphClass: 2
Flags: W
LayerCount: 2
Fore
SplineSet
223 514 m 0,0,1
 223 305 223 305 320 187.5 c 128,-1,2
 417 70 417 70 596 70 c 0,3,4
 773 70 773 70 871 186 c 128,-1,5
 969 302 969 302 969 504 c 0,6,7
 969 801 969 801 788 1001 c 1,8,-1
 709 1001 l 2,9,10
 463 1001 463 1001 343 882 c 128,-1,11
 223 763 223 763 223 514 c 0,0,1
119 514 m 0,12,13
 119 796 119 796 268.5 941.5 c 128,-1,14
 418 1087 418 1087 705 1087 c 2,15,-1
 1153 1087 l 1,16,-1
 1153 1001 l 1,17,-1
 899 1001 l 1,18,19
 1073 801 1073 801 1073 518 c 0,20,21
 1073 269 1073 269 945.5 124.5 c 128,-1,22
 818 -20 818 -20 592 -20 c 0,23,24
 370 -20 370 -20 244.5 122.5 c 128,-1,25
 119 265 119 265 119 514 c 0,12,13
EndSplineSet
Validated: 1
EndChar

StartChar: tau
Encoding: 964 964 417
Width: 913
GlyphClass: 2
Flags: W
LayerCount: 2
Fore
SplineSet
20 1001 m 1,0,-1
 20 1059 l 1,1,-1
 182 1087 l 1,2,-1
 848 1087 l 1,3,-1
 848 1001 l 1,4,-1
 418 1001 l 1,5,-1
 418 324 l 2,6,7
 418 193 418 193 472.5 129.5 c 128,-1,8
 527 66 527 66 647 66 c 0,9,10
 722 66 722 66 793 86 c 1,11,-1
 793 2 l 1,12,13
 736 -20 736 -20 625 -20 c 0,14,15
 472 -20 472 -20 394.5 65 c 128,-1,16
 317 150 317 150 317 311 c 2,17,-1
 317 1001 l 1,18,-1
 20 1001 l 1,0,-1
EndSplineSet
Validated: 1
EndChar

StartChar: upsilon
Encoding: 965 965 418
Width: 1219
GlyphClass: 2
Flags: W
LayerCount: 2
Fore
SplineSet
166 492 m 2,0,-1
 166 1087 l 1,1,-1
 264 1087 l 1,2,-1
 264 481 l 2,3,4
 264 280 264 280 346.5 174 c 128,-1,5
 429 68 429 68 610 68 c 0,6,7
 799 68 799 68 892 200 c 128,-1,8
 985 332 985 332 985 604 c 0,9,10
 985 731 985 731 972 841 c 128,-1,11
 959 951 959 951 926 1087 c 1,12,-1
 1024 1087 l 1,13,14
 1055 971 1055 971 1070 855.5 c 128,-1,15
 1085 740 1085 740 1085 596 c 0,16,17
 1085 278 1085 278 963.5 129 c 128,-1,18
 842 -20 842 -20 602 -20 c 0,19,20
 383 -20 383 -20 274.5 105 c 128,-1,21
 166 230 166 230 166 492 c 2,0,-1
EndSplineSet
Validated: 1
EndChar

StartChar: phi
Encoding: 966 966 419
Width: 1389
GlyphClass: 2
Flags: W
LayerCount: 2
Fore
SplineSet
735 68 m 1,0,1
 863 79 863 79 961.5 143.5 c 128,-1,2
 1060 208 1060 208 1112.5 319 c 128,-1,3
 1165 430 1165 430 1165 580 c 0,4,5
 1165 784 1165 784 1095.5 901 c 128,-1,6
 1026 1018 1026 1018 913 1018 c 0,7,8
 825 1018 825 1018 780 948.5 c 128,-1,9
 735 879 735 879 735 752 c 2,10,-1
 735 68 l 1,0,1
119 553 m 0,11,12
 119 843 119 843 319 1090 c 1,13,-1
 399 1034 l 1,14,15
 297 896 297 896 260 786 c 128,-1,16
 223 676 223 676 223 553 c 0,17,18
 223 332 223 332 326 209 c 128,-1,19
 429 86 429 86 637 68 c 1,20,-1
 637 750 l 2,21,22
 637 1108 637 1108 920 1108 c 0,23,24
 1085 1108 1085 1108 1177.5 967.5 c 128,-1,25
 1270 827 1270 827 1270 582 c 0,26,27
 1270 402 1270 402 1204 270.5 c 128,-1,28
 1138 139 1138 139 1017.5 65 c 128,-1,29
 897 -9 897 -9 735 -20 c 1,30,-1
 735 -492 l 1,31,-1
 637 -492 l 1,32,-1
 637 -20 l 1,33,34
 381 -3 381 -3 250 141.5 c 128,-1,35
 119 286 119 286 119 553 c 0,11,12
EndSplineSet
Validated: 1
EndChar

StartChar: chi
Encoding: 967 967 420
Width: 1053
GlyphClass: 2
Flags: W
LayerCount: 2
Fore
SplineSet
-20 -492 m 1,0,-1
 457 334 l 1,1,-1
 229 897 l 2,2,3
 202 964 202 964 176 993 c 128,-1,4
 150 1022 150 1022 115 1022 c 0,5,6
 86 1022 86 1022 49 1014 c 1,7,-1
 49 1085 l 1,8,9
 95 1102 95 1102 143 1102 c 0,10,11
 183 1102 183 1102 211 1087.5 c 128,-1,12
 239 1073 239 1073 261 1044 c 128,-1,13
 283 1015 283 1015 303 967 c 128,-1,14
 323 919 323 919 520 422 c 1,15,-1
 864 1087 l 1,16,-1
 975 1087 l 1,17,-1
 569 322 l 1,18,-1
 762 -150 l 2,19,20
 816 -284 816 -284 841 -328 c 128,-1,21
 866 -372 866 -372 892 -391 c 128,-1,22
 918 -410 918 -410 954 -410 c 0,23,24
 996 -410 996 -410 1034 -401 c 1,25,-1
 1034 -477 l 1,26,27
 997 -492 997 -492 938 -492 c 0,28,29
 880 -492 880 -492 839.5 -467.5 c 128,-1,30
 799 -443 799 -443 765.5 -390.5 c 128,-1,31
 732 -338 732 -338 676 -197 c 2,32,-1
 506 231 l 1,33,-1
 92 -492 l 1,34,-1
 -20 -492 l 1,0,-1
EndSplineSet
Validated: 1
EndChar

StartChar: psi
Encoding: 968 968 421
Width: 1477
GlyphClass: 2
Flags: W
LayerCount: 2
Fore
SplineSet
166 549 m 2,0,-1
 166 1087 l 1,1,-1
 264 1087 l 1,2,-1
 264 547 l 2,3,4
 264 326 264 326 374 206.5 c 128,-1,5
 484 87 484 87 690 74 c 1,6,-1
 690 1554 l 1,7,-1
 788 1554 l 1,8,-1
 788 74 l 1,9,10
 1012 91 1012 91 1127.5 221.5 c 128,-1,11
 1243 352 1243 352 1243 586 c 0,12,13
 1243 712 1243 712 1231.5 822.5 c 128,-1,14
 1220 933 1220 933 1184 1087 c 1,15,-1
 1280 1087 l 1,16,17
 1343 861 1343 861 1343 596 c 0,18,19
 1343 318 1343 318 1200.5 158.5 c 128,-1,20
 1058 -1 1058 -1 788 -18 c 1,21,-1
 788 -492 l 1,22,-1
 690 -492 l 1,23,-1
 690 -18 l 1,24,25
 433 -6 433 -6 299.5 137.5 c 128,-1,26
 166 281 166 281 166 549 c 2,0,-1
EndSplineSet
Validated: 1
EndChar

StartChar: omega
Encoding: 969 969 422
Width: 1503
GlyphClass: 2
Flags: W
LayerCount: 2
Fore
SplineSet
119 522 m 0,0,1
 119 683 119 683 148 817 c 128,-1,2
 177 951 177 951 242 1087 c 1,3,-1
 344 1087 l 1,4,5
 278 933 278 933 250.5 800.5 c 128,-1,6
 223 668 223 668 223 518 c 0,7,8
 223 299 223 299 290 184.5 c 128,-1,9
 357 70 357 70 481 70 c 0,10,11
 588 70 588 70 645 144.5 c 128,-1,12
 702 219 702 219 702 360 c 2,13,-1
 702 684 l 1,14,-1
 801 684 l 1,15,-1
 801 360 l 2,16,17
 801 224 801 224 859.5 147 c 128,-1,18
 918 70 918 70 1028 70 c 0,19,20
 1152 70 1152 70 1216 186 c 128,-1,21
 1280 302 1280 302 1280 518 c 0,22,23
 1280 671 1280 671 1252.5 801.5 c 128,-1,24
 1225 932 1225 932 1159 1087 c 1,25,-1
 1262 1087 l 1,26,27
 1325 955 1325 955 1354.5 820.5 c 128,-1,28
 1384 686 1384 686 1384 522 c 0,29,30
 1384 264 1384 264 1293 122 c 128,-1,31
 1202 -20 1202 -20 1034 -20 c 0,32,33
 921 -20 921 -20 857 31.5 c 128,-1,34
 793 83 793 83 758 178 c 1,35,-1
 748 178 l 1,36,37
 709 75 709 75 643.5 27.5 c 128,-1,38
 578 -20 578 -20 473 -20 c 0,39,40
 305 -20 305 -20 212 120 c 128,-1,41
 119 260 119 260 119 522 c 0,0,1
EndSplineSet
Validated: 1
EndChar

StartChar: theta1
Encoding: 977 977 428
Width: 1208
GlyphClass: 2
Flags: W
LayerCount: 2
Fore
SplineSet
344 1278 m 0,0,1
 344 1121 344 1121 495.5 1037.5 c 128,-1,2
 647 954 647 954 930 952 c 1,3,4
 898 1204 898 1204 802.5 1346.5 c 128,-1,5
 707 1489 707 1489 571 1489 c 0,6,7
 463 1489 463 1489 403.5 1434 c 128,-1,8
 344 1379 344 1379 344 1278 c 0,0,1
10 825 m 1,9,10
 72 856 72 856 145 856 c 0,11,12
 225 856 225 856 269 808.5 c 128,-1,13
 313 761 313 761 313 668 c 0,14,15
 313 616 313 616 298 510 c 0,16,17
 283 403 283 403 283 324 c 0,18,19
 283 70 283 70 541 70 c 0,20,21
 942 70 942 70 942 756 c 0,22,23
 942 812 942 812 938 864 c 1,24,25
 606 867 606 867 427 972 c 128,-1,26
 248 1077 248 1077 248 1272 c 0,27,28
 248 1415 248 1415 333.5 1497 c 128,-1,29
 419 1579 419 1579 565 1579 c 0,30,31
 752 1579 752 1579 874 1417.5 c 128,-1,32
 996 1256 996 1256 1036 952 c 1,33,-1
 1178 952 l 1,34,-1
 1178 862 l 1,35,-1
 1042 862 l 1,36,37
 1047 797 1047 797 1047 758 c 0,38,39
 1047 383 1047 383 917 181.5 c 128,-1,40
 787 -20 787 -20 545 -20 c 0,41,42
 366 -20 366 -20 273 67.5 c 128,-1,43
 180 155 180 155 180 330 c 0,44,45
 180 392 180 392 196 512 c 0,46,47
 211 631 211 631 211 668 c 0,48,49
 211 723 211 723 188.5 747.5 c 128,-1,50
 166 772 166 772 131 772 c 0,51,52
 92 772 92 772 37 750 c 1,53,-1
 10 825 l 1,9,10
EndSplineSet
Validated: 1
EndChar

StartChar: Upsilon1
Encoding: 978 978 429
Width: 1104
GlyphClass: 2
Flags: W
LayerCount: 2
Fore
SplineSet
0 1462 m 1,0,-1
 117 1462 l 1,1,-1
 543 662 l 1,2,-1
 593 775 l 2,3,4
 733 1095 733 1095 803 1236 c 128,-1,5
 873 1377 873 1377 924 1426 c 128,-1,6
 975 1475 975 1475 1042 1475 c 0,7,8
 1073 1475 1073 1475 1104 1464 c 1,9,-1
 1104 1374 l 1,10,11
 1078 1380 1078 1380 1053 1380 c 0,12,13
 1011 1380 1011 1380 974.5 1336.5 c 128,-1,14
 938 1293 938 1293 878.5 1174.5 c 128,-1,15
 819 1056 819 1056 748.5 900 c 128,-1,16
 678 744 678 744 594 543 c 1,17,-1
 594 0 l 1,18,-1
 489 0 l 1,19,-1
 489 557 l 1,20,-1
 0 1462 l 1,0,-1
EndSplineSet
Validated: 1
EndChar

StartChar: omega1
Encoding: 982 982 430
Width: 1587
GlyphClass: 2
Flags: W
LayerCount: 2
Fore
SplineSet
246 432 m 0,0,1
 246 247 246 247 308.5 158.5 c 128,-1,2
 371 70 371 70 502 70 c 0,3,4
 611 70 611 70 668 146 c 128,-1,5
 725 222 725 222 725 354 c 2,6,-1
 725 575 l 1,7,-1
 823 575 l 1,8,-1
 823 354 l 2,9,10
 823 220 823 220 883.5 145 c 128,-1,11
 944 70 944 70 1051 70 c 0,12,13
 1303 70 1303 70 1303 432 c 0,14,15
 1303 587 1303 587 1270.5 728 c 128,-1,16
 1238 869 1238 869 1155 1001 c 1,17,-1
 418 1001 l 1,18,19
 246 708 246 708 246 432 c 0,0,1
20 1001 m 1,20,-1
 20 1059 l 1,21,-1
 188 1087 l 1,22,-1
 1522 1087 l 1,23,-1
 1522 1001 l 1,24,-1
 1255 1001 l 1,25,26
 1336 858 1336 858 1371.5 728 c 128,-1,27
 1407 598 1407 598 1407 432 c 0,28,29
 1407 211 1407 211 1318.5 95.5 c 128,-1,30
 1230 -20 1230 -20 1059 -20 c 0,31,32
 953 -20 953 -20 884.5 29 c 128,-1,33
 816 78 816 78 776 188 c 1,34,-1
 772 188 l 1,35,36
 735 81 735 81 669 30.5 c 128,-1,37
 603 -20 603 -20 489 -20 c 0,38,39
 318 -20 318 -20 229.5 94.5 c 128,-1,40
 141 209 141 209 141 432 c 0,41,42
 141 574 141 574 182.5 703.5 c 128,-1,43
 224 833 224 833 322 1001 c 1,44,-1
 20 1001 l 1,20,-1
EndSplineSet
Validated: 1
EndChar

StartChar: afii10051
Encoding: 1026 1026 433
Width: 1425
GlyphClass: 2
Flags: W
LayerCount: 2
Fore
SplineSet
10 1366 m 1,0,-1
 10 1462 l 1,1,-1
 965 1462 l 1,2,-1
 965 1366 l 1,3,-1
 449 1366 l 1,4,-1
 449 879 l 1,5,-1
 887 879 l 2,6,7
 1077 879 1077 879 1168.5 791 c 128,-1,8
 1260 703 1260 703 1260 520 c 2,9,-1
 1260 360 l 2,10,11
 1260 177 1260 177 1174 78.5 c 128,-1,12
 1088 -20 1088 -20 928 -20 c 0,13,14
 834 -20 834 -20 786 -2 c 1,15,-1
 786 98 l 1,16,17
 844 80 844 80 928 80 c 0,18,19
 1037 80 1037 80 1096 151.5 c 128,-1,20
 1155 223 1155 223 1155 356 c 2,21,-1
 1155 516 l 2,22,23
 1155 662 1155 662 1085.5 723 c 128,-1,24
 1016 784 1016 784 858 784 c 2,25,-1
 449 784 l 1,26,-1
 449 0 l 1,27,-1
 346 0 l 1,28,-1
 346 1366 l 1,29,-1
 10 1366 l 1,0,-1
EndSplineSet
Validated: 1
EndChar

StartChar: afii10053
Encoding: 1028 1028 435
Width: 1272
GlyphClass: 2
Flags: W
LayerCount: 2
Fore
SplineSet
129 735 m 0,0,1
 129 958 129 958 213.5 1128 c 128,-1,2
 298 1298 298 1298 456.5 1390.5 c 128,-1,3
 615 1483 615 1483 825 1483 c 0,4,5
 1039 1483 1039 1483 1208 1403 c 1,6,-1
 1167 1311 l 1,7,8
 1007 1391 1007 1391 831 1391 c 0,9,10
 575 1391 575 1391 418.5 1238 c 128,-1,11
 262 1085 262 1085 242 813 c 1,12,-1
 1018 813 l 1,13,-1
 1018 719 l 1,14,-1
 238 719 l 1,15,16
 244 408 244 408 394 241 c 128,-1,17
 544 74 544 74 815 74 c 0,18,19
 999 74 999 74 1153 121 c 1,20,-1
 1153 31 l 1,21,22
 1008 -20 1008 -20 791 -20 c 0,23,24
 483 -20 483 -20 306 179 c 128,-1,25
 129 378 129 378 129 735 c 0,0,1
EndSplineSet
Validated: 1
EndChar

StartChar: afii10058
Encoding: 1033 1033 440
Width: 1874
GlyphClass: 2
Flags: W
LayerCount: 2
Fore
SplineSet
1067 90 m 1,0,-1
 1257 90 l 2,1,2
 1459 90 1459 90 1555 170.5 c 128,-1,3
 1651 251 1651 251 1651 424 c 0,4,5
 1651 585 1651 585 1557 656 c 128,-1,6
 1463 727 1463 727 1243 727 c 2,7,-1
 1067 727 l 1,8,-1
 1067 90 l 1,0,-1
0 2 m 1,9,-1
 0 94 l 1,10,11
 61 72 61 72 109 72 c 0,12,13
 177 72 177 72 216 123 c 128,-1,14
 255 174 255 174 289 307.5 c 128,-1,15
 323 441 323 441 369 722.5 c 128,-1,16
 415 1004 415 1004 477 1462 c 1,17,-1
 1067 1462 l 1,18,-1
 1067 817 l 1,19,-1
 1262 817 l 2,20,21
 1512 817 1512 817 1636.5 723 c 128,-1,22
 1761 629 1761 629 1761 424 c 128,-1,23
 1761 219 1761 219 1635 109.5 c 128,-1,24
 1509 0 1509 0 1280 0 c 2,25,-1
 965 0 l 1,26,-1
 965 1366 l 1,27,-1
 563 1366 l 1,28,29
 492 859 492 859 451 602.5 c 128,-1,30
 410 346 410 346 371.5 217 c 128,-1,31
 333 88 333 88 274 32.5 c 128,-1,32
 215 -23 215 -23 117 -23 c 0,33,34
 55 -23 55 -23 0 2 c 1,9,-1
EndSplineSet
Validated: 1
EndChar

StartChar: afii10059
Encoding: 1034 1034 441
Width: 1939
GlyphClass: 2
Flags: W
LayerCount: 2
Fore
SplineSet
1133 90 m 1,0,-1
 1323 90 l 2,1,2
 1524 90 1524 90 1620 169.5 c 128,-1,3
 1716 249 1716 249 1716 424 c 0,4,5
 1716 585 1716 585 1622 656 c 128,-1,6
 1528 727 1528 727 1309 727 c 2,7,-1
 1133 727 l 1,8,-1
 1133 90 l 1,0,-1
207 0 m 1,9,-1
 207 1462 l 1,10,-1
 309 1462 l 1,11,-1
 309 817 l 1,12,-1
 1030 817 l 1,13,-1
 1030 1462 l 1,14,-1
 1133 1462 l 1,15,-1
 1133 817 l 1,16,-1
 1327 817 l 2,17,18
 1576 817 1576 817 1701.5 723 c 128,-1,19
 1827 629 1827 629 1827 424 c 0,20,21
 1827 220 1827 220 1701 110 c 128,-1,22
 1575 0 1575 0 1346 0 c 2,23,-1
 1030 0 l 1,24,-1
 1030 723 l 1,25,-1
 309 723 l 1,26,-1
 309 0 l 1,27,-1
 207 0 l 1,9,-1
EndSplineSet
Validated: 1
EndChar

StartChar: afii10060
Encoding: 1035 1035 442
Width: 1430
GlyphClass: 2
Flags: W
LayerCount: 2
Fore
SplineSet
10 1366 m 1,0,-1
 10 1462 l 1,1,-1
 991 1462 l 1,2,-1
 991 1366 l 1,3,-1
 449 1366 l 1,4,-1
 449 879 l 1,5,-1
 899 879 l 2,6,7
 1088 879 1088 879 1174 794 c 128,-1,8
 1260 709 1260 709 1260 520 c 2,9,-1
 1260 0 l 1,10,-1
 1155 0 l 1,11,-1
 1155 526 l 2,12,13
 1155 671 1155 671 1095 727.5 c 128,-1,14
 1035 784 1035 784 885 784 c 2,15,-1
 449 784 l 1,16,-1
 449 0 l 1,17,-1
 346 0 l 1,18,-1
 346 1366 l 1,19,-1
 10 1366 l 1,0,-1
EndSplineSet
Validated: 1
EndChar

StartChar: afii10145
Encoding: 1039 1039 446
Width: 1462
GlyphClass: 2
Flags: W
LayerCount: 2
Fore
SplineSet
207 0 m 1,0,-1
 207 1462 l 1,1,-1
 309 1462 l 1,2,-1
 309 96 l 1,3,-1
 1153 96 l 1,4,-1
 1153 1462 l 1,5,-1
 1255 1462 l 1,6,-1
 1255 0 l 1,7,-1
 780 0 l 1,8,-1
 780 -369 l 1,9,-1
 682 -369 l 1,10,-1
 682 0 l 1,11,-1
 207 0 l 1,0,-1
EndSplineSet
Validated: 1
EndChar

StartChar: afii10018
Encoding: 1041 1041 448
Width: 1219
GlyphClass: 2
Flags: W
LayerCount: 2
Fore
SplineSet
309 90 m 1,0,-1
 608 90 l 2,1,2
 805 90 805 90 900 169.5 c 128,-1,3
 995 249 995 249 995 420 c 0,4,5
 995 585 995 585 899 656 c 128,-1,6
 803 727 803 727 588 727 c 2,7,-1
 309 727 l 1,8,-1
 309 90 l 1,0,-1
207 0 m 1,9,-1
 207 1462 l 1,10,-1
 1028 1462 l 1,11,-1
 1028 1366 l 1,12,-1
 309 1366 l 1,13,-1
 309 817 l 1,14,-1
 602 817 l 2,15,16
 854 817 854 817 980 721.5 c 128,-1,17
 1106 626 1106 626 1106 420 c 0,18,19
 1106 218 1106 218 981.5 109 c 128,-1,20
 857 0 857 0 625 0 c 2,21,-1
 207 0 l 1,9,-1
EndSplineSet
Validated: 1
EndChar

StartChar: afii10021
Encoding: 1044 1044 451
Width: 1337
GlyphClass: 2
Flags: W
LayerCount: 2
Fore
SplineSet
233 96 m 1,0,-1
 1022 96 l 1,1,-1
 1022 1366 l 1,2,-1
 592 1366 l 1,3,4
 568 1051 568 1051 466 687 c 128,-1,5
 364 323 364 323 233 96 c 1,0,-1
14 96 m 1,6,-1
 119 96 l 1,7,8
 267 353 267 353 379 748.5 c 128,-1,9
 491 1144 491 1144 504 1462 c 1,10,-1
 1126 1462 l 1,11,-1
 1126 96 l 1,12,-1
 1276 96 l 1,13,-1
 1276 -369 l 1,14,-1
 1178 -369 l 1,15,-1
 1178 0 l 1,16,-1
 113 0 l 1,17,-1
 113 -369 l 1,18,-1
 14 -369 l 1,19,-1
 14 96 l 1,6,-1
EndSplineSet
Validated: 1
EndChar

StartChar: afii10024
Encoding: 1046 1046 453
Width: 1597
GlyphClass: 2
Flags: W
LayerCount: 2
Fore
SplineSet
0 0 m 1,0,-1
 625 745 l 1,1,-1
 33 1462 l 1,2,-1
 160 1462 l 1,3,-1
 748 754 l 1,4,-1
 748 1462 l 1,5,-1
 850 1462 l 1,6,-1
 850 754 l 1,7,-1
 1438 1462 l 1,8,-1
 1565 1462 l 1,9,-1
 971 752 l 1,10,-1
 1597 0 l 1,11,-1
 1462 0 l 1,12,-1
 850 741 l 1,13,-1
 850 0 l 1,14,-1
 748 0 l 1,15,-1
 748 741 l 1,16,-1
 135 0 l 1,17,-1
 0 0 l 1,0,-1
EndSplineSet
Validated: 1
EndChar

StartChar: afii10025
Encoding: 1047 1047 454
Width: 1145
GlyphClass: 2
Flags: W
LayerCount: 2
Fore
SplineSet
82 66 m 1,0,-1
 82 170 l 1,1,2
 177 124 177 124 285 99 c 128,-1,3
 393 74 393 74 489 74 c 0,4,5
 689 74 689 74 804.5 160.5 c 128,-1,6
 920 247 920 247 920 403 c 0,7,8
 920 555 920 555 807.5 633 c 128,-1,9
 695 711 695 711 471 711 c 2,10,-1
 254 711 l 1,11,-1
 254 807 l 1,12,-1
 479 807 l 2,13,14
 691 807 691 807 792 887 c 128,-1,15
 893 967 893 967 893 1114 c 0,16,17
 893 1239 893 1239 800.5 1314 c 128,-1,18
 708 1389 708 1389 559 1389 c 0,19,20
 448 1389 448 1389 355 1357.5 c 128,-1,21
 262 1326 262 1326 154 1249 c 1,22,-1
 96 1329 l 1,23,24
 298 1483 298 1483 559 1483 c 0,25,26
 764 1483 764 1483 882.5 1385 c 128,-1,27
 1001 1287 1001 1287 1001 1120 c 0,28,29
 1001 834 1001 834 698 768 c 1,30,-1
 698 762 l 1,31,32
 1030 691 1030 691 1030 406 c 0,33,34
 1030 205 1030 205 888.5 92.5 c 128,-1,35
 747 -20 747 -20 489 -20 c 0,36,37
 247 -20 247 -20 82 66 c 1,0,-1
EndSplineSet
Validated: 1
EndChar

StartChar: afii10026
Encoding: 1048 1048 455
Width: 1477
GlyphClass: 2
Flags: W
LayerCount: 2
Fore
SplineSet
207 0 m 1,0,-1
 207 1462 l 1,1,-1
 305 1462 l 1,2,-1
 305 506 l 2,3,4
 305 404 305 404 297 164 c 1,5,-1
 303 164 l 1,6,-1
 1167 1462 l 1,7,-1
 1270 1462 l 1,8,-1
 1270 0 l 1,9,-1
 1171 0 l 1,10,-1
 1171 950 l 2,11,12
 1171 1112 1171 1112 1184 1300 c 1,13,-1
 1176 1300 l 1,14,-1
 309 0 l 1,15,-1
 207 0 l 1,0,-1
EndSplineSet
Validated: 1
EndChar

StartChar: afii10028
Encoding: 1050 1050 457
Width: 1171
GlyphClass: 2
Flags: W
LayerCount: 2
Fore
SplineSet
207 0 m 1,0,-1
 207 1462 l 1,1,-1
 309 1462 l 1,2,-1
 309 754 l 1,3,-1
 1012 1462 l 1,4,-1
 1147 1462 l 1,5,-1
 440 754 l 1,6,-1
 1171 0 l 1,7,-1
 1032 0 l 1,8,-1
 309 745 l 1,9,-1
 309 0 l 1,10,-1
 207 0 l 1,0,-1
EndSplineSet
Validated: 1
EndChar

StartChar: afii10029
Encoding: 1051 1051 458
Width: 1395
GlyphClass: 2
Flags: W
LayerCount: 2
Fore
SplineSet
0 2 m 1,0,-1
 0 94 l 1,1,2
 61 72 61 72 113 72 c 0,3,4
 200 72 200 72 248.5 180 c 128,-1,5
 297 288 297 288 354.5 646 c 128,-1,6
 412 1004 412 1004 469 1462 c 1,7,-1
 1188 1462 l 1,8,-1
 1188 0 l 1,9,-1
 1085 0 l 1,10,-1
 1085 1366 l 1,11,-1
 555 1366 l 1,12,13
 514 1027 514 1027 468 723 c 128,-1,14
 422 419 422 419 390.5 290 c 128,-1,15
 359 161 359 161 324.5 98.5 c 128,-1,16
 290 36 290 36 241 6.5 c 128,-1,17
 192 -23 192 -23 117 -23 c 0,18,19
 50 -23 50 -23 0 2 c 1,0,-1
EndSplineSet
Validated: 1
EndChar

StartChar: afii10037
Encoding: 1059 1059 466
Width: 1204
GlyphClass: 2
Flags: W
LayerCount: 2
Fore
SplineSet
10 1462 m 1,0,-1
 131 1462 l 1,1,-1
 578 608 l 2,2,3
 613 539 613 539 641 465 c 1,4,-1
 645 465 l 1,5,-1
 670 526 l 1,6,-1
 1090 1462 l 1,7,-1
 1204 1462 l 1,8,-1
 735 434 l 2,9,10
 690 335 690 335 649 251.5 c 128,-1,11
 608 168 608 168 558 108 c 128,-1,12
 508 48 508 48 441 14 c 128,-1,13
 374 -20 374 -20 276 -20 c 0,14,15
 157 -20 157 -20 84 10 c 1,16,-1
 84 113 l 1,17,18
 170 76 170 76 266 76 c 0,19,20
 338 76 338 76 389.5 100.5 c 128,-1,21
 441 125 441 125 485 179.5 c 128,-1,22
 529 234 529 234 592 362 c 1,23,-1
 10 1462 l 1,0,-1
EndSplineSet
Validated: 1
EndChar

StartChar: afii10040
Encoding: 1062 1062 469
Width: 1473
GlyphClass: 2
Flags: W
LayerCount: 2
Fore
SplineSet
207 0 m 1,0,-1
 207 1462 l 1,1,-1
 309 1462 l 1,2,-1
 309 96 l 1,3,-1
 1153 96 l 1,4,-1
 1153 1462 l 1,5,-1
 1255 1462 l 1,6,-1
 1255 96 l 1,7,-1
 1411 96 l 1,8,-1
 1411 -369 l 1,9,-1
 1313 -369 l 1,10,-1
 1313 0 l 1,11,-1
 207 0 l 1,0,-1
EndSplineSet
Validated: 1
EndChar

StartChar: afii10041
Encoding: 1063 1063 470
Width: 1372
GlyphClass: 2
Flags: W
LayerCount: 2
Fore
SplineSet
182 899 m 2,0,-1
 182 1462 l 1,1,-1
 285 1462 l 1,2,-1
 285 895 l 2,3,4
 285 629 285 629 610 629 c 0,5,6
 706 629 706 629 802 646.5 c 128,-1,7
 898 664 898 664 1063 723 c 1,8,-1
 1063 1462 l 1,9,-1
 1165 1462 l 1,10,-1
 1165 0 l 1,11,-1
 1063 0 l 1,12,-1
 1063 635 l 1,13,14
 802 532 802 532 602 532 c 0,15,16
 398 532 398 532 290 622.5 c 128,-1,17
 182 713 182 713 182 899 c 2,0,-1
EndSplineSet
Validated: 1
EndChar

StartChar: afii10042
Encoding: 1064 1064 471
Width: 2060
GlyphClass: 2
Flags: W
LayerCount: 2
Fore
SplineSet
207 0 m 1,0,-1
 207 1462 l 1,1,-1
 309 1462 l 1,2,-1
 309 96 l 1,3,-1
 979 96 l 1,4,-1
 979 1462 l 1,5,-1
 1081 1462 l 1,6,-1
 1081 96 l 1,7,-1
 1751 96 l 1,8,-1
 1751 1462 l 1,9,-1
 1853 1462 l 1,10,-1
 1853 0 l 1,11,-1
 207 0 l 1,0,-1
EndSplineSet
Validated: 1
EndChar

StartChar: afii10043
Encoding: 1065 1065 472
Width: 2071
GlyphClass: 2
Flags: W
LayerCount: 2
Fore
SplineSet
207 0 m 1,0,-1
 207 1462 l 1,1,-1
 309 1462 l 1,2,-1
 309 96 l 1,3,-1
 979 96 l 1,4,-1
 979 1462 l 1,5,-1
 1081 1462 l 1,6,-1
 1081 96 l 1,7,-1
 1751 96 l 1,8,-1
 1751 1462 l 1,9,-1
 1853 1462 l 1,10,-1
 1853 96 l 1,11,-1
 2009 96 l 1,12,-1
 2009 -369 l 1,13,-1
 1911 -369 l 1,14,-1
 1911 0 l 1,15,-1
 207 0 l 1,0,-1
EndSplineSet
Validated: 1
EndChar

StartChar: afii10044
Encoding: 1066 1066 473
Width: 1348
GlyphClass: 2
Flags: W
LayerCount: 2
Fore
SplineSet
449 90 m 1,0,-1
 737 90 l 2,1,2
 934 90 934 90 1029 169.5 c 128,-1,3
 1124 249 1124 249 1124 420 c 0,4,5
 1124 585 1124 585 1028 656 c 128,-1,6
 932 727 932 727 717 727 c 2,7,-1
 449 727 l 1,8,-1
 449 90 l 1,0,-1
10 1366 m 1,9,-1
 10 1462 l 1,10,-1
 449 1462 l 1,11,-1
 449 817 l 1,12,-1
 731 817 l 2,13,14
 983 817 983 817 1109 721.5 c 128,-1,15
 1235 626 1235 626 1235 420 c 0,16,17
 1235 218 1235 218 1110.5 109 c 128,-1,18
 986 0 986 0 754 0 c 2,19,-1
 346 0 l 1,20,-1
 346 1366 l 1,21,-1
 10 1366 l 1,9,-1
EndSplineSet
Validated: 1
EndChar

StartChar: afii10045
Encoding: 1067 1067 474
Width: 1669
GlyphClass: 2
Flags: W
LayerCount: 2
Fore
SplineSet
1360 0 m 1,0,-1
 1360 1462 l 1,1,-1
 1462 1462 l 1,2,-1
 1462 0 l 1,3,-1
 1360 0 l 1,0,-1
309 90 m 1,4,-1
 598 90 l 2,5,6
 802 90 802 90 893.5 173 c 128,-1,7
 985 256 985 256 985 420 c 0,8,9
 985 583 985 583 890 655 c 128,-1,10
 795 727 795 727 578 727 c 2,11,-1
 309 727 l 1,12,-1
 309 90 l 1,4,-1
207 0 m 1,13,-1
 207 1462 l 1,14,-1
 309 1462 l 1,15,-1
 309 817 l 1,16,-1
 592 817 l 2,17,18
 843 817 843 817 969.5 721.5 c 128,-1,19
 1096 626 1096 626 1096 420 c 0,20,21
 1096 218 1096 218 972 109 c 128,-1,22
 848 0 848 0 614 0 c 2,23,-1
 207 0 l 1,13,-1
EndSplineSet
Validated: 1
EndChar

StartChar: afii10046
Encoding: 1068 1068 475
Width: 1219
GlyphClass: 2
Flags: W
LayerCount: 2
Fore
SplineSet
309 90 m 1,0,-1
 610 90 l 2,1,2
 807 90 807 90 902 169.5 c 128,-1,3
 997 249 997 249 997 420 c 0,4,5
 997 585 997 585 901 656 c 128,-1,6
 805 727 805 727 590 727 c 2,7,-1
 309 727 l 1,8,-1
 309 90 l 1,0,-1
207 0 m 1,9,-1
 207 1462 l 1,10,-1
 309 1462 l 1,11,-1
 309 817 l 1,12,-1
 604 817 l 2,13,14
 856 817 856 817 982 721.5 c 128,-1,15
 1108 626 1108 626 1108 420 c 0,16,17
 1108 217 1108 217 984 108.5 c 128,-1,18
 860 0 860 0 627 0 c 2,19,-1
 207 0 l 1,9,-1
EndSplineSet
Validated: 1
EndChar

StartChar: afii10047
Encoding: 1069 1069 476
Width: 1266
GlyphClass: 2
Flags: W
LayerCount: 2
Fore
SplineSet
70 31 m 1,0,-1
 70 125 l 1,1,2
 237 74 237 74 434 74 c 0,3,4
 704 74 704 74 859 243 c 128,-1,5
 1014 412 1014 412 1028 719 c 1,6,-1
 254 719 l 1,7,-1
 254 813 l 1,8,-1
 1026 813 l 1,9,10
 1004 1091 1004 1091 851.5 1241 c 128,-1,11
 699 1391 699 1391 434 1391 c 0,12,13
 354 1391 354 1391 279.5 1373.5 c 128,-1,14
 205 1356 205 1356 117 1313 c 1,15,-1
 76 1405 l 1,16,17
 240 1483 240 1483 444 1483 c 0,18,19
 768 1483 768 1483 952.5 1291 c 128,-1,20
 1137 1099 1137 1099 1137 766 c 0,21,22
 1137 527 1137 527 1054 349 c 128,-1,23
 971 171 971 171 814.5 75.5 c 128,-1,24
 658 -20 658 -20 453 -20 c 0,25,26
 215 -20 215 -20 70 31 c 1,0,-1
EndSplineSet
Validated: 1
EndChar

StartChar: afii10048
Encoding: 1070 1070 477
Width: 2105
GlyphClass: 2
Flags: W
LayerCount: 2
Fore
SplineSet
834 733 m 128,-1,1
 834 420 834 420 967 248 c 128,-1,2
 1100 76 1100 76 1350 76 c 128,-1,3
 1600 76 1600 76 1733 246.5 c 128,-1,4
 1866 417 1866 417 1866 733 c 0,5,6
 1866 1048 1866 1048 1733.5 1217 c 128,-1,7
 1601 1386 1601 1386 1352 1386 c 0,8,9
 1104 1386 1104 1386 969 1216 c 128,-1,0
 834 1046 834 1046 834 733 c 128,-1,1
207 0 m 1,10,-1
 207 1462 l 1,11,-1
 309 1462 l 1,12,-1
 309 813 l 1,13,-1
 725 813 l 1,14,15
 744 1125 744 1125 910 1305 c 128,-1,16
 1076 1485 1076 1485 1352 1485 c 0,17,18
 1645 1485 1645 1485 1810.5 1283.5 c 128,-1,19
 1976 1082 1976 1082 1976 733 c 0,20,21
 1976 385 1976 385 1810 182.5 c 128,-1,22
 1644 -20 1644 -20 1350 -20 c 0,23,24
 1057 -20 1057 -20 891 179.5 c 128,-1,25
 725 379 725 379 723 719 c 1,26,-1
 309 719 l 1,27,-1
 309 0 l 1,28,-1
 207 0 l 1,10,-1
EndSplineSet
Validated: 1
EndChar

StartChar: afii10049
Encoding: 1071 1071 478
Width: 1202
GlyphClass: 2
Flags: W
LayerCount: 2
Fore
SplineSet
231 1047 m 0,0,1
 231 887 231 887 329 806 c 128,-1,2
 427 725 427 725 616 725 c 2,3,-1
 893 725 l 1,4,-1
 893 1370 l 1,5,-1
 651 1370 l 2,6,7
 430 1370 430 1370 330.5 1293.5 c 128,-1,8
 231 1217 231 1217 231 1047 c 0,0,1
31 0 m 1,9,-1
 442 657 l 1,10,11
 289 687 289 687 205 788 c 128,-1,12
 121 889 121 889 121 1042 c 0,13,14
 121 1462 121 1462 647 1462 c 2,15,-1
 995 1462 l 1,16,-1
 995 0 l 1,17,-1
 893 0 l 1,18,-1
 893 637 l 1,19,-1
 545 637 l 1,20,-1
 154 0 l 1,21,-1
 31 0 l 1,9,-1
EndSplineSet
Validated: 1
EndChar

StartChar: afii10066
Encoding: 1073 1073 480
Width: 1176
GlyphClass: 2
Flags: W
LayerCount: 2
Fore
SplineSet
223 649 m 1,0,1
 223 470 223 470 267.5 335 c 128,-1,2
 312 200 312 200 397 135 c 128,-1,3
 482 70 482 70 602 70 c 0,4,5
 773 70 773 70 863.5 184 c 128,-1,6
 954 298 954 298 954 512 c 0,7,8
 954 715 954 715 873.5 818.5 c 128,-1,9
 793 922 793 922 637 922 c 0,10,11
 521 922 521 922 412.5 849.5 c 128,-1,12
 304 777 304 777 223 649 c 1,0,1
123 653 m 0,13,14
 123 1361 123 1361 522 1460 c 0,15,16
 662 1495 662 1495 790.5 1519.5 c 128,-1,17
 919 1544 919 1544 1018 1563 c 1,18,-1
 1036 1477 l 1,19,-1
 916 1454 l 2,20,21
 619 1398 619 1398 524 1368 c 0,22,23
 389 1329 389 1329 312.5 1181 c 128,-1,24
 236 1033 236 1033 225 776 c 1,25,-1
 231 776 l 1,26,27
 338 903 338 903 439 957.5 c 128,-1,28
 540 1012 540 1012 647 1012 c 0,29,30
 847 1012 847 1012 953 883 c 128,-1,31
 1059 754 1059 754 1059 516 c 0,32,33
 1059 263 1059 263 937 121.5 c 128,-1,34
 815 -20 815 -20 594 -20 c 0,35,36
 370 -20 370 -20 246.5 155 c 128,-1,37
 123 330 123 330 123 653 c 0,13,14
EndSplineSet
Validated: 1
EndChar

StartChar: afii10067
Encoding: 1074 1074 481
Width: 1159
GlyphClass: 2
Flags: W
LayerCount: 2
Fore
SplineSet
281 621 m 1,0,-1
 627 621 l 2,1,2
 779 621 779 621 845 668 c 128,-1,3
 911 715 911 715 911 817 c 0,4,5
 911 912 911 912 843 952.5 c 128,-1,6
 775 993 775 993 639 993 c 2,7,-1
 281 993 l 1,8,-1
 281 621 l 1,0,-1
281 94 m 1,9,-1
 649 94 l 2,10,11
 942 94 942 94 942 328 c 0,12,13
 942 528 942 528 635 528 c 2,14,-1
 281 528 l 1,15,-1
 281 94 l 1,9,-1
182 0 m 1,16,-1
 182 1087 l 1,17,-1
 643 1087 l 2,18,19
 829 1087 829 1087 922.5 1020 c 128,-1,20
 1016 953 1016 953 1016 825 c 0,21,22
 1016 722 1016 722 965 663.5 c 128,-1,23
 914 605 914 605 799 582 c 1,24,-1
 799 575 l 1,25,26
 930 560 930 560 988.5 499.5 c 128,-1,27
 1047 439 1047 439 1047 326 c 0,28,29
 1047 169 1047 169 943.5 84.5 c 128,-1,30
 840 0 840 0 641 0 c 2,31,-1
 182 0 l 1,16,-1
EndSplineSet
Validated: 1
EndChar

StartChar: afii10068
Encoding: 1075 1075 482
Width: 862
GlyphClass: 2
Flags: W
LayerCount: 2
Fore
SplineSet
182 0 m 1,0,-1
 182 1087 l 1,1,-1
 821 1087 l 1,2,-1
 821 1001 l 1,3,-1
 281 1001 l 1,4,-1
 281 0 l 1,5,-1
 182 0 l 1,0,-1
EndSplineSet
Validated: 1
EndChar

StartChar: afii10069
Encoding: 1076 1076 483
Width: 1118
GlyphClass: 2
Flags: W
LayerCount: 2
Fore
SplineSet
225 94 m 1,0,-1
 825 94 l 1,1,-1
 825 995 l 1,2,-1
 487 995 l 1,3,4
 463 454 463 454 225 94 c 1,0,-1
41 94 m 1,5,-1
 113 94 l 1,6,7
 249 285 249 285 323 537 c 128,-1,8
 397 789 397 789 401 1087 c 1,9,-1
 924 1087 l 1,10,-1
 924 94 l 1,11,-1
 1069 94 l 1,12,-1
 1069 -369 l 1,13,-1
 971 -369 l 1,14,-1
 971 0 l 1,15,-1
 139 0 l 1,16,-1
 139 -369 l 1,17,-1
 41 -369 l 1,18,-1
 41 94 l 1,5,-1
EndSplineSet
Validated: 1
EndChar

StartChar: afii10072
Encoding: 1078 1078 485
Width: 1362
GlyphClass: 2
Flags: W
LayerCount: 2
Fore
SplineSet
6 0 m 1,0,-1
 512 555 l 1,1,-1
 43 1087 l 1,2,-1
 164 1087 l 1,3,-1
 631 559 l 1,4,-1
 631 1087 l 1,5,-1
 731 1087 l 1,6,-1
 731 559 l 1,7,-1
 1198 1087 l 1,8,-1
 1319 1087 l 1,9,-1
 848 559 l 1,10,-1
 1356 0 l 1,11,-1
 1229 0 l 1,12,-1
 731 551 l 1,13,-1
 731 0 l 1,14,-1
 631 0 l 1,15,-1
 631 551 l 1,16,-1
 133 0 l 1,17,-1
 6 0 l 1,0,-1
EndSplineSet
Validated: 1
EndChar

StartChar: afii10073
Encoding: 1079 1079 486
Width: 926
GlyphClass: 2
Flags: W
LayerCount: 2
Fore
SplineSet
68 55 m 1,0,-1
 68 154 l 1,1,2
 171 105 171 105 246 87.5 c 128,-1,3
 321 70 321 70 406 70 c 0,4,5
 554 70 554 70 636.5 132.5 c 128,-1,6
 719 195 719 195 719 311 c 0,7,8
 719 424 719 424 640 478 c 128,-1,9
 561 532 561 532 403 532 c 2,10,-1
 252 532 l 1,11,-1
 252 618 l 1,12,-1
 387 618 l 2,13,14
 682 618 682 618 682 821 c 0,15,16
 682 918 682 918 614 969 c 128,-1,17
 546 1020 546 1020 420 1020 c 0,18,19
 340 1020 340 1020 271 1001.5 c 128,-1,20
 202 983 202 983 123 948 c 1,21,-1
 86 1030 l 1,22,23
 260 1108 260 1108 424 1108 c 0,24,25
 602 1108 602 1108 694 1034 c 128,-1,26
 786 960 786 960 786 829 c 0,27,28
 786 640 786 640 592 588 c 1,29,-1
 592 582 l 1,30,31
 713 552 713 552 768 482.5 c 128,-1,32
 823 413 823 413 823 305 c 0,33,34
 823 154 823 154 712.5 67 c 128,-1,35
 602 -20 602 -20 406 -20 c 0,36,37
 300 -20 300 -20 212.5 0.5 c 128,-1,38
 125 21 125 21 68 55 c 1,0,-1
EndSplineSet
Validated: 1
EndChar

StartChar: afii10074
Encoding: 1080 1080 487
Width: 1229
GlyphClass: 2
Flags: W
LayerCount: 2
Fore
SplineSet
182 0 m 1,0,-1
 182 1087 l 1,1,-1
 276 1087 l 1,2,-1
 276 301 l 1,3,-1
 270 96 l 1,4,-1
 915 1087 l 1,5,-1
 1047 1087 l 1,6,-1
 1047 0 l 1,7,-1
 952 0 l 1,8,-1
 952 781 l 1,9,-1
 956 991 l 1,10,-1
 311 0 l 1,11,-1
 182 0 l 1,0,-1
EndSplineSet
Validated: 1
EndChar

StartChar: afii10076
Encoding: 1082 1082 489
Width: 940
GlyphClass: 2
Flags: W
LayerCount: 2
Fore
SplineSet
182 0 m 1,0,-1
 182 1087 l 1,1,-1
 283 1087 l 1,2,-1
 283 559 l 1,3,-1
 772 1087 l 1,4,-1
 895 1087 l 1,5,-1
 408 561 l 1,6,-1
 930 0 l 1,7,-1
 797 0 l 1,8,-1
 283 551 l 1,9,-1
 283 0 l 1,10,-1
 182 0 l 1,0,-1
EndSplineSet
Validated: 1
EndChar

StartChar: afii10077
Encoding: 1083 1083 490
Width: 1116
GlyphClass: 2
Flags: W
LayerCount: 2
Fore
SplineSet
20 -2 m 1,0,-1
 20 88 l 1,1,2
 39 82 39 82 74 82 c 0,3,4
 187 82 187 82 256.5 320.5 c 128,-1,5
 326 559 326 559 362 1087 c 1,6,-1
 934 1087 l 1,7,-1
 934 0 l 1,8,-1
 836 0 l 1,9,-1
 836 995 l 1,10,-1
 451 995 l 1,11,12
 421 600 421 600 377.5 392.5 c 128,-1,13
 334 185 334 185 265.5 87.5 c 128,-1,14
 197 -10 197 -10 88 -10 c 0,15,16
 49 -10 49 -10 20 -2 c 1,0,-1
EndSplineSet
Validated: 1
EndChar

StartChar: afii10078
Encoding: 1084 1084 491
Width: 1382
GlyphClass: 2
Flags: W
LayerCount: 2
Fore
SplineSet
182 0 m 1,0,-1
 182 1087 l 1,1,-1
 313 1087 l 1,2,-1
 627 287 l 2,3,4
 664 190 664 190 688 106 c 1,5,-1
 750 281 l 1,6,-1
 1063 1087 l 1,7,-1
 1200 1087 l 1,8,-1
 1200 0 l 1,9,-1
 1106 0 l 1,10,-1
 1106 967 l 1,11,12
 1084 904 1084 904 1059.5 838 c 128,-1,13
 1035 772 1035 772 733 0 c 1,14,-1
 645 0 l 1,15,-1
 344 764 l 2,16,17
 325 810 325 810 308.5 861 c 128,-1,18
 292 912 292 912 272 971 c 1,19,-1
 272 0 l 1,20,-1
 182 0 l 1,0,-1
EndSplineSet
Validated: 1
EndChar

StartChar: afii10079
Encoding: 1085 1085 492
Width: 1251
GlyphClass: 2
Flags: W
LayerCount: 2
Fore
SplineSet
182 0 m 1,0,-1
 182 1087 l 1,1,-1
 281 1087 l 1,2,-1
 281 610 l 1,3,-1
 971 610 l 1,4,-1
 971 1087 l 1,5,-1
 1069 1087 l 1,6,-1
 1069 0 l 1,7,-1
 971 0 l 1,8,-1
 971 524 l 1,9,-1
 281 524 l 1,10,-1
 281 0 l 1,11,-1
 182 0 l 1,0,-1
EndSplineSet
Validated: 1
EndChar

StartChar: afii10081
Encoding: 1087 1087 494
Width: 1231
GlyphClass: 2
Flags: W
LayerCount: 2
Fore
SplineSet
182 0 m 1,0,-1
 182 1087 l 1,1,-1
 1049 1087 l 1,2,-1
 1049 0 l 1,3,-1
 950 0 l 1,4,-1
 950 993 l 1,5,-1
 281 993 l 1,6,-1
 281 0 l 1,7,-1
 182 0 l 1,0,-1
EndSplineSet
Validated: 1
EndChar

StartChar: afii10084
Encoding: 1090 1090 497
Width: 913
GlyphClass: 2
Flags: W
LayerCount: 2
Fore
SplineSet
41 1001 m 1,0,-1
 41 1087 l 1,1,-1
 872 1087 l 1,2,-1
 872 1001 l 1,3,-1
 510 1001 l 1,4,-1
 510 0 l 1,5,-1
 412 0 l 1,6,-1
 412 1001 l 1,7,-1
 41 1001 l 1,0,-1
EndSplineSet
Validated: 1
EndChar

StartChar: afii10086
Encoding: 1092 1092 499
Width: 1372
GlyphClass: 2
Flags: W
LayerCount: 2
Fore
SplineSet
737 72 m 1,0,1
 937 89 937 89 1043 214 c 128,-1,2
 1149 339 1149 339 1149 545 c 0,3,4
 1149 754 1149 754 1042 876.5 c 128,-1,5
 935 999 935 999 737 1016 c 1,6,-1
 737 72 l 1,0,1
223 545 m 0,7,8
 223 332 223 332 331.5 209.5 c 128,-1,9
 440 87 440 87 639 72 c 1,10,-1
 639 1016 l 1,11,12
 434 999 434 999 328.5 877.5 c 128,-1,13
 223 756 223 756 223 545 c 0,7,8
119 545 m 0,14,15
 119 796 119 796 255 943 c 128,-1,16
 391 1090 391 1090 639 1108 c 1,17,-1
 639 1556 l 1,18,-1
 737 1556 l 1,19,-1
 737 1108 l 1,20,21
 983 1090 983 1090 1118 943 c 128,-1,22
 1253 796 1253 796 1253 545 c 128,-1,23
 1253 294 1253 294 1117.5 146 c 128,-1,24
 982 -2 982 -2 737 -20 c 1,25,-1
 737 -492 l 1,26,-1
 639 -492 l 1,27,-1
 639 -20 l 1,28,29
 395 -6 395 -6 257 142 c 128,-1,30
 119 290 119 290 119 545 c 0,14,15
EndSplineSet
Validated: 1
EndChar

StartChar: afii10088
Encoding: 1094 1094 501
Width: 1223
GlyphClass: 2
Flags: W
LayerCount: 2
Fore
SplineSet
182 0 m 1,0,-1
 182 1087 l 1,1,-1
 281 1087 l 1,2,-1
 281 94 l 1,3,-1
 930 94 l 1,4,-1
 930 1087 l 1,5,-1
 1028 1087 l 1,6,-1
 1028 94 l 1,7,-1
 1174 94 l 1,8,-1
 1174 -369 l 1,9,-1
 1075 -369 l 1,10,-1
 1075 0 l 1,11,-1
 182 0 l 1,0,-1
EndSplineSet
Validated: 1
EndChar

StartChar: afii10089
Encoding: 1095 1095 502
Width: 1188
GlyphClass: 2
Flags: W
LayerCount: 2
Fore
SplineSet
164 711 m 2,0,-1
 164 1087 l 1,1,-1
 262 1087 l 1,2,-1
 262 723 l 2,3,4
 262 585 262 585 329 524 c 128,-1,5
 396 463 396 463 535 463 c 0,6,7
 633 463 633 463 722 498 c 128,-1,8
 811 533 811 533 907 610 c 1,9,-1
 907 1087 l 1,10,-1
 1006 1087 l 1,11,-1
 1006 0 l 1,12,-1
 907 0 l 1,13,-1
 907 516 l 1,14,15
 807 439 807 439 710.5 406 c 128,-1,16
 614 373 614 373 502 373 c 0,17,18
 335 373 335 373 249.5 460 c 128,-1,19
 164 547 164 547 164 711 c 2,0,-1
EndSplineSet
Validated: 1
EndChar

StartChar: afii10090
Encoding: 1096 1096 503
Width: 1745
GlyphClass: 2
Flags: W
LayerCount: 2
Fore
SplineSet
182 0 m 1,0,-1
 182 1087 l 1,1,-1
 281 1087 l 1,2,-1
 281 94 l 1,3,-1
 823 94 l 1,4,-1
 823 1087 l 1,5,-1
 922 1087 l 1,6,-1
 922 94 l 1,7,-1
 1464 94 l 1,8,-1
 1464 1087 l 1,9,-1
 1563 1087 l 1,10,-1
 1563 0 l 1,11,-1
 182 0 l 1,0,-1
EndSplineSet
Validated: 1
EndChar

StartChar: afii10091
Encoding: 1097 1097 504
Width: 1757
GlyphClass: 2
Flags: W
LayerCount: 2
Fore
SplineSet
182 0 m 1,0,-1
 182 1087 l 1,1,-1
 281 1087 l 1,2,-1
 281 94 l 1,3,-1
 823 94 l 1,4,-1
 823 1087 l 1,5,-1
 922 1087 l 1,6,-1
 922 94 l 1,7,-1
 1464 94 l 1,8,-1
 1464 1087 l 1,9,-1
 1563 1087 l 1,10,-1
 1563 94 l 1,11,-1
 1708 94 l 1,12,-1
 1708 -369 l 1,13,-1
 1610 -369 l 1,14,-1
 1610 0 l 1,15,-1
 182 0 l 1,0,-1
EndSplineSet
Validated: 1
EndChar

StartChar: afii10092
Encoding: 1098 1098 505
Width: 1323
GlyphClass: 2
Flags: W
LayerCount: 2
Fore
SplineSet
469 94 m 1,0,-1
 807 94 l 2,1,2
 951 94 951 94 1025.5 156 c 128,-1,3
 1100 218 1100 218 1100 332 c 0,4,5
 1100 438 1100 438 1033 486.5 c 128,-1,6
 966 535 966 535 801 535 c 2,7,-1
 469 535 l 1,8,-1
 469 94 l 1,0,-1
41 1001 m 1,9,-1
 41 1087 l 1,10,-1
 469 1087 l 1,11,-1
 469 629 l 1,12,-1
 821 629 l 2,13,14
 1204 629 1204 629 1204 328 c 0,15,16
 1204 173 1204 173 1097 86.5 c 128,-1,17
 990 0 990 0 791 0 c 2,18,-1
 371 0 l 1,19,-1
 371 1001 l 1,20,-1
 41 1001 l 1,9,-1
EndSplineSet
Validated: 1
EndChar

StartChar: afii10093
Encoding: 1099 1099 506
Width: 1481
GlyphClass: 2
Flags: W
LayerCount: 2
Fore
SplineSet
1200 0 m 1,0,-1
 1200 1087 l 1,1,-1
 1298 1087 l 1,2,-1
 1298 0 l 1,3,-1
 1200 0 l 1,0,-1
281 94 m 1,4,-1
 612 94 l 2,5,6
 753 94 753 94 829 153 c 128,-1,7
 905 212 905 212 905 330 c 0,8,9
 905 438 905 438 838 486.5 c 128,-1,10
 771 535 771 535 606 535 c 2,11,-1
 281 535 l 1,12,-1
 281 94 l 1,4,-1
182 0 m 1,13,-1
 182 1087 l 1,14,-1
 281 1087 l 1,15,-1
 281 629 l 1,16,-1
 627 629 l 2,17,18
 1010 629 1010 629 1010 328 c 0,19,20
 1010 173 1010 173 903 86.5 c 128,-1,21
 796 0 796 0 596 0 c 2,22,-1
 182 0 l 1,13,-1
EndSplineSet
Validated: 1
EndChar

StartChar: afii10094
Encoding: 1100 1100 507
Width: 1165
GlyphClass: 2
Flags: W
LayerCount: 2
Fore
SplineSet
281 94 m 1,0,-1
 649 94 l 2,1,2
 791 94 791 94 866.5 154 c 128,-1,3
 942 214 942 214 942 330 c 0,4,5
 942 438 942 438 875 486.5 c 128,-1,6
 808 535 808 535 643 535 c 2,7,-1
 281 535 l 1,8,-1
 281 94 l 1,0,-1
182 0 m 1,9,-1
 182 1087 l 1,10,-1
 281 1087 l 1,11,-1
 281 629 l 1,12,-1
 664 629 l 2,13,14
 1047 629 1047 629 1047 328 c 0,15,16
 1047 173 1047 173 940 86.5 c 128,-1,17
 833 0 833 0 633 0 c 2,18,-1
 182 0 l 1,9,-1
EndSplineSet
Validated: 1
EndChar

StartChar: afii10095
Encoding: 1101 1101 508
Width: 1006
GlyphClass: 2
Flags: W
LayerCount: 2
Fore
SplineSet
68 31 m 1,0,-1
 68 123 l 1,1,2
 195 70 195 70 352 70 c 0,3,4
 548 70 548 70 665 194.5 c 128,-1,5
 782 319 782 319 784 530 c 1,6,-1
 164 530 l 1,7,-1
 164 618 l 1,8,-1
 780 618 l 1,9,10
 763 815 763 815 660.5 916.5 c 128,-1,11
 558 1018 558 1018 379 1018 c 0,12,13
 273 1018 273 1018 113 958 c 1,14,-1
 84 1047 l 1,15,16
 140 1070 140 1070 224 1089 c 128,-1,17
 308 1108 308 1108 377 1108 c 0,18,19
 621 1108 621 1108 754 964 c 128,-1,20
 887 820 887 820 887 557 c 0,21,22
 887 288 887 288 745.5 134 c 128,-1,23
 604 -20 604 -20 358 -20 c 0,24,25
 266 -20 266 -20 187 -5 c 128,-1,26
 108 10 108 10 68 31 c 1,0,-1
EndSplineSet
Validated: 1
EndChar

StartChar: afii10096
Encoding: 1102 1102 509
Width: 1634
GlyphClass: 2
Flags: W
LayerCount: 2
Fore
SplineSet
735 545 m 0,0,1
 735 321 735 321 823.5 195.5 c 128,-1,2
 912 70 912 70 1073 70 c 128,-1,3
 1234 70 1234 70 1322.5 196 c 128,-1,4
 1411 322 1411 322 1411 545 c 0,5,6
 1411 769 1411 769 1322 893.5 c 128,-1,7
 1233 1018 1233 1018 1071 1018 c 0,8,9
 910 1018 910 1018 822.5 894.5 c 128,-1,10
 735 771 735 771 735 545 c 0,0,1
182 0 m 1,11,-1
 182 1087 l 1,12,-1
 281 1087 l 1,13,-1
 281 610 l 1,14,-1
 633 610 l 1,15,16
 647 845 647 845 763.5 976.5 c 128,-1,17
 880 1108 880 1108 1075 1108 c 0,18,19
 1279 1108 1279 1108 1397.5 957.5 c 128,-1,20
 1516 807 1516 807 1516 545 c 0,21,22
 1516 279 1516 279 1396.5 129.5 c 128,-1,23
 1277 -20 1277 -20 1069 -20 c 0,24,25
 873 -20 873 -20 753.5 127 c 128,-1,26
 634 274 634 274 631 524 c 1,27,-1
 281 524 l 1,28,-1
 281 0 l 1,29,-1
 182 0 l 1,11,-1
EndSplineSet
Validated: 1
EndChar

StartChar: afii10097
Encoding: 1103 1103 510
Width: 1083
GlyphClass: 2
Flags: W
LayerCount: 2
Fore
SplineSet
190 772 m 0,0,1
 190 660 190 660 262.5 605.5 c 128,-1,2
 335 551 335 551 481 551 c 2,3,-1
 803 551 l 1,4,-1
 803 993 l 1,5,-1
 451 993 l 2,6,7
 327 993 327 993 258.5 936.5 c 128,-1,8
 190 880 190 880 190 772 c 0,0,1
41 0 m 1,9,-1
 369 469 l 1,10,11
 219 497 219 497 152.5 573 c 128,-1,12
 86 649 86 649 86 768 c 0,13,14
 86 916 86 916 185.5 1001.5 c 128,-1,15
 285 1087 285 1087 453 1087 c 2,16,-1
 901 1087 l 1,17,-1
 901 0 l 1,18,-1
 803 0 l 1,19,-1
 803 457 l 1,20,-1
 471 457 l 1,21,-1
 166 0 l 1,22,-1
 41 0 l 1,9,-1
EndSplineSet
Validated: 1
EndChar

StartChar: afii10099
Encoding: 1106 1106 513
Width: 1208
GlyphClass: 2
Flags: W
LayerCount: 2
Fore
SplineSet
27 1272 m 1,0,-1
 27 1354 l 1,1,-1
 182 1354 l 1,2,-1
 182 1556 l 1,3,-1
 281 1556 l 1,4,-1
 281 1354 l 1,5,-1
 754 1354 l 1,6,-1
 754 1272 l 1,7,-1
 281 1272 l 1,8,-1
 281 1030 l 1,9,-1
 276 891 l 1,10,-1
 283 891 l 1,11,12
 344 989 344 989 437 1033 c 128,-1,13
 530 1077 530 1077 668 1077 c 0,14,15
 1038 1077 1038 1077 1038 680 c 2,16,-1
 1038 -211 l 2,17,18
 1038 -345 1038 -345 975.5 -418.5 c 128,-1,19
 913 -492 913 -492 795 -492 c 0,20,21
 716 -492 716 -492 659 -467 c 1,22,-1
 659 -381 l 1,23,24
 728 -401 728 -401 788 -401 c 0,25,26
 940 -401 940 -401 940 -225 c 2,27,-1
 940 674 l 2,28,29
 940 838 940 838 871.5 912.5 c 128,-1,30
 803 987 803 987 657 987 c 0,31,32
 460 987 460 987 370.5 888.5 c 128,-1,33
 281 790 281 790 281 569 c 2,34,-1
 281 0 l 1,35,-1
 182 0 l 1,36,-1
 182 1272 l 1,37,-1
 27 1272 l 1,0,-1
EndSplineSet
Validated: 1
EndChar

StartChar: afii10101
Encoding: 1108 1108 515
Width: 993
GlyphClass: 2
Flags: W
LayerCount: 2
Fore
SplineSet
119 537 m 0,0,1
 119 802 119 802 259.5 955 c 128,-1,2
 400 1108 400 1108 641 1108 c 0,3,4
 703 1108 703 1108 783.5 1095 c 128,-1,5
 864 1082 864 1082 922 1059 c 1,6,-1
 893 971 l 1,7,8
 834 992 834 992 760.5 1005 c 128,-1,9
 687 1018 687 1018 639 1018 c 0,10,11
 454 1018 454 1018 348 913 c 128,-1,12
 242 808 242 808 225 618 c 1,13,-1
 850 618 l 1,14,-1
 850 530 l 1,15,-1
 221 530 l 1,16,17
 223 313 223 313 332 191.5 c 128,-1,18
 441 70 441 70 625 70 c 0,19,20
 782 70 782 70 909 123 c 1,21,-1
 909 31 l 1,22,23
 863 8 863 8 788 -6 c 128,-1,24
 713 -20 713 -20 627 -20 c 0,25,26
 390 -20 390 -20 254.5 129.5 c 128,-1,27
 119 279 119 279 119 537 c 0,0,1
EndSplineSet
Validated: 1
EndChar

StartChar: afii10106
Encoding: 1113 1113 520
Width: 1655
GlyphClass: 2
Flags: W
LayerCount: 2
Fore
SplineSet
862 94 m 1,0,-1
 1133 94 l 2,1,2
 1287 94 1287 94 1359.5 151.5 c 128,-1,3
 1432 209 1432 209 1432 328 c 0,4,5
 1432 402 1432 402 1404 444.5 c 128,-1,6
 1376 487 1376 487 1317.5 506.5 c 128,-1,7
 1259 526 1259 526 1126 526 c 2,8,-1
 862 526 l 1,9,-1
 862 94 l 1,0,-1
20 -2 m 1,10,-1
 20 88 l 1,11,12
 40 82 40 82 72 82 c 0,13,14
 186 82 186 82 255 313 c 128,-1,15
 324 544 324 544 362 1087 c 1,16,-1
 862 1087 l 1,17,-1
 862 621 l 1,18,-1
 1147 621 l 2,19,20
 1352 621 1352 621 1444 549.5 c 128,-1,21
 1536 478 1536 478 1536 324 c 0,22,23
 1536 0 1536 0 1116 0 c 2,24,-1
 764 0 l 1,25,-1
 764 995 l 1,26,-1
 451 995 l 1,27,28
 422 601 422 601 378.5 392 c 128,-1,29
 335 183 335 183 265 86.5 c 128,-1,30
 195 -10 195 -10 84 -10 c 0,31,32
 47 -10 47 -10 20 -2 c 1,10,-1
EndSplineSet
Validated: 1
EndChar

StartChar: afii10107
Encoding: 1114 1114 521
Width: 1759
GlyphClass: 2
Flags: W
LayerCount: 2
Fore
SplineSet
967 94 m 1,0,-1
 1247 94 l 2,1,2
 1389 94 1389 94 1462.5 148.5 c 128,-1,3
 1536 203 1536 203 1536 326 c 0,4,5
 1536 401 1536 401 1508 444.5 c 128,-1,6
 1480 488 1480 488 1421.5 507 c 128,-1,7
 1363 526 1363 526 1241 526 c 2,8,-1
 967 526 l 1,9,-1
 967 94 l 1,0,-1
182 0 m 1,10,-1
 182 1087 l 1,11,-1
 281 1087 l 1,12,-1
 281 621 l 1,13,-1
 868 621 l 1,14,-1
 868 1087 l 1,15,-1
 967 1087 l 1,16,-1
 967 621 l 1,17,-1
 1262 621 l 2,18,19
 1458 621 1458 621 1549 550 c 128,-1,20
 1640 479 1640 479 1640 324 c 0,21,22
 1640 163 1640 163 1535.5 81.5 c 128,-1,23
 1431 0 1431 0 1231 0 c 2,24,-1
 868 0 l 1,25,-1
 868 526 l 1,26,-1
 281 526 l 1,27,-1
 281 0 l 1,28,-1
 182 0 l 1,10,-1
EndSplineSet
Validated: 1
EndChar

StartChar: afii10193
Encoding: 1119 1119 526
Width: 1231
GlyphClass: 2
Flags: W
LayerCount: 2
Fore
SplineSet
182 0 m 1,0,-1
 182 1087 l 1,1,-1
 281 1087 l 1,2,-1
 281 94 l 1,3,-1
 950 94 l 1,4,-1
 950 1087 l 1,5,-1
 1049 1087 l 1,6,-1
 1049 0 l 1,7,-1
 666 0 l 1,8,-1
 666 -369 l 1,9,-1
 567 -369 l 1,10,-1
 567 0 l 1,11,-1
 182 0 l 1,0,-1
EndSplineSet
Validated: 1
EndChar

StartChar: uni0460
Encoding: 1120 1120 527
Width: 1987
GlyphClass: 2
Flags: W
LayerCount: 2
Fore
SplineSet
129 760 m 0,0,1
 129 1100 129 1100 253 1292.5 c 128,-1,2
 377 1485 377 1485 594 1485 c 0,3,4
 667 1485 667 1485 725 1470.5 c 128,-1,5
 783 1456 783 1456 848 1421 c 1,6,-1
 805 1327 l 1,7,8
 733 1363 733 1363 687 1374.5 c 128,-1,9
 641 1386 641 1386 594 1386 c 0,10,11
 487 1386 487 1386 406.5 1312 c 128,-1,12
 326 1238 326 1238 283 1095.5 c 128,-1,13
 240 953 240 953 240 758 c 0,14,15
 240 434 240 434 354.5 255 c 128,-1,16
 469 76 469 76 674 76 c 0,17,18
 839 76 839 76 942 156 c 1,19,-1
 942 662 l 1,20,-1
 1044 662 l 1,21,-1
 1044 158 l 1,22,23
 1154 76 1154 76 1333 76 c 0,24,25
 1529 76 1529 76 1638 256.5 c 128,-1,26
 1747 437 1747 437 1747 758 c 0,27,28
 1747 951 1747 951 1705.5 1093.5 c 128,-1,29
 1664 1236 1664 1236 1587 1311 c 128,-1,30
 1510 1386 1510 1386 1407 1386 c 0,31,32
 1344 1386 1344 1386 1296.5 1369 c 128,-1,33
 1249 1352 1249 1352 1202 1327 c 1,34,-1
 1159 1421 l 1,35,36
 1227 1457 1227 1457 1284.5 1471 c 128,-1,37
 1342 1485 1342 1485 1413 1485 c 0,38,39
 1625 1485 1625 1485 1741.5 1294.5 c 128,-1,40
 1858 1104 1858 1104 1858 760 c 0,41,42
 1858 393 1858 393 1723 186.5 c 128,-1,43
 1588 -20 1588 -20 1341 -20 c 0,44,45
 1230 -20 1230 -20 1151.5 1.5 c 128,-1,46
 1073 23 1073 23 995 76 c 1,47,-1
 991 76 l 1,48,49
 915 23 915 23 837.5 1.5 c 128,-1,50
 760 -20 760 -20 649 -20 c 0,51,52
 399 -20 399 -20 264 185.5 c 128,-1,53
 129 391 129 391 129 760 c 0,0,1
EndSplineSet
Validated: 1
EndChar

StartChar: uni0461
Encoding: 1121 1121 528
Width: 1548
GlyphClass: 2
Flags: W
LayerCount: 2
Fore
SplineSet
0 1087 m 1,0,-1
 104 1087 l 1,1,-1
 313 510 l 2,2,3
 352 404 352 404 449 102 c 1,4,-1
 455 102 l 1,5,6
 489 179 489 179 529.5 261.5 c 128,-1,7
 570 344 570 344 717 627 c 1,8,-1
 551 1087 l 1,9,-1
 653 1087 l 1,10,-1
 862 510 l 1,11,-1
 1010 88 l 1,12,-1
 1016 88 l 1,13,14
 1194 266 1194 266 1282 510.5 c 128,-1,15
 1370 755 1370 755 1370 1087 c 1,16,-1
 1464 1087 l 1,17,18
 1464 720 1464 720 1365 468.5 c 128,-1,19
 1266 217 1266 217 1051 0 c 1,20,-1
 950 0 l 1,21,-1
 754 526 l 1,22,-1
 724 461 l 2,23,24
 687 379 687 379 678 360 c 128,-1,25
 669 341 669 341 494 0 c 1,26,-1
 391 0 l 1,27,-1
 0 1087 l 1,0,-1
EndSplineSet
Validated: 1
EndChar

StartChar: afii10146
Encoding: 1122 1122 529
Width: 1378
GlyphClass: 2
Flags: W
LayerCount: 2
Fore
SplineSet
469 88 m 1,0,-1
 758 88 l 2,1,2
 963 88 963 88 1059 172 c 128,-1,3
 1155 256 1155 256 1155 420 c 0,4,5
 1155 578 1155 578 1057 651.5 c 128,-1,6
 959 725 959 725 737 725 c 2,7,-1
 469 725 l 1,8,-1
 469 88 l 1,0,-1
31 1155 m 1,9,-1
 31 1239 l 1,10,-1
 367 1239 l 1,11,-1
 367 1556 l 1,12,-1
 469 1556 l 1,13,-1
 469 1239 l 1,14,-1
 950 1239 l 1,15,-1
 950 1155 l 1,16,-1
 469 1155 l 1,17,-1
 469 817 l 1,18,-1
 756 817 l 2,19,20
 1008 817 1008 817 1137 719.5 c 128,-1,21
 1266 622 1266 622 1266 420 c 0,22,23
 1266 221 1266 221 1138 110.5 c 128,-1,24
 1010 0 1010 0 774 0 c 2,25,-1
 367 0 l 1,26,-1
 367 1155 l 1,27,-1
 31 1155 l 1,9,-1
EndSplineSet
Validated: 1
EndChar

StartChar: afii10194
Encoding: 1123 1123 530
Width: 1241
GlyphClass: 2
Flags: W
LayerCount: 2
Fore
SplineSet
356 94 m 1,0,-1
 725 94 l 2,1,2
 867 94 867 94 942.5 154 c 128,-1,3
 1018 214 1018 214 1018 330 c 0,4,5
 1018 438 1018 438 949 486.5 c 128,-1,6
 880 535 880 535 713 535 c 2,7,-1
 356 535 l 1,8,-1
 356 94 l 1,0,-1
31 1006 m 1,9,-1
 31 1087 l 1,10,-1
 258 1087 l 1,11,-1
 258 1319 l 1,12,-1
 356 1319 l 1,13,-1
 356 1087 l 1,14,-1
 754 1087 l 1,15,-1
 754 1006 l 1,16,-1
 356 1006 l 1,17,-1
 356 629 l 1,18,-1
 739 629 l 2,19,20
 1122 629 1122 629 1122 328 c 0,21,22
 1122 173 1122 173 1015 86.5 c 128,-1,23
 908 0 908 0 709 0 c 2,24,-1
 258 0 l 1,25,-1
 258 1006 l 1,26,-1
 31 1006 l 1,9,-1
EndSplineSet
Validated: 1
EndChar

StartChar: uni0464
Encoding: 1124 1124 531
Width: 1866
GlyphClass: 2
Flags: W
LayerCount: 2
Fore
SplineSet
207 0 m 1,0,-1
 207 1462 l 1,1,-1
 309 1462 l 1,2,-1
 309 813 l 1,3,-1
 725 813 l 1,4,5
 748 1121 748 1121 934.5 1302 c 128,-1,6
 1121 1483 1121 1483 1419 1483 c 0,7,8
 1633 1483 1633 1483 1802 1403 c 1,9,-1
 1761 1311 l 1,10,11
 1601 1391 1601 1391 1425 1391 c 0,12,13
 1169 1391 1169 1391 1012.5 1238 c 128,-1,14
 856 1085 856 1085 836 813 c 1,15,-1
 1612 813 l 1,16,-1
 1612 719 l 1,17,-1
 831 719 l 1,18,19
 837 410 837 410 986.5 242 c 128,-1,20
 1136 74 1136 74 1409 74 c 0,21,22
 1593 74 1593 74 1747 121 c 1,23,-1
 1747 31 l 1,24,25
 1602 -20 1602 -20 1384 -20 c 0,26,27
 1080 -20 1080 -20 903.5 175 c 128,-1,28
 727 370 727 370 723 719 c 1,29,-1
 309 719 l 1,30,-1
 309 0 l 1,31,-1
 207 0 l 1,0,-1
EndSplineSet
Validated: 1
EndChar

StartChar: uni0465
Encoding: 1125 1125 532
Width: 1487
GlyphClass: 2
Flags: W
LayerCount: 2
Fore
SplineSet
182 0 m 1,0,-1
 182 1087 l 1,1,-1
 281 1087 l 1,2,-1
 281 614 l 1,3,-1
 637 614 l 1,4,5
 656 846 656 846 790 977 c 128,-1,6
 924 1108 924 1108 1141 1108 c 0,7,8
 1202 1108 1202 1108 1282.5 1094.5 c 128,-1,9
 1363 1081 1363 1081 1415 1059 c 1,10,-1
 1386 971 l 1,11,12
 1332 992 1332 992 1263 1005 c 128,-1,13
 1194 1018 1194 1018 1141 1018 c 0,14,15
 963 1018 963 1018 859.5 912 c 128,-1,16
 756 806 756 806 739 614 c 1,17,-1
 1323 614 l 1,18,-1
 1323 526 l 1,19,-1
 735 526 l 1,20,21
 737 313 737 313 841 191.5 c 128,-1,22
 945 70 945 70 1130 70 c 0,23,24
 1278 70 1278 70 1403 123 c 1,25,-1
 1403 31 l 1,26,27
 1358 8 1358 8 1284.5 -6 c 128,-1,28
 1211 -20 1211 -20 1128 -20 c 0,29,30
 891 -20 891 -20 763 122.5 c 128,-1,31
 635 265 635 265 633 528 c 1,32,-1
 281 528 l 1,33,-1
 281 0 l 1,34,-1
 182 0 l 1,0,-1
EndSplineSet
Validated: 1
EndChar

StartChar: uni0466
Encoding: 1126 1126 533
Width: 1286
GlyphClass: 2
Flags: W
LayerCount: 2
Fore
SplineSet
442 784 m 1,0,-1
 848 784 l 1,1,2
 766 982 766 982 722 1088 c 128,-1,3
 678 1194 678 1194 649 1292 c 1,4,5
 633 1240 633 1240 616 1196 c 128,-1,6
 599 1152 599 1152 442 784 c 1,0,-1
0 0 m 1,7,-1
 627 1468 l 1,8,-1
 676 1468 l 1,9,-1
 1286 0 l 1,10,-1
 1171 0 l 1,11,-1
 887 690 l 1,12,-1
 692 690 l 1,13,-1
 692 0 l 1,14,-1
 594 0 l 1,15,-1
 594 690 l 1,16,-1
 403 690 l 1,17,-1
 111 0 l 1,18,-1
 0 0 l 1,7,-1
EndSplineSet
Validated: 1
EndChar

StartChar: uni0467
Encoding: 1127 1127 534
Width: 1022
GlyphClass: 2
Flags: W
LayerCount: 2
Fore
SplineSet
352 582 m 1,0,-1
 670 582 l 1,1,2
 554 869 554 869 514 991 c 1,3,-1
 508 991 l 1,4,5
 483 910 483 910 459.5 844 c 128,-1,6
 436 778 436 778 352 582 c 1,0,-1
10 0 m 1,7,-1
 463 1087 l 1,8,-1
 561 1087 l 1,9,-1
 1012 0 l 1,10,-1
 911 0 l 1,11,-1
 702 500 l 1,12,-1
 559 500 l 1,13,-1
 559 0 l 1,14,-1
 461 0 l 1,15,-1
 461 500 l 1,16,-1
 319 500 l 1,17,-1
 113 0 l 1,18,-1
 10 0 l 1,7,-1
EndSplineSet
Validated: 1
EndChar

StartChar: uni0468
Encoding: 1128 1128 535
Width: 1763
GlyphClass: 2
Flags: W
LayerCount: 2
Fore
SplineSet
932 813 m 1,0,-1
 1313 813 l 1,1,-1
 1192 1106 l 2,2,3
 1158 1191 1158 1191 1126 1292 c 1,4,5
 1110 1241 1110 1241 1093.5 1197.5 c 128,-1,6
 1077 1154 1077 1154 932 813 c 1,0,-1
207 0 m 1,7,-1
 207 1462 l 1,8,-1
 309 1462 l 1,9,-1
 309 813 l 1,10,-1
 825 813 l 1,11,-1
 1104 1468 l 1,12,-1
 1153 1468 l 1,13,-1
 1763 0 l 1,14,-1
 1649 0 l 1,15,-1
 1352 719 l 1,16,-1
 1169 719 l 1,17,-1
 1169 0 l 1,18,-1
 1071 0 l 1,19,-1
 1071 719 l 1,20,-1
 893 719 l 1,21,-1
 588 0 l 1,22,-1
 477 0 l 1,23,-1
 784 719 l 1,24,-1
 309 719 l 1,25,-1
 309 0 l 1,26,-1
 207 0 l 1,7,-1
EndSplineSet
Validated: 1
EndChar

StartChar: uni0469
Encoding: 1129 1129 536
Width: 1395
GlyphClass: 2
Flags: W
LayerCount: 2
Fore
SplineSet
739 614 m 1,0,-1
 1030 614 l 1,1,2
 916 895 916 895 887 991 c 1,3,-1
 881 991 l 1,4,5
 856 911 856 911 832.5 845.5 c 128,-1,6
 809 780 809 780 739 614 c 1,0,-1
182 0 m 1,7,-1
 182 1087 l 1,8,-1
 281 1087 l 1,9,-1
 281 614 l 1,10,-1
 639 614 l 1,11,-1
 836 1087 l 1,12,-1
 934 1087 l 1,13,-1
 1384 0 l 1,14,-1
 1284 0 l 1,15,-1
 1063 532 l 1,16,-1
 932 532 l 1,17,-1
 932 0 l 1,18,-1
 834 0 l 1,19,-1
 834 532 l 1,20,-1
 707 532 l 1,21,-1
 485 0 l 1,22,-1
 383 0 l 1,23,-1
 604 528 l 1,24,-1
 281 528 l 1,25,-1
 281 0 l 1,26,-1
 182 0 l 1,7,-1
EndSplineSet
Validated: 1
EndChar

StartChar: uni046A
Encoding: 1130 1130 537
Width: 1419
GlyphClass: 2
Flags: W
LayerCount: 2
Fore
SplineSet
285 1368 m 1,0,-1
 709 842 l 1,1,-1
 1133 1368 l 1,2,-1
 285 1368 l 1,0,-1
25 0 m 1,3,-1
 164 457 l 2,4,5
 211 615 211 615 263 685.5 c 128,-1,6
 315 756 315 756 395.5 792 c 128,-1,7
 476 828 476 828 596 831 c 1,8,-1
 158 1376 l 1,9,-1
 158 1462 l 1,10,-1
 1260 1462 l 1,11,-1
 1260 1376 l 1,12,-1
 821 831 l 1,13,14
 942 828 942 828 1021.5 793 c 128,-1,15
 1101 758 1101 758 1153 689 c 128,-1,16
 1205 620 1205 620 1251 471 c 128,-1,17
 1297 322 1297 322 1395 0 c 1,18,-1
 1290 0 l 1,19,-1
 1143 483 l 2,20,21
 1098 631 1098 631 1025 687 c 128,-1,22
 952 743 952 743 795 743 c 2,23,-1
 760 743 l 1,24,-1
 760 0 l 1,25,-1
 657 0 l 1,26,-1
 657 743 l 1,27,-1
 623 743 l 2,28,29
 514 743 514 743 452 719.5 c 128,-1,30
 390 696 390 696 349 641.5 c 128,-1,31
 308 587 308 587 276 483 c 2,32,-1
 129 0 l 1,33,-1
 25 0 l 1,3,-1
EndSplineSet
Validated: 1
EndChar

StartChar: uni046B
Encoding: 1131 1131 538
Width: 1241
GlyphClass: 2
Flags: W
LayerCount: 2
Fore
SplineSet
274 1001 m 1,0,-1
 621 621 l 1,1,-1
 965 1001 l 1,2,-1
 274 1001 l 1,0,-1
10 0 m 1,3,-1
 139 328 l 2,4,5
 187 452 187 452 232 509 c 128,-1,6
 277 566 277 566 340.5 595.5 c 128,-1,7
 404 625 404 625 500 631 c 1,8,-1
 156 1004 l 1,9,-1
 156 1087 l 1,10,-1
 1083 1087 l 1,11,-1
 1083 1004 l 1,12,-1
 741 631 l 1,13,14
 834 624 834 624 896.5 596 c 128,-1,15
 959 568 959 568 1003.5 514.5 c 128,-1,16
 1048 461 1048 461 1102 328 c 2,17,-1
 1231 0 l 1,18,-1
 1126 0 l 1,19,-1
 993 344 l 2,20,21
 949 459 949 459 886.5 501 c 128,-1,22
 824 543 824 543 707 543 c 2,23,-1
 670 543 l 1,24,-1
 670 0 l 1,25,-1
 571 0 l 1,26,-1
 571 543 l 1,27,-1
 537 543 l 2,28,29
 418 543 418 543 355.5 501 c 128,-1,30
 293 459 293 459 250 346 c 2,31,-1
 115 0 l 1,32,-1
 10 0 l 1,3,-1
EndSplineSet
Validated: 1
EndChar

StartChar: uni046C
Encoding: 1132 1132 539
Width: 1929
GlyphClass: 2
Flags: W
LayerCount: 2
Fore
SplineSet
795 1368 m 1,0,-1
 1223 829 l 1,1,-1
 1642 1368 l 1,2,-1
 795 1368 l 1,0,-1
207 0 m 1,3,-1
 207 1462 l 1,4,-1
 309 1462 l 1,5,-1
 309 823 l 1,6,-1
 1114 823 l 1,7,-1
 668 1376 l 1,8,-1
 668 1462 l 1,9,-1
 1769 1462 l 1,10,-1
 1769 1376 l 1,11,-1
 1331 817 l 1,12,13
 1457 813 1457 813 1537.5 779 c 128,-1,14
 1618 745 1618 745 1669.5 675 c 128,-1,15
 1721 605 1721 605 1765 457 c 2,16,-1
 1905 0 l 1,17,-1
 1800 0 l 1,18,-1
 1653 483 l 2,19,20
 1609 627 1609 627 1537.5 678 c 128,-1,21
 1466 729 1466 729 1305 729 c 2,22,-1
 1270 729 l 1,23,-1
 1270 0 l 1,24,-1
 1167 0 l 1,25,-1
 1167 729 l 1,26,-1
 1133 729 l 2,27,28
 1016 729 1016 729 954.5 706.5 c 128,-1,29
 893 684 893 684 854 631.5 c 128,-1,30
 815 579 815 579 786 483 c 2,31,-1
 639 0 l 1,32,-1
 535 0 l 1,33,-1
 674 457 l 2,34,35
 702 551 702 551 735 618 c 128,-1,36
 768 685 768 685 821 729 c 1,37,-1
 309 729 l 1,38,-1
 309 0 l 1,39,-1
 207 0 l 1,3,-1
EndSplineSet
Validated: 1
EndChar

StartChar: uni046D
Encoding: 1133 1133 540
Width: 1636
GlyphClass: 2
Flags: W
LayerCount: 2
Fore
SplineSet
670 1001 m 1,0,-1
 1016 621 l 1,1,-1
 1360 1001 l 1,2,-1
 670 1001 l 1,0,-1
182 0 m 1,3,-1
 182 1087 l 1,4,-1
 281 1087 l 1,5,-1
 281 614 l 1,6,-1
 911 614 l 1,7,-1
 551 1004 l 1,8,-1
 551 1087 l 1,9,-1
 1479 1087 l 1,10,-1
 1479 1004 l 1,11,-1
 1124 616 l 1,12,13
 1224 616 1224 616 1290.5 589.5 c 128,-1,14
 1357 563 1357 563 1401.5 510.5 c 128,-1,15
 1446 458 1446 458 1497 328 c 2,16,-1
 1626 0 l 1,17,-1
 1522 0 l 1,18,-1
 1389 344 l 2,19,20
 1347 453 1347 453 1289 490.5 c 128,-1,21
 1231 528 1231 528 1108 528 c 2,22,-1
 1065 528 l 1,23,-1
 1065 0 l 1,24,-1
 967 0 l 1,25,-1
 967 528 l 1,26,-1
 924 528 l 2,27,28
 800 528 800 528 742 490.5 c 128,-1,29
 684 453 684 453 643 346 c 2,30,-1
 508 0 l 1,31,-1
 406 0 l 1,32,-1
 535 328 l 2,33,34
 559 390 559 390 586 440.5 c 128,-1,35
 613 491 613 491 655 528 c 1,36,-1
 281 528 l 1,37,-1
 281 0 l 1,38,-1
 182 0 l 1,3,-1
EndSplineSet
Validated: 1
EndChar

StartChar: uni046E
Encoding: 1134 1134 541
Width: 1145
GlyphClass: 2
Flags: W
LayerCount: 2
Fore
SplineSet
82 -139 m 0,0,1
 82 -21 82 -21 180.5 42.5 c 128,-1,2
 279 106 279 106 494 119 c 0,3,4
 730 132 730 132 821.5 198.5 c 128,-1,5
 913 265 913 265 913 412 c 0,6,7
 913 711 913 711 471 711 c 2,8,-1
 254 711 l 1,9,-1
 254 807 l 1,10,-1
 479 807 l 2,11,12
 691 807 691 807 792 887 c 128,-1,13
 893 967 893 967 893 1114 c 0,14,15
 893 1239 893 1239 800.5 1314 c 128,-1,16
 708 1389 708 1389 559 1389 c 0,17,18
 448 1389 448 1389 355 1357.5 c 128,-1,19
 262 1326 262 1326 154 1249 c 1,20,-1
 96 1329 l 1,21,22
 170 1387 170 1387 271 1427.5 c 128,-1,23
 372 1468 372 1468 471 1477 c 1,24,25
 406 1552 406 1552 236 1722 c 1,26,-1
 236 1739 l 1,27,-1
 311 1739 l 1,28,29
 419 1662 419 1662 547 1536 c 1,30,31
 638 1649 638 1649 700.5 1692 c 128,-1,32
 763 1735 763 1735 823 1735 c 0,33,34
 864 1735 864 1735 899 1722 c 1,35,-1
 899 1638 l 1,36,37
 873 1649 873 1649 844 1649 c 0,38,39
 793 1649 793 1649 740.5 1612 c 128,-1,40
 688 1575 688 1575 618 1481 c 1,41,42
 799 1464 799 1464 900 1368 c 128,-1,43
 1001 1272 1001 1272 1001 1120 c 0,44,45
 1001 834 1001 834 698 768 c 1,46,-1
 698 762 l 1,47,48
 861 731 861 731 945.5 647 c 128,-1,49
 1030 563 1030 563 1030 410 c 0,50,51
 1030 217 1030 217 904 125 c 128,-1,52
 778 33 778 33 489 16 c 0,53,54
 332 7 332 7 262.5 -28 c 128,-1,55
 193 -63 193 -63 193 -139 c 0,56,57
 193 -285 193 -285 391 -285 c 0,58,59
 473 -285 473 -285 582 -276 c 0,60,61
 691 -268 691 -268 768 -268 c 0,62,63
 895 -268 895 -268 969 -303 c 1,64,-1
 969 -408 l 1,65,66
 925 -382 925 -382 871 -372 c 128,-1,67
 817 -362 817 -362 745 -362 c 0,68,69
 665 -362 665 -362 573.5 -370.5 c 128,-1,70
 482 -379 482 -379 391 -379 c 0,71,72
 241 -379 241 -379 161.5 -318.5 c 128,-1,73
 82 -258 82 -258 82 -139 c 0,0,1
EndSplineSet
Validated: 1
EndChar

StartChar: uni046F
Encoding: 1135 1135 542
Width: 926
GlyphClass: 2
Flags: W
LayerCount: 2
Fore
SplineSet
35 -135 m 0,0,1
 35 -28 35 -28 123 25 c 128,-1,2
 211 78 211 78 408 98 c 0,3,4
 583 117 583 117 651 170 c 128,-1,5
 719 223 719 223 719 328 c 0,6,7
 719 436 719 436 640 484 c 128,-1,8
 561 532 561 532 403 532 c 2,9,-1
 252 532 l 1,10,-1
 252 618 l 1,11,-1
 387 618 l 2,12,13
 682 618 682 618 682 821 c 0,14,15
 682 918 682 918 614 969 c 128,-1,16
 546 1020 546 1020 420 1020 c 0,17,18
 340 1020 340 1020 271 1001.5 c 128,-1,19
 202 983 202 983 123 948 c 1,20,-1
 86 1030 l 1,21,22
 231 1095 231 1095 358 1106 c 1,23,24
 333 1135 333 1135 303 1167 c 128,-1,25
 273 1199 273 1199 137 1335 c 1,26,-1
 137 1352 l 1,27,-1
 213 1352 l 1,28,29
 328 1268 328 1268 449 1149 c 1,30,31
 542 1265 542 1265 604 1306.5 c 128,-1,32
 666 1348 666 1348 725 1348 c 0,33,34
 760 1348 760 1348 801 1335 c 1,35,-1
 801 1251 l 1,36,37
 772 1262 772 1262 745 1262 c 0,38,39
 694 1262 694 1262 643 1227 c 128,-1,40
 592 1192 592 1192 526 1102 c 1,41,42
 786 1058 786 1058 786 829 c 0,43,44
 786 640 786 640 592 588 c 1,45,-1
 592 582 l 1,46,47
 715 554 715 554 769 491 c 128,-1,48
 823 428 823 428 823 324 c 0,49,50
 823 179 823 179 724 102.5 c 128,-1,51
 625 26 625 26 416 4 c 0,52,53
 260 -12 260 -12 199.5 -41.5 c 128,-1,54
 139 -71 139 -71 139 -133 c 0,55,56
 139 -188 139 -188 182.5 -212 c 128,-1,57
 226 -236 226 -236 322 -236 c 0,58,59
 386 -236 386 -236 596 -223 c 1,60,-1
 680 -221 l 2,61,62
 750 -221 750 -221 825 -252 c 1,63,-1
 825 -354 l 1,64,65
 758 -315 758 -315 659 -315 c 2,66,-1
 578 -317 l 1,67,68
 363 -330 363 -330 313 -330 c 0,69,70
 177 -330 177 -330 106 -280.5 c 128,-1,71
 35 -231 35 -231 35 -135 c 0,0,1
EndSplineSet
Validated: 1
EndChar

StartChar: afii10147
Encoding: 1138 1138 545
Width: 1565
GlyphClass: 2
Flags: W
LayerCount: 2
Fore
SplineSet
242 793 m 1,0,-1
 1323 793 l 1,1,2
 1310 1081 1310 1081 1170.5 1233.5 c 128,-1,3
 1031 1386 1031 1386 784 1386 c 0,4,5
 534 1386 534 1386 395 1232.5 c 128,-1,6
 256 1079 256 1079 242 793 c 1,0,-1
240 698 m 1,7,8
 248 399 248 399 387.5 237.5 c 128,-1,9
 527 76 527 76 782 76 c 0,10,11
 1038 76 1038 76 1177.5 236 c 128,-1,12
 1317 396 1317 396 1325 698 c 1,13,-1
 240 698 l 1,7,8
129 735 m 0,14,15
 129 1084 129 1084 304.5 1284.5 c 128,-1,16
 480 1485 480 1485 784 1485 c 0,17,18
 1090 1485 1090 1485 1263 1283.5 c 128,-1,19
 1436 1082 1436 1082 1436 733 c 0,20,21
 1436 385 1436 385 1262 182.5 c 128,-1,22
 1088 -20 1088 -20 782 -20 c 0,23,24
 477 -20 477 -20 303 182.5 c 128,-1,25
 129 385 129 385 129 735 c 0,14,15
EndSplineSet
Validated: 1
EndChar

StartChar: afii10195
Encoding: 1139 1139 546
Width: 1200
GlyphClass: 2
Flags: W
LayerCount: 2
Fore
SplineSet
225 610 m 1,0,-1
 975 610 l 1,1,2
 959 806 959 806 860.5 912 c 128,-1,3
 762 1018 762 1018 598 1018 c 0,4,5
 433 1018 433 1018 336 910.5 c 128,-1,6
 239 803 239 803 225 610 c 1,0,-1
223 522 m 1,7,8
 227 311 227 311 326 190.5 c 128,-1,9
 425 70 425 70 600 70 c 0,10,11
 774 70 774 70 872.5 188.5 c 128,-1,12
 971 307 971 307 977 522 c 1,13,-1
 223 522 l 1,7,8
119 545 m 0,14,15
 119 811 119 811 248 959.5 c 128,-1,16
 377 1108 377 1108 602 1108 c 0,17,18
 826 1108 826 1108 953.5 957.5 c 128,-1,19
 1081 807 1081 807 1081 545 c 0,20,21
 1081 279 1081 279 952 129.5 c 128,-1,22
 823 -20 823 -20 596 -20 c 0,23,24
 453 -20 453 -20 344 49 c 128,-1,25
 235 118 235 118 177 247 c 128,-1,26
 119 376 119 376 119 545 c 0,14,15
EndSplineSet
Validated: 1
EndChar

StartChar: afii10148
Encoding: 1140 1140 547
Width: 1210
GlyphClass: 2
Flags: W
LayerCount: 2
Fore
SplineSet
0 1462 m 1,0,-1
 109 1462 l 1,1,-1
 467 494 l 2,2,3
 552 260 552 260 588 139 c 1,4,5
 632 303 632 303 713 541 c 2,6,-1
 889 1073 l 2,7,8
 953 1265 953 1265 993 1338 c 128,-1,9
 1033 1411 1033 1411 1080.5 1443 c 128,-1,10
 1128 1475 1128 1475 1202 1475 c 0,11,12
 1250 1475 1250 1475 1292 1460 c 1,13,-1
 1292 1370 l 1,14,15
 1250 1384 1250 1384 1210 1384 c 0,16,17
 1161 1384 1161 1384 1130 1358 c 128,-1,18
 1099 1332 1099 1332 1069.5 1270.5 c 128,-1,19
 1040 1209 1040 1209 989 1061 c 2,20,-1
 635 0 l 1,21,-1
 541 0 l 1,22,-1
 0 1462 l 1,0,-1
EndSplineSet
Validated: 1
EndChar

StartChar: afii10196
Encoding: 1141 1141 548
Width: 973
GlyphClass: 2
Flags: W
LayerCount: 2
Fore
SplineSet
0 1087 m 1,0,-1
 102 1087 l 1,1,-1
 381 354 l 2,2,3
 454 167 454 167 477 84 c 1,4,-1
 483 84 l 1,5,6
 520 214 520 214 598 449 c 2,7,-1
 723 821 l 2,8,9
 759 930 759 930 793.5 992 c 128,-1,10
 828 1054 828 1054 866 1081 c 128,-1,11
 904 1108 904 1108 963 1108 c 0,12,13
 993 1108 993 1108 1022 1100 c 1,14,-1
 1022 1012 l 1,15,16
 993 1020 993 1020 965 1020 c 0,17,18
 920 1020 920 1020 886 971.5 c 128,-1,19
 852 923 852 923 813 805 c 2,20,-1
 541 0 l 1,21,-1
 420 0 l 1,22,-1
 0 1087 l 1,0,-1
EndSplineSet
Validated: 1
EndChar

StartChar: uni0478
Encoding: 1144 1144 551
Width: 2335
GlyphClass: 2
Flags: W
LayerCount: 2
Fore
SplineSet
1395 1087 m 1,0,-1
 1497 1087 l 1,1,2
 1666 637 1666 637 1753 407.5 c 128,-1,3
 1840 178 1840 178 1860 98 c 1,4,-1
 1866 98 l 1,5,6
 1876 133 1876 133 1919.5 254.5 c 128,-1,7
 1963 376 1963 376 2232 1087 c 1,8,-1
 2335 1087 l 1,9,-1
 1847 -176 l 2,10,11
 1794 -318 1794 -318 1753 -377 c 128,-1,12
 1712 -436 1712 -436 1658 -464 c 128,-1,13
 1604 -492 1604 -492 1526 -492 c 0,14,15
 1469 -492 1469 -492 1399 -471 c 1,16,-1
 1399 -385 l 1,17,18
 1457 -401 1457 -401 1524 -401 c 0,19,20
 1575 -401 1575 -401 1613.5 -377.5 c 128,-1,21
 1652 -354 1652 -354 1683 -305.5 c 128,-1,22
 1714 -257 1714 -257 1755 -150 c 2,23,-1
 1810 0 l 1,24,-1
 1395 1087 l 1,0,-1
240 733 m 0,25,26
 240 416 240 416 359.5 246 c 128,-1,27
 479 76 479 76 709 76 c 0,28,29
 941 76 941 76 1061.5 243.5 c 128,-1,30
 1182 411 1182 411 1182 733 c 0,31,32
 1182 1053 1182 1053 1062 1219.5 c 128,-1,33
 942 1386 942 1386 713 1386 c 0,34,35
 481 1386 481 1386 360.5 1219 c 128,-1,36
 240 1052 240 1052 240 733 c 0,25,26
129 735 m 0,37,38
 129 1083 129 1083 285 1284 c 128,-1,39
 441 1485 441 1485 713 1485 c 0,40,41
 990 1485 990 1485 1141 1285 c 128,-1,42
 1292 1085 1292 1085 1292 733 c 0,43,44
 1292 383 1292 383 1136 181.5 c 128,-1,45
 980 -20 980 -20 709 -20 c 0,46,47
 433 -20 433 -20 281 178 c 128,-1,48
 129 376 129 376 129 735 c 0,37,38
EndSplineSet
Validated: 1
EndChar

